<?xml version="1.0" encoding="UTF-8"?>
<svg width="20px" height="20px" viewBox="0 0 20 20" version="1.1" xmlns="http://www.w3.org/2000/svg" xmlns:xlink="http://www.w3.org/1999/xlink">
    <title>edit / plus_circle_outline</title>
    <defs>
        <rect id="path-1" x="0" y="0" width="24" height="24"></rect>
    </defs>
    <g id="Page-1" stroke="none" stroke-width="1" fill="none" fill-rule="evenodd">
        <g id="Landing-Soolantra" transform="translate(-749.000000, -2710.000000)">
            <g id="Group-7" transform="translate(498.000000, 2706.000000)">
                <g id="edit-/-plus_circle_outline" transform="translate(249.000000, 2.000000)">
                    <mask id="mask-2" fill="white">
                        <use xlink:href="#path-1"></use>
                    </mask>
                    <g id="edit-/-plus_circle_outline-(Background/Mask)"></g>
                    <path d="M12,2 C6.48000002,2 2,6.48000002 2,12 C2,17.5200005 6.48000002,22 12,22 C17.5200005,22 22,17.5200005 22,12 C22,6.48000002 17.5200005,2 12,2 C8.32000001,2 8.32000001,2 12,2 Z M11,7 L11,11 L7,11 L7,13 L11,13 L11,17 L13,17 L13,13 L17,13 L17,11 L13,11 L13,7 L11,7 L11,7 Z M4,12 C4,16.4099998 7.59000015,20 12,20 C16.4099998,20 20,16.4099998 20,12 C20,7.59000015 16.4099998,4 12,4 C7.59000015,4 4,7.59000015 4,12 C4,14.9399999 4,14.9399999 4,12 Z" fill="#FFFFFF" mask="url(#mask-2)"></path>
                </g>
            </g>
        </g>
    </g>
</svg>