<?xml version="1.0" encoding="UTF-8"?>
<svg width="135px" height="166px" viewBox="0 0 135 166" version="1.1" xmlns="http://www.w3.org/2000/svg" xmlns:xlink="http://www.w3.org/1999/xlink">
    <title>Group 22</title>
    <g id="Page-1" stroke="none" stroke-width="1" fill="none" fill-rule="evenodd">
        <g id="Landing-Soolantra" transform="translate(-830.000000, -4302.000000)">
            <g id="Group-22" transform="translate(832.000000, 4304.000000)">
                <g id="Group-33">
                    <path d="M0,162 L28.3529175,153.067294 C35.1750471,150.918118 40.2208255,144.981647 40.9464238,137.865412 C40.9675988,137.657882 42,122 42,122" id="Stroke-1" stroke="#E97406" stroke-width="4" stroke-linecap="round" stroke-linejoin="round"></path>
                    <path d="M89,122 C89,122 90.0324012,137.657882 90.0535762,137.865412 C90.7791745,144.981647 95.8249529,150.918118 102.647083,153.067294 L131,162" id="Stroke-3" stroke="#E97406" stroke-width="4" stroke-linecap="round" stroke-linejoin="round"></path>
                    <path d="M51,86 C51,88.2093311 49.6569426,90 48,90 C46.3430574,90 45,88.2093311 45,86 C45,83.7911186 46.3430574,82 48,82 C49.6569426,82 51,83.7911186 51,86" id="Fill-5" fill="#E97406"></path>
                    <path d="M85,86 C85,88.2093311 83.6569426,90 82,90 C80.3430574,90 79,88.2093311 79,86 C79,83.7911186 80.3430574,82 82,82 C83.6569426,82 85,83.7911186 85,86" id="Fill-7" fill="#E97406"></path>
                    <path d="M55,109 C56.7141117,110.353188 60.544856,111 64.9997657,111 C69.4546754,111 73.2858883,110.353188 75,109" id="Stroke-9" stroke="#E97406" stroke-width="4" stroke-linecap="round" stroke-linejoin="round"></path>
                    <path d="M62,100 C62.5999162,100.58946 63.9405602,101 65.4997555,101 C67.0589509,101 68.4000838,100.58946 69,100" id="Stroke-11" stroke="#E97406" stroke-width="4" stroke-linecap="round" stroke-linejoin="round"></path>
                    <path d="M60,115 C60.8571712,115.58946 62.7722969,116 64.9997521,116 C67.2272074,116 69.1428288,115.58946 70,115" id="Stroke-13" stroke="#E97406" stroke-width="4" stroke-linecap="round" stroke-linejoin="round"></path>
                    <path d="M101,95 C101.855311,91.7211078 102.528959,88.3676849 103,85" id="Stroke-15" stroke="#E97406" stroke-width="4" stroke-linecap="round" stroke-linejoin="round"></path>
                    <path d="M27,86 C29.048613,99.2704409 34.3988697,112.302606 41.7552958,121.587818 C48.2114451,129.739102 56.2144293,135 64.8790627,135 C73.5436961,135 81.5438507,129.739102 88,121.587818" id="Stroke-17" stroke="#E97406" stroke-width="4" stroke-linecap="round" stroke-linejoin="round"></path>
                    <path d="M30,95.7232332 C29.3259925,95.9036301 28.6149516,96 27.8811969,96 C23.5285404,96 20,92.6080641 20,88.4233313 C20,84.7617495 22.7014616,81.7063962 26.2927118,81" id="Stroke-19" stroke="#E97406" stroke-width="4" stroke-linecap="round" stroke-linejoin="round"></path>
                    <path d="M101,82.4639944 C100.501989,81.3919832 100.202898,80.2038612 100.139756,78.968347 C99.69017,70.2026889 97.3961873,50.34726 85.9144049,45 C85.9144049,45 86.6782746,57.7001571 62.1129098,57.9086827 C42.6605819,58.0740815 36.0838967,62.8578484 33.2662668,75.3134619 C32.6372256,78.0934873 31.5196686,80.7000574 30,83" id="Stroke-21" stroke="#E97406" stroke-width="4" stroke-linecap="round" stroke-linejoin="round"></path>
                    <path d="M104.09107,81 C107.982691,81.445171 111,84.6212588 111,88.4735915 C111,92.6305646 107.486035,96 103.151357,96 C102.405389,96 101.683517,95.9004967 101,95.7137513" id="Stroke-23" stroke="#E97406" stroke-width="4" stroke-linecap="round" stroke-linejoin="round"></path>
                    <path d="M106.410616,81 C107.976027,75.6543681 108.875596,70.0178271 108.984921,64.2942498 C108.99623,63.8978566 109,63.4972062 109,63.0970288 C109,43.3804878 99.5538145,28.7716482 85.7077969,21.7221877 C79.6709276,18.6394974 72.7952769,17 65.5016493,17 C58.2080217,17 51.3286012,18.6394974 45.2917319,21.7221877 C31.4424157,28.7716482 22,43.384272 22,63.0970288 C22,63.4972062 22.0037698,63.8978566 22.014608,64.2942498 C22.1239323,70.0178271 23.0235017,75.6543681 24.5926825,81" id="Stroke-25" stroke="#E97406" stroke-width="4" stroke-linecap="round" stroke-linejoin="round"></path>
                    <path d="M86,20.0700848 C86,20.3800565 85.9923599,20.6900283 85.9770798,21 C79.8602425,17.9531135 72.8924915,16.3321905 65.5016713,16.3321905 C58.110851,16.3321905 51.1397575,17.9531135 45.0224427,21 C45.0071626,20.6900283 45,20.3800565 45,20.0700848 C45,8.98403722 54.179076,0 65.4978512,0 C76.8204465,0 86,8.98403722 86,20.0700848 Z" id="Stroke-27" stroke="#E97406" stroke-width="4" stroke-linecap="round" stroke-linejoin="round"></path>
                    <path d="M76,77 C76,77 80.6768417,74.75 88,77" id="Stroke-29" stroke="#E97406" stroke-width="4" stroke-linecap="round" stroke-linejoin="round"></path>
                    <path d="M54,77 C54,77 49.3231583,74.75 42,77" id="Stroke-31" stroke="#E97406" stroke-width="4" stroke-linecap="round" stroke-linejoin="round"></path>
                </g>
                <g id="Group-20" transform="translate(82.000000, 85.000000)">
                    <circle id="Oval" fill="#7CC291" cx="20" cy="20" r="20"></circle>
                    <polyline id="Stroke-1" stroke="#FFFFFF" stroke-width="5" stroke-linecap="round" stroke-linejoin="round" points="11 21.5721355 18.1087848 29 29 10"></polyline>
                </g>
            </g>
        </g>
    </g>
</svg>