<?xml version="1.0" encoding="UTF-8"?>
<svg width="231px" height="145px" viewBox="0 0 231 145" version="1.1" xmlns="http://www.w3.org/2000/svg" xmlns:xlink="http://www.w3.org/1999/xlink">
    <title>Group 15</title>
    <defs>
        <polygon id="path-1" points="0 0 65.5694195 0 65.5694195 20.3334 0 20.3334"></polygon>
        <polygon id="path-3" points="0 0 48.7413192 0 48.7413192 22.1032511 0 22.1032511"></polygon>
    </defs>
    <g id="Page-1" stroke="none" stroke-width="1" fill="none" fill-rule="evenodd">
        <g id="Landing-Soolantra" transform="translate(-179.000000, -3798.000000)">
            <g id="Group-15" transform="translate(179.000000, 3801.000000)">
                <g id="Group-83" transform="translate(102.000000, 0.000000)">
                    <path d="M48,70 C48,70.5521851 47.5521851,71 47,71 C46.4478149,71 46,70.5521851 46,70 C46,69.4478149 46.4478149,69 47,69 C47.5521851,69 48,69.4478149 48,70" id="Fill-1" fill="#E97406"></path>
                    <path d="M67,57 C67,57.5521851 66.5521851,58 66,58 C65.4478149,58 65,57.5521851 65,57 C65,56.4478149 65.4478149,56 66,56 C66.5521851,56 67,56.4478149 67,57" id="Fill-3" fill="#E97406"></path>
                    <path d="M61,64 C61,64.5521851 60.5521851,65 60,65 C59.4478149,65 59,64.5521851 59,64 C59,63.4478149 59.4478149,63 60,63 C60.5521851,63 61,63.4478149 61,64" id="Fill-5" fill="#E97406"></path>
                    <path d="M66,70 C66,70.5521851 65.5521851,71 65,71 C64.4478149,71 64,70.5521851 64,70 C64,69.4478149 64.4478149,69 65,69 C65.5521851,69 66,69.4478149 66,70" id="Fill-7" fill="#E97406"></path>
                    <path d="M55,40 C55,40.5521851 54.5521851,41 54,41 C53.4478149,41 53,40.5521851 53,40 C53,39.4478149 53.4478149,39 54,39 C54.5521851,39 55,39.4478149 55,40" id="Fill-9" fill="#E97406"></path>
                    <path d="M62,44 C62,44.5521851 61.5521851,45 61,45 C60.4478149,45 60,44.5521851 60,44 C60,43.4478149 60.4478149,43 61,43 C61.5521851,43 62,43.4478149 62,44" id="Fill-11" fill="#E97406"></path>
                    <path d="M69,39 C69,39.5521851 68.5521851,40 68,40 C67.4478149,40 67,39.5521851 67,39 C67,38.4478149 67.4478149,38 68,38 C68.5521851,38 69,38.4478149 69,39" id="Fill-13" fill="#E97406"></path>
                    <path d="M82,41 C82,41.5521851 81.5521851,42 81,42 C80.4478149,42 80,41.5521851 80,41 C80,40.4478149 80.4478149,40 81,40 C81.5521851,40 82,40.4478149 82,41" id="Fill-15" fill="#E97406"></path>
                    <path d="M86,35 C86,35.5521851 85.5521851,36 85,36 C84.4478149,36 84,35.5521851 84,35 C84,34.4478149 84.4478149,34 85,34 C85.5521851,34 86,34.4478149 86,35" id="Fill-17" fill="#E97406"></path>
                    <path d="M86,35 C86,35.5521851 85.5521851,36 85,36 C84.4478149,36 84,35.5521851 84,35 C84,34.4478149 84.4478149,34 85,34 C85.5521851,34 86,34.4478149 86,35 Z" id="Stroke-19" stroke="#E97406"></path>
                    <path d="M92,65 C92,65.5521851 91.5521851,66 91,66 C90.4478149,66 90,65.5521851 90,65 C90,64.4478149 90.4478149,64 91,64 C91.5521851,64 92,64.4478149 92,65" id="Fill-21" fill="#E97406"></path>
                    <path d="M79,70 C79,70.5521851 78.5521851,71 78,71 C77.4478149,71 77,70.5521851 77,70 C77,69.4478149 77.4478149,69 78,69 C78.5521851,69 79,69.4478149 79,70" id="Fill-23" fill="#E97406"></path>
                    <path d="M42,78 C42,78.5521851 41.5521851,79 41,79 C40.4478149,79 40,78.5521851 40,78 C40,77.4478149 40.4478149,77 41,77 C41.5521851,77 42,77.4478149 42,78" id="Fill-25" fill="#E97406"></path>
                    <path d="M38,65 C38,65.5521851 37.5521851,66 37,66 C36.4478149,66 36,65.5521851 36,65 C36,64.4478149 36.4478149,64 37,64 C37.5521851,64 38,64.4478149 38,65" id="Fill-27" fill="#E97406"></path>
                    <path d="M90,75 C90,75.5521851 89.5521851,76 89,76 C88.4478149,76 88,75.5521851 88,75 C88,74.4478149 88.4478149,74 89,74 C89.5521851,74 90,74.4478149 90,75" id="Fill-29" fill="#E97406"></path>
                    <path d="M82,84 C82,84.5521851 81.5521851,85 81,85 C80.4478149,85 80,84.5521851 80,84 C80,83.4478149 80.4478149,83 81,83 C81.5521851,83 82,83.4478149 82,84" id="Fill-31" fill="#E97406"></path>
                    <path d="M91,54 C91,54.5521851 90.5521851,55 90,55 C89.4478149,55 89,54.5521851 89,54 C89,53.4478149 89.4478149,53 90,53 C90.5521851,53 91,53.4478149 91,54" id="Fill-33" fill="#E97406"></path>
                    <path d="M75,95 C75,95.5521851 74.5521851,96 74,96 C73.4478149,96 73,95.5521851 73,95 C73,94.4478149 73.4478149,94 74,94 C74.5521851,94 75,94.4478149 75,95" id="Fill-35" fill="#E97406"></path>
                    <path d="M67,98 C67,98.5521851 66.5521851,99 66,99 C65.4478149,99 65,98.5521851 65,98 C65,97.4478149 65.4478149,97 66,97 C66.5521851,97 67,97.4478149 67,98" id="Fill-37" fill="#E97406"></path>
                    <path d="M55,93 C55,93.5521851 54.5521851,94 54,94 C53.4478149,94 53,93.5521851 53,93 C53,92.4478149 53.4478149,92 54,92 C54.5521851,92 55,92.4478149 55,93" id="Fill-39" fill="#E97406"></path>
                    <path d="M55,76 C55,76.5521851 54.5521851,77 54,77 C53.4478149,77 53,76.5521851 53,76 C53,75.4478149 53.4478149,75 54,75 C54.5521851,75 55,75.4478149 55,76" id="Fill-41" fill="#E97406"></path>
                    <path d="M71,44 C71,44.5521851 70.5521851,45 70,45 C69.4478149,45 69,44.5521851 69,44 C69,43.4478149 69.4478149,43 70,43 C70.5521851,43 71,43.4478149 71,44" id="Fill-43" fill="#E97406"></path>
                    <path d="M45,43 C45,43.5521851 44.5521851,44 44,44 C43.4478149,44 43,43.5521851 43,43 C43,42.4478149 43.4478149,42 44,42 C44.5521851,42 45,42.4478149 45,43" id="Fill-45" fill="#E97406"></path>
                    <path d="M0,133 C0,133 10.4602548,129.01688 20,125" id="Stroke-47" stroke="#E97406" stroke-width="4" stroke-linecap="round" stroke-linejoin="round"></path>
                    <path d="M87,91 L87.9225132,107.351888 C87.9242375,107.378297 87.9259618,107.405139 87.9276862,107.431981 C88.1880591,111.404143 90.1417179,115.069356 93.1756655,117.631022 C96.6570751,120.571071 127,131 127,131" id="Stroke-49" stroke="#E97406" stroke-width="4" stroke-linecap="round" stroke-linejoin="round"></path>
                    <path d="M30,68.7417297 C29.4606566,68.910262 28.8920435,69 28.3050881,69 C24.8227718,69 22,65.8337815 22,61.9282096 C22,58.5107248 24.1612762,55.6592458 27.0343919,55 L28.401483,55" id="Stroke-51" stroke="#E97406" stroke-width="4" stroke-linecap="round" stroke-linejoin="round"></path>
                    <path d="M29.2717789,58.1722095 C29.2717789,58.1722095 13.6713707,20.1648111 42.0957141,5.01966299 C68.7449783,-9.17956247 85.8113398,11.2560023 85.8113398,11.2560023 C85.8378985,11.4507256 110.236639,16.3062601 99.0785006,52.5589849 C97.4153163,55.656384 95.7064161,59 95.7064161,59 C95.7064161,59 94.7328872,55.295064 94.6040122,52.7900565 C94.1869099,44.6891332 92.0578598,26.338839 81.3995474,21.3971935 C81.3995474,21.3971935 82.1079246,33.1346833 59.3048831,33.327243 C41.2475772,33.4799927 35.1429939,37.9010778 32.5271793,49.4122558 C31.7652493,52.7649589 31.400829,55.6390753 29.2717789,58.1722095" id="Stroke-53" stroke="#E97406" stroke-width="4" stroke-linecap="round" stroke-linejoin="round"></path>
                    <path d="M99.4729887,55 C102.586475,55.4157038 105,58.3799851 105,61.9752143 C105,65.8548267 102.188885,69 98.721337,69 C98.1243684,69 97.5468325,68.906945 97,68.7330103" id="Stroke-55" stroke="#E97406" stroke-width="4" stroke-linecap="round" stroke-linejoin="round"></path>
                    <path d="M50,63 C50,63.5522244 48.656738,64 47,64 C45.343262,64 44,63.5522244 44,63 C44,62.4477756 45.343262,62 47,62 C48.656738,62 50,62.4477756 50,63" id="Fill-57" fill="#E97406"></path>
                    <path d="M83,62.5 C83,63.3285455 81.656738,64 80,64 C78.343262,64 77,63.3285455 77,62.5 C77,61.6714545 78.343262,61 80,61 C81.656738,61 83,61.6714545 83,62.5" id="Fill-59" fill="#E97406"></path>
                    <path d="M72,85 C70.3718432,82.9697867 66.7320201,82 62.4997801,82 C58.2679799,82 54.6281568,82.9697867 53,85" id="Stroke-61" stroke="#E97406" stroke-width="4" stroke-linecap="round" stroke-linejoin="round"></path>
                    <path d="M60,72 C60.5999586,73.1790421 61.9409289,74 63.5002415,74 C65.0595542,74 66.4005245,73.1790421 67,72" id="Stroke-63" stroke="#E97406" stroke-width="4" stroke-linecap="round" stroke-linejoin="round"></path>
                    <path d="M59,87 C59.6857031,88.1790421 61.2181515,89 62.9998041,89 C64.7818485,89 66.3142969,88.1790421 67,87" id="Stroke-65" stroke="#E97406" stroke-width="4" stroke-linecap="round" stroke-linejoin="round"></path>
                    <path d="M31,68 C30.5700745,64.3814285 30.2322275,60.7505719 30,58" id="Stroke-67" stroke="#E97406" stroke-width="4" stroke-linecap="round" stroke-linejoin="round"></path>
                    <path d="M97,59 C96.8798037,62.1528952 96.6984005,66.2132835 96.4460327,70.1101399 C95.9430713,77.8776876 92.5407631,85.187782 86.9075058,90.655853 L75.0209382,102.195537 C73.1696497,103.992643 70.6725835,105 68.071288,105 L58.8507711,105 C56.2490321,105 53.7524094,103.992643 51.9011208,102.195537 L49,99.3788631" id="Stroke-69" stroke="#E97406" stroke-width="4" stroke-linecap="round" stroke-linejoin="round"></path>
                    <path d="M74,52 C74,52 77.8973681,49.75 84,52" id="Stroke-71" stroke="#E97406" stroke-width="4" stroke-linecap="round" stroke-linejoin="round"></path>
                    <path d="M51,52 C51,52 47.1026319,49.75 41,52" id="Stroke-73" stroke="#E97406" stroke-width="4" stroke-linecap="round" stroke-linejoin="round"></path>
                    <path d="M43.7004644,139 L43.7004644,125.242417 C43.7004644,124.676953 43.8223684,124.123333 44.0456656,123.622794 C44.4787152,122.650669 45.1904025,120.616489 45.4009288,117.405319 C45.7101393,112.686829 46.7921827,102.887496 46.4829721,100.347074 C46.1737616,97.8066522 46.9469814,96.17343 47.874226,92.5437548 C48.8018576,88.9145183 50,82.200014 50,80.4307996 C50,78.6615852 48.9562693,77.3003473 47.7972136,78.3891621 C46.6377709,79.477977 46.1737616,82.472437 45.4783282,84.9220511 C44.7825077,87.3721037 43.3912539,89.8217177 42,94.4494001" id="Stroke-75" stroke="#E97406" stroke-width="4" stroke-linecap="round" stroke-linejoin="round"></path>
                    <path d="M22.9689112,139 C22.9689112,139 24.5874592,128.792428 24.7225258,126.117908 C24.8571421,123.442957 24.4528428,116.623254 22.9689112,111.809118 C21.4849796,106.994982 19.6867931,100.397689 20.0465204,97.099042 C20.4062478,93.8003954 22.4741173,91.3043204 24.0030711,88.1841188 C25.5315746,85.0639173 32.2758997,73.296029 33.3550818,71.1564129 C34.4338136,69.0167969 35.6030401,68.5706844 36.4120889,69.3732559 C37.221588,70.1753964 37.4012266,73.2068065 35.6030401,76.2377855 C33.8044033,79.2687646 32.2758997,82.0325072 31.4664006,83.5484277 C30.6573518,85.0639173 29.6682141,89.2539269 27.4202558,91.3043204" id="Stroke-77" stroke="#E97406" stroke-width="4" stroke-linecap="round" stroke-linejoin="round"></path>
                    <path d="M36.4168394,73.6104711 C36.4168394,73.6104711 39.0301838,67.9777698 40.15849,66.6483443 C41.2867961,65.3184902 43.2213812,66.0834885 42.9792554,68.49334 C42.7375332,70.9031916 41.8509492,76.1330367 40.15849,80.1221703 C38.4660307,84.1108754 35,92 35,92" id="Stroke-79" stroke="#E97406" stroke-width="4" stroke-linecap="round" stroke-linejoin="round"></path>
                    <path d="M42,71.2004954 C42,71.2004954 43.991036,68.401913 45.6012395,69.1168924 C46.5789133,69.5511629 47.3757973,70.113476 46.8132357,73.5397359 C46.2502045,76.9655481 44.3746861,85 44.3746861,85" id="Stroke-81" stroke="#E97406" stroke-width="4" stroke-linecap="round" stroke-linejoin="round"></path>
                </g>
                <g id="Group-17" transform="translate(0.000000, 45.000000)">
                    <g id="Group-3" transform="translate(19.775392, 0.000000)">
                        <mask id="mask-2" fill="white">
                            <use xlink:href="#path-1"></use>
                        </mask>
                        <g id="Clip-2"></g>
                        <path d="M1.60140789,18.2024 C2.07740789,18.2134 2.53740789,18.2184 2.96940789,18.2184 C4.86040789,18.2184 6.33540789,18.1154 7.35440789,17.9124 C8.56440789,17.6724 9.98640789,16.9114 11.9654079,15.4474 C13.3454079,14.4254 14.8084079,13.2054 16.3574079,11.9114 L16.3634079,11.9064 C19.5754079,9.2254 23.2154079,6.1864 25.4454079,5.6794 L35.8724079,3.3344 C35.9214079,3.3304 35.9704079,3.3234 36.0184079,3.3154 C36.6334079,3.2024 37.2554079,3.3364 37.7704079,3.6924 C38.2854079,4.0474 38.6304079,4.5824 38.7424079,5.1984 C38.8424079,5.7424 38.7454079,6.3064 38.4704079,6.7844 C38.0204079,7.5674 38.2904079,8.5714 39.0734079,9.0214 C39.1084079,9.0414 39.1434079,9.0604 39.1804079,9.0774 L32.0864079,9.0714 C31.3584079,9.0714 30.7104079,9.5594 30.5114079,10.2584 C30.4694079,10.4034 30.4484079,10.5534 30.4484079,10.7054 C30.4474079,11.1434 30.6174079,11.5544 30.9254079,11.8654 C31.2344079,12.1744 31.6454079,12.3464 32.0834079,12.3474 L59.9574079,12.3734 L59.9634079,12.3734 C60.5864079,12.3764 61.1714079,12.6214 61.6114079,13.0624 C62.0524079,13.5054 62.2944079,14.0944 62.2934079,14.7204 C62.2924079,15.3454 62.0474079,15.9334 61.6044079,16.3744 C61.1624079,16.8144 60.5754079,17.0574 59.9514079,17.0574 L40.3934079,17.0474 C39.6654079,17.0474 39.0184079,17.5364 38.8184079,18.2354 C38.7764079,18.3814 38.7554079,18.5314 38.7554079,18.6824 C38.7544079,19.1204 38.9244079,19.5314 39.2324079,19.8414 C39.5414079,20.1514 39.9534079,20.3234 40.3914079,20.3244 L59.9414079,20.3334 L59.9524079,20.3334 C61.4484079,20.3334 62.8564079,19.7514 63.9164079,18.6954 C64.9794079,17.6364 65.5664079,16.2274 65.5694195,14.7264 C65.5724079,13.2264 64.9914079,11.8144 63.9324079,10.7504 C62.9004079,9.7144 61.5254079,9.1274 60.0624079,9.0984 L59.9084079,9.0974 L59.9014079,9.0974 L40.5964079,9.0794 C40.8944079,8.9364 41.1444079,8.7054 41.3104079,8.4184 C41.9714079,7.2684 42.2044079,5.9154 41.9654079,4.6094 C41.6964079,3.1334 40.8674079,1.8504 39.6334079,0.9974 C38.4764079,0.1974 37.0734079,-0.1376 35.6864079,0.0514 C35.5784079,0.0544 35.4694079,0.0674 35.3644079,0.0914 L24.7474079,2.4784 C24.7214079,2.4824 24.6954079,2.4884 24.6734079,2.4954 C21.6804079,3.1994 17.9104079,6.3474 14.2644079,9.3914 L14.2594079,9.3954 C12.7484079,10.6574 11.3204079,11.8484 10.0164079,12.8144 C8.50940789,13.9294 7.39840789,14.5634 6.71540789,14.6994 C5.69540789,14.9024 3.99940789,14.9794 1.67540789,14.9274 C0.93140789,14.9104 0.26740789,15.3984 0.0634078905,16.1144 C0.0244078905,16.2484 0.00340789045,16.3884 0,16.5284 C-0.0195921095,17.4314 0.69840789,18.1824 1.60140789,18.2024" id="Fill-1" fill="#E97406" mask="url(#mask-2)"></path>
                    </g>
                    <path d="M67.7701192,24.1083 C67.7711,23.7283 67.7331,23.3483 67.6581,22.9773 C67.5711,22.5483 67.3231,22.1793 66.9581,21.9373 C66.5941,21.6953 66.1571,21.6103 65.7281,21.6973 C65.2991,21.7843 64.9291,22.0323 64.6881,22.3973 C64.4461,22.7623 64.3611,23.1983 64.4471,23.6273 C64.4781,23.7823 64.4941,23.9413 64.4941,24.1013 C64.4911,25.3903 63.4391,26.4393 62.1471,26.4393 L60.4081,26.4353 C59.6801,26.4353 59.0321,26.9243 58.8321,27.6233 C58.7911,27.7683 58.7701,27.9183 58.7701,28.0703 C58.7691,28.5073 58.9381,28.9193 59.2471,29.2293 C59.5561,29.5393 59.9671,29.7103 60.4041,29.7113 L62.1421,29.7153 L62.1521,29.7153 C62.3331,29.7153 62.5171,29.7063 62.6981,29.6883 C62.6751,29.9483 62.7151,30.2123 62.8151,30.4543 C62.9321,30.7373 62.9911,31.0393 62.9911,31.3513 C62.9891,31.9763 62.7451,32.5643 62.3011,33.0053 C61.8591,33.4463 61.2711,33.6883 60.6441,33.6883 L59.3611,33.6853 C58.6331,33.6853 57.9851,34.1743 57.7851,34.8743 C57.7441,35.0193 57.7231,35.1693 57.7221,35.3203 C57.7221,35.7583 57.8911,36.1693 58.2001,36.4793 C58.5091,36.7893 58.9201,36.9613 59.3571,36.9613 L60.5641,36.9643 C60.5571,37.1493 60.5801,37.3323 60.6351,37.5103 C60.6881,37.6823 60.7141,37.8613 60.7141,38.0443 C60.7121,39.0333 59.9061,39.8383 58.9111,39.8393 L58.8971,39.8393 C58.7501,39.8393 57.3611,39.8263 55.0851,39.8043 L54.9951,39.8033 L54.9731,39.8033 L54.9651,39.8043 C54.2591,39.8343 53.6541,40.3113 53.4601,40.9913 C53.4111,41.1593 53.3911,41.3343 53.3981,41.5103 C53.4361,42.4003 54.1931,43.1043 55.0821,43.0783 C55.3771,43.0823 57.9871,43.1153 58.8271,43.1153 L58.9181,43.1153 L58.9181,43.0863 L58.9261,43.1153 C61.7131,43.1093 63.9841,40.8373 63.9901,38.0513 C63.9911,37.5393 63.9161,37.0333 63.7661,36.5473 C63.7221,36.4043 63.6591,36.2683 63.5781,36.1423 C63.9521,35.9133 64.3001,35.6383 64.6131,35.3273 C65.6771,34.2673 66.2641,32.8583 66.2671,31.3573 C66.2681,30.6123 66.1261,29.8883 65.8431,29.2043 C65.7541,28.9873 65.6231,28.7973 65.4541,28.6383 C66.9011,27.5823 67.7661,25.8913 67.7701192,24.1083 L67.7701192,24.1083 Z" id="Fill-4" fill="#E97406"></path>
                    <path d="M43.1346,30.7772 L41.3806,30.7722 C41.5236,30.0672 41.5306,29.3532 41.4016,28.6492 C41.1326,27.1732 40.3036,25.8902 39.0696,25.0372 C38.1716,24.4162 37.1256,24.0722 36.0436,24.0422 C35.7546,24.0342 26.0196,24.1352 24.9106,24.1472 L24.8866,24.1472 C24.8696,24.1472 24.8526,24.1482 24.8376,24.1502 C22.2186,24.2982 19.2106,26.8782 16.0256,29.6102 C16.0246,29.6112 16.0246,29.6112 16.0236,29.6122 C16.0226,29.6132 16.0216,29.6132 16.0216,29.6142 C15.4586,30.0972 14.8766,30.5962 14.3076,31.0712 L14.3006,31.0762 C12.7906,32.3372 11.3636,33.5292 10.0586,34.4942 C8.5526,35.6092 7.4416,36.2442 6.7586,36.3802 C5.7376,36.5832 4.0416,36.6592 1.7176,36.6072 C0.9736,36.5922 0.3106,37.0782 0.1056,37.7952 C0.0676,37.9292 0.0466,38.0682 0.0431921095,38.2082 C0.0236,39.1112 0.7416,39.8622 1.6446,39.8822 C4.2076,39.9402 6.1436,39.8422 7.3976,39.5932 C8.6076,39.3522 10.0296,38.5922 12.0076,37.1282 C13.3886,36.1062 14.8516,34.8852 16.4016,33.5912 L16.4066,33.5862 C16.9326,33.1472 17.4766,32.6812 18.0056,32.2282 C20.6006,30.0052 23.5416,27.4862 25.3576,27.3762 C29.5036,27.3502 35.7526,27.3132 35.9746,27.3182 C36.4146,27.3362 36.8406,27.4792 37.2066,27.7322 C37.7216,28.0882 38.0666,28.6232 38.1796,29.2382 C38.2736,29.7572 38.1896,30.2972 37.9416,30.7612 L34.6126,30.7512 C33.8846,30.7512 33.2376,31.2392 33.0376,31.9392 C32.9966,32.0832 32.9756,32.2342 32.9746,32.3862 C32.9736,32.8232 33.1436,33.2352 33.4526,33.5452 C33.7606,33.8552 34.1716,34.0262 34.6086,34.0272 L43.1276,34.0532 C43.7536,34.0542 44.3406,34.2992 44.7826,34.7422 C45.2236,35.1862 45.4666,35.7742 45.4656,36.4002 C45.4636,37.0262 45.2196,37.6132 44.7756,38.0552 C44.3336,38.4952 43.7466,38.7372 43.1226,38.7372 L41.4086,38.7372 C40.6806,38.7372 40.0326,39.2262 39.8336,39.9252 C39.7916,40.0702 39.7706,40.2202 39.7706,40.3722 C39.7696,40.8092 39.9396,41.2212 40.2486,41.5312 C40.5576,41.8412 40.9686,42.0122 41.4066,42.0132 L43.1236,42.0132 C44.6196,42.0132 46.0276,41.4322 47.0876,40.3762 C48.1506,39.3172 48.7386,37.9072 48.7416115,36.4072 C48.7446,34.9062 48.1626,33.4942 47.1036,32.4312 C46.0446,31.3672 44.6356,30.7802 43.1346,30.7772" id="Fill-6" fill="#E97406"></path>
                    <g id="Group-10" transform="translate(0.000000, 42.713349)">
                        <mask id="mask-4" fill="white">
                            <use xlink:href="#path-3"></use>
                        </mask>
                        <g id="Clip-9"></g>
                        <path d="M47.9293,0.273251111 C47.5643,0.0312511115 47.1273,-0.0537488885 46.6993,0.0332511115 C46.2703,0.119251111 45.9003,0.368251111 45.6593,0.733251111 C45.4173,1.09725111 45.3313,1.53425111 45.4183,1.96325111 C45.4493,2.11825111 45.4653,2.27725111 45.4653,2.43725111 C45.4623,3.72625111 44.4093,4.77425111 43.1183,4.77425111 L41.3793,4.77125111 C40.6513,4.77125111 40.0033,5.26025111 39.8033,5.95925111 C39.7623,6.10425111 39.7413,6.25525111 39.7413,6.40625111 C39.7393,7.30925111 40.4723,8.04525111 41.3753,8.04725111 L43.1133,8.05025111 L43.1233,8.05025111 C43.1723,8.05025111 43.2213,8.05025111 43.2703,8.04825111 C43.2473,8.30825111 43.2883,8.57225111 43.3883,8.81525111 C43.5053,9.09925111 43.5643,9.40125111 43.5643,9.71325111 C43.5633,10.3382511 43.3183,10.9262511 42.8743,11.3672511 C42.4323,11.8072511 41.8443,12.0502511 41.2173,12.0502511 L39.9343,12.0472511 C39.2063,12.0472511 38.5583,12.5362511 38.3583,13.2352511 C38.3173,13.3802511 38.2963,13.5312511 38.2963,13.6822511 C38.2943,14.5852511 39.0273,15.3212511 39.9303,15.3232511 L40.9743,15.3252511 C40.8113,15.6892511 40.7853,16.0962511 40.9023,16.4772511 C40.9553,16.6482511 40.9823,16.8282511 40.9813,17.0112511 C40.9793,17.9962511 40.1753,18.8022511 39.1883,18.8062511 L39.1763,18.8062511 L39.1663,18.8062511 C38.3943,18.8092511 20.2163,18.8732511 16.9173,18.7622511 C15.6233,18.7182511 13.9713,17.8152511 12.3733,16.9422511 C10.3363,15.8302511 8.4133,14.7782511 6.4253,14.8642511 L1.5683,15.0712511 C0.8623,15.1012511 0.2573,15.5782511 0.0633,16.2582511 C0.0153,16.4272511 -0.0057,16.6012511 0.0013,16.7782511 C0.0403,17.6792511 0.8063,18.3822511 1.7083,18.3452511 L6.5653,18.1372511 C7.6413,18.0882511 9.2443,18.9662511 10.7943,19.8132511 L10.8043,19.8182511 C12.7363,20.8742511 14.7353,21.9662511 16.8063,22.0362511 C18.1223,22.0802511 21.8183,22.1032511 27.7903,22.1032511 C33.0343,22.1032511 38.1993,22.0852511 39.1813,22.0822511 L39.1933,22.0822511 C41.9803,22.0762511 44.2523,19.8042511 44.2573,17.0172511 C44.2583,16.5052511 44.1833,16.0002511 44.0343,15.5142511 C43.9503,15.2422511 43.7983,14.9972511 43.5923,14.8042511 C44.1833,14.5292511 44.7193,14.1532511 45.1863,13.6882511 C46.2503,12.6292511 46.8373,11.2202511 46.8403,9.71925111 C46.8413,8.97425111 46.6993,8.25025111 46.4173,7.56625111 C46.3553,7.41625111 46.2713,7.27625111 46.1683,7.15125111 C47.7763,6.10925111 48.7373,4.35225111 48.7413192,2.44425111 C48.7423,2.06425111 48.7043,1.68325111 48.6293,1.31325111 C48.5423,0.884251111 48.2943,0.515251111 47.9293,0.273251111" id="Fill-8" fill="#E97406" mask="url(#mask-4)"></path>
                    </g>
                    <path d="M88.8647,51.9259 L88.8647,51.9259 C87.8047,50.8699 86.3967,50.2879 84.9007,50.2879 L81.9477,50.2849 C81.5107,50.2859 81.0997,50.4569 80.7907,50.7669 C80.4817,51.0769 80.3117,51.4889 80.3127,51.9259 C80.3137,52.0779 80.3347,52.2279 80.3757,52.3729 C80.5757,53.0719 81.2237,53.5609 81.9517,53.5609 L84.8947,53.5639 L84.9007,53.5639 C85.5237,53.5639 86.1107,53.8069 86.5527,54.2469 C86.9957,54.6889 87.2407,55.2759 87.2417,55.9019 C87.2437,56.5269 87.0007,57.1159 86.5597,57.5589 C86.1177,58.0029 85.5307,58.2469 84.9047,58.2489 L73.6407,58.2619 C73.2037,58.2629 72.7927,58.4339 72.4837,58.7439 C72.1747,59.0549 72.0047,59.4659 72.0056956,59.9029 C72.0067,60.0549 72.0277,60.2049 72.0687,60.3499 C72.2687,61.0489 72.9177,61.5379 73.6467,61.5379 L84.8497,61.5249 L84.8497,61.4959 L84.8577,61.5249 L85.0047,61.5249 C85.0187,61.5249 85.0317,61.5239 85.0427,61.5229 C86.4927,61.4869 87.8557,60.8999 88.8807,59.8709 C89.9397,58.8079 90.5217,57.3959 90.5187115,55.8949 C90.5157,54.3949 89.9277,52.9849 88.8647,51.9259" id="Fill-11" fill="#E97406"></path>
                    <path d="M85.7723,32.5578 C85.7663,29.7708 83.4943,27.4988 80.7053,27.4928 L80.6963,27.4928 C79.9473,27.4908 73.7553,27.4738 73.4423,27.4728 C72.5463,27.4418 71.7893,28.1458 71.7503,29.0398 C71.7433,29.2168 71.7643,29.3908 71.8123,29.5598 C72.0063,30.2398 72.6113,30.7158 73.3173,30.7468 L73.3453,30.7468 C73.4003,30.7478 80.2953,30.7678 80.6713,30.7688 C80.6863,30.7698 80.7003,30.7698 80.7133,30.7698 C81.6943,30.7778 82.4943,31.5838 82.4963,32.5648 C82.4963,32.7468 82.4703,32.9268 82.4173,33.0978 C82.3263,33.3948 82.3213,33.7078 82.4023,34.0068 L81.1393,34.0088 C80.2363,34.0108 79.5033,34.7468 79.5043,35.6498 C79.5053,35.8018 79.5263,35.9518 79.5673,36.0978 C79.7673,36.7968 80.4163,37.2848 81.1463,37.2848 L82.4303,37.2828 C83.0543,37.2828 83.6413,37.5248 84.0833,37.9648 C84.5263,38.4068 84.7713,38.9938 84.7733,39.6198 C84.7733,39.9318 84.7143,40.2328 84.5973,40.5168 C84.5253,40.6908 84.4843,40.8738 84.4753,41.0608 C84.2403,41.0318 84.0023,41.0158 83.7663,41.0158 L82.0193,41.0198 C81.5813,41.0208 81.1703,41.1918 80.8623,41.5018 C80.5533,41.8118 80.3833,42.2238 80.3843,42.6608 C80.3843,42.8128 80.4063,42.9628 80.4473,43.1078 C80.6473,43.8078 81.2963,44.2958 82.0253,44.2958 L83.7663,44.2928 C85.0553,44.2928 86.1063,45.3408 86.1083,46.6298 C86.1093,46.7898 86.0933,46.9488 86.0623,47.1038 C85.9753,47.5328 86.0603,47.9698 86.3023,48.3338 C86.5443,48.6988 86.9133,48.9468 87.3423,49.0338 C87.4503,49.0558 87.5603,49.0668 87.6703,49.0668 C87.9913,49.0668 88.3033,48.9728 88.5723,48.7938 C88.9373,48.5518 89.1863,48.1828 89.2723,47.7538 C89.3483,47.3838 89.3853,47.0028 89.3843197,46.6228 C89.3813,45.1248 88.7943,43.7158 87.7293,42.6558 C87.5943,42.5208 87.4503,42.3908 87.3003,42.2688 C87.4393,42.1218 87.5483,41.9528 87.6253,41.7668 C87.9083,41.0828 88.0503,40.3588 88.0493,39.6138 C88.0463,38.1128 87.4583,36.7028 86.3953,35.6438 C86.0283,35.2778 85.6143,34.9658 85.1653,34.7148 C85.3413,34.5308 85.4733,34.3058 85.5483,34.0618 C85.6983,33.5758 85.7733,33.0698 85.7723,32.5578" id="Fill-13" fill="#E97406"></path>
                    <path d="M76.3699,64.519 L76.3699,64.519 C76.0189,64.261 75.5889,64.155 75.1589,64.221 C74.7289,64.287 74.3499,64.516 74.0919,64.867 C73.8339,65.218 73.7279,65.648 73.7939,66.078 C74.9439,73.61 74.9819,76.482 74.9819,76.51 C74.9819,77.703 74.0119,78.674 72.8179,78.674 C71.9269,78.674 71.1149,78.116 70.7969,77.284 C70.7909,77.269 70.7839,77.253 70.7779,77.24 C70.7699,77.218 70.7609,77.196 70.7509,77.175 L65.1469,65.199 C64.3649,63.156 61.3799,60.373 59.6699,58.896 C56.8029,56.419 53.7419,54.339 51.4819,53.334 C51.0839,53.156 50.6409,53.145 50.2349,53.301 C49.8279,53.457 49.5069,53.762 49.3299,54.16 C49.1529,54.558 49.1419,55 49.2979,55.407 C49.4539,55.813 49.7589,56.134 50.1569,56.311 C52.1409,57.194 54.9009,59.082 57.5389,61.362 C60.4869,63.909 61.8869,65.758 62.1089,66.379 C62.1219,66.417 62.1379,66.456 62.1549,66.496 C62.1579,66.502 62.1609,66.509 62.1639,66.515 L67.7779,78.512 C68.1699,79.499 68.8379,80.343 69.7099,80.954 C70.6239,81.595 71.6989,81.933 72.8179,81.933 C75.8089,81.933 78.2409,79.5 78.2409,76.509 C78.2409,76.39 78.2249,73.506 77.0159,65.586 C76.9499,65.156 76.7209,64.777 76.3699,64.519" id="Fill-15" fill="#E97406"></path>
                </g>
            </g>
        </g>
    </g>
</svg>