<?xml version="1.0" encoding="UTF-8"?>
<svg width="304px" height="152px" viewBox="0 0 304 152" version="1.1" xmlns="http://www.w3.org/2000/svg" xmlns:xlink="http://www.w3.org/1999/xlink">
    <title>Group 8</title>
    <defs>
        <polygon id="path-1" points="0 0 10.32 0 10.32 9.2745098 0 9.2745098"></polygon>
        <polygon id="path-3" points="0 0 13.76 0 13.76 5.05882353 0 5.05882353"></polygon>
    </defs>
    <g id="Page-1" stroke="none" stroke-width="1" fill="none" fill-rule="evenodd">
        <g id="Landing-Soolantra" transform="translate(-171.000000, -3594.000000)">
            <g id="Group-8" transform="translate(173.000000, 3594.000000)">
                <g id="Group-73" transform="translate(0.000000, 8.000000)">
                    <path d="M0,142 C0,142 32.6186443,130.789023 36.3611596,127.628504 C39.6221899,124.874278 41.7228365,120.934217 42.0027374,116.664654 C42.004591,116.635799 42.0064447,116.606944 42.0082983,116.578089 L43,99" id="Stroke-1" stroke="#E97406" stroke-width="4" stroke-linecap="round" stroke-linejoin="round"></path>
                    <path d="M92,99 L92.9917017,116.578089 C92.9935553,116.606944 92.995409,116.635333 92.9972626,116.664188 C93.2771635,120.934217 95.3773467,124.874278 98.6388404,127.628039 C102.381356,130.788558 135,142 135,142" id="Stroke-3" stroke="#E97406" stroke-width="4" stroke-linecap="round" stroke-linejoin="round"></path>
                    <path d="M33,73.7232818 C32.3258208,73.9038522 31.6150544,74 30.8813601,74 C26.5284648,74 23,70.607623 23,66.4230817 C23,62.7614908 25.7015952,59.7063348 29.2929899,59 L31.0018537,59" id="Stroke-5" stroke="#E97406" stroke-width="4" stroke-linecap="round" stroke-linejoin="round"></path>
                    <path d="M31.6047083,63.1020577 C31.6047083,63.1020577 14.7886975,21.8736934 45.4274307,5.44505816 C74.1537069,-9.95749149 92.5498999,12.2099008 92.5498999,12.2099008 C92.5785281,12.4211261 118.878448,17.6881466 106.850854,57.0131361 C105.058072,60.3730267 103.216012,64 103.216012,64 C103.216012,64 102.166625,59.9810864 102.027708,57.2637901 C101.578105,48.4763478 99.2831562,28.570944 87.7943353,23.210515 C87.7943353,23.210515 88.5579101,35.9427073 63.9780282,36.1515857 C44.5136752,36.3172802 37.9334154,41.1130335 35.1137734,53.5997351 C34.2924729,57.2365656 33.8996566,60.3542511 31.6047083,63.1020577" id="Stroke-7" stroke="#E97406" stroke-width="4" stroke-linecap="round" stroke-linejoin="round"></path>
                    <path d="M106.091236,59 C109.982608,59.4453969 113,62.6214126 113,66.4734439 C113,70.6301714 109.486106,74 105.151671,74 C104.405461,74 103.683541,73.9002982 103,73.7139396" id="Stroke-9" stroke="#E97406" stroke-width="4" stroke-linecap="round" stroke-linejoin="round"></path>
                    <path d="M54,65 C54,67.2094857 52.6566299,69 50.9997585,69 C49.342887,69 48,67.2094857 48,65 C48,62.7909586 49.342887,61 50.9997585,61 C52.6566299,61 54,62.7909586 54,65" id="Fill-11" fill="#E97406"></path>
                    <path d="M88,65 C88,67.2094857 86.656738,69 85,69 C83.343262,69 82,67.2094857 82,65 C82,62.7909586 83.343262,61 85,61 C86.656738,61 88,62.7909586 88,65" id="Fill-13" fill="#E97406"></path>
                    <path d="M78,90 C76.2861508,88.6465245 72.454758,88 68.0002315,88 C63.545242,88 59.7138492,88.6465245 58,90" id="Stroke-15" stroke="#E97406" stroke-width="4" stroke-linecap="round" stroke-linejoin="round"></path>
                    <path d="M64,79 C64.5999172,79.5895211 65.9407949,80 67.5,80 C69.0592051,80 70.4000828,79.5895211 71,79" id="Stroke-17" stroke="#E97406" stroke-width="4" stroke-linecap="round" stroke-linejoin="round"></path>
                    <path d="M63,95 C63.8571289,95.5895211 65.7726894,96 67.9997551,96 C70.2273106,96 72.1428711,95.5895211 73,95" id="Stroke-19" stroke="#E97406" stroke-width="4" stroke-linecap="round" stroke-linejoin="round"></path>
                    <path d="M103,63.8837608 C102.873553,67.2502468 102.682717,71.5857034 102.417226,75.7465497 C101.88811,84.0403047 98.3088777,91.8456166 92.3826848,97.6841184 L79.8775359,110.00555 C77.9304448,111.924401 75.3035284,113 72.5669626,113 L62.8669685,113 C60.1299362,113 57.5034863,111.924401 55.5559287,110.00555 L42.8468788,97.4829674 C37.0522649,91.7734443 33.5056944,84.1790617 32.8510649,76.0790077 C32.4768577,71.4446183 32.1880368,66.5545995 32,63" id="Stroke-21" stroke="#E97406" stroke-width="4" stroke-linecap="round" stroke-linejoin="round"></path>
                    <path d="M79,56 C79,56 83.6768417,53.75 91,56" id="Stroke-23" stroke="#E97406" stroke-width="4" stroke-linecap="round" stroke-linejoin="round"></path>
                    <path d="M57,56 C57,56 52.3231583,53.75 45,56" id="Stroke-25" stroke="#E97406" stroke-width="4" stroke-linecap="round" stroke-linejoin="round"></path>
                    <path d="M50,78 C50,78.5521851 49.5521851,79 49,79 C48.4478149,79 48,78.5521851 48,78 C48,77.4478149 48.4478149,77 49,77 C49.5521851,77 50,77.4478149 50,78" id="Fill-27" fill="#E97406"></path>
                    <path d="M70,64 C70,64.5521851 69.5521851,65 69,65 C68.4478149,65 68,64.5521851 68,64 C68,63.4478149 68.4478149,63 69,63 C69.5521851,63 70,63.4478149 70,64" id="Fill-29" fill="#E97406"></path>
                    <path d="M64,71 C64,71.5521851 63.5521851,72 63,72 C62.4478149,72 62,71.5521851 62,71 C62,70.4478149 62.4478149,70 63,70 C63.5521851,70 64,70.4478149 64,71" id="Fill-31" fill="#E97406"></path>
                    <path d="M69,77 C69,77.5521851 68.5521851,78 68,78 C67.4478149,78 67,77.5521851 67,77 C67,76.4478149 67.4478149,76 68,76 C68.5521851,76 69,76.4478149 69,77" id="Fill-33" fill="#E97406"></path>
                    <path d="M58,46 C58,46.5521851 57.5521851,47 57,47 C56.4478149,47 56,46.5521851 56,46 C56,45.4478149 56.4478149,45 57,45 C57.5521851,45 58,45.4478149 58,46" id="Fill-35" fill="#E97406"></path>
                    <path d="M65,49 C65,49.5521851 64.5521851,50 64,50 C63.4478149,50 63,49.5521851 63,49 C63,48.4478149 63.4478149,48 64,48 C64.5521851,48 65,48.4478149 65,49" id="Fill-37" fill="#E97406"></path>
                    <path d="M72,43 C72,43.5521851 71.5521851,44 71,44 C70.4478149,44 70,43.5521851 70,43 C70,42.4478149 70.4478149,42 71,42 C71.5521851,42 72,42.4478149 72,43" id="Fill-39" fill="#E97406"></path>
                    <path d="M86,47 C86,47.5521851 85.5521851,48 85,48 C84.4478149,48 84,47.5521851 84,47 C84,46.4478149 84.4478149,46 85,46 C85.5521851,46 86,46.4478149 86,47" id="Fill-41" fill="#E97406"></path>
                    <path d="M91,39 C91,39.5521851 90.5521851,40 90,40 C89.4478149,40 89,39.5521851 89,39 C89,38.4478149 89.4478149,38 90,38 C90.5521851,38 91,38.4478149 91,39" id="Fill-43" fill="#E97406"></path>
                    <path d="M91,39 C91,39.5521851 90.5521851,40 90,40 C89.4478149,40 89,39.5521851 89,39 C89,38.4478149 89.4478149,38 90,38 C90.5521851,38 91,38.4478149 91,39 Z" id="Stroke-45" stroke="#E97406"></path>
                    <path d="M97,72 C97,72.5521851 96.5521851,73 96,73 C95.4478149,73 95,72.5521851 95,72 C95,71.4478149 95.4478149,71 96,71 C96.5521851,71 97,71.4478149 97,72" id="Fill-47" fill="#E97406"></path>
                    <path d="M84,77 C84,77.5521851 83.5521851,78 83,78 C82.4478149,78 82,77.5521851 82,77 C82,76.4478149 82.4478149,76 83,76 C83.5521851,76 84,76.4478149 84,77" id="Fill-49" fill="#E97406"></path>
                    <path d="M45,86 C45,86.5521851 44.5521851,87 44,87 C43.4478149,87 43,86.5521851 43,86 C43,85.4478149 43.4478149,85 44,85 C44.5521851,85 45,85.4478149 45,86" id="Fill-51" fill="#E97406"></path>
                    <path d="M39,72 C39,72.5521851 38.5521851,73 38,73 C37.4478149,73 37,72.5521851 37,72 C37,71.4478149 37.4478149,71 38,71 C38.5521851,71 39,71.4478149 39,72" id="Fill-53" fill="#E97406"></path>
                    <path d="M95,83 C95,83.5521851 94.5521851,84 94,84 C93.4478149,84 93,83.5521851 93,83 C93,82.4478149 93.4478149,82 94,82 C94.5521851,82 95,82.4478149 95,83" id="Fill-55" fill="#E97406"></path>
                    <path d="M86,92 C86,92.5521851 85.5521851,93 85,93 C84.4478149,93 84,92.5521851 84,92 C84,91.4478149 84.4478149,91 85,91 C85.5521851,91 86,91.4478149 86,92" id="Fill-57" fill="#E97406"></path>
                    <path d="M96,61 C96,61.5521851 95.5521851,62 95,62 C94.4478149,62 94,61.5521851 94,61 C94,60.4478149 94.4478149,60 95,60 C95.5521851,60 96,60.4478149 96,61" id="Fill-59" fill="#E97406"></path>
                    <path d="M80,104 C80,104.552185 79.5521851,105 79,105 C78.4478149,105 78,104.552185 78,104 C78,103.447815 78.4478149,103 79,103 C79.5521851,103 80,103.447815 80,104" id="Fill-61" fill="#E97406"></path>
                    <path d="M70,106 C70,106.552185 69.5521851,107 69,107 C68.4478149,107 68,106.552185 68,106 C68,105.447815 68.4478149,105 69,105 C69.5521851,105 70,105.447815 70,106" id="Fill-63" fill="#E97406"></path>
                    <path d="M58,101 C58,101.552185 57.5521851,102 57,102 C56.4478149,102 56,101.552185 56,101 C56,100.447815 56.4478149,100 57,100 C57.5521851,100 58,100.447815 58,101" id="Fill-65" fill="#E97406"></path>
                    <path d="M57,84 C57,84.5521851 56.5521851,85 56,85 C55.4478149,85 55,84.5521851 55,84 C55,83.4478149 55.4478149,83 56,83 C56.5521851,83 57,83.4478149 57,84" id="Fill-67" fill="#E97406"></path>
                    <path d="M75,50 C75,50.5521851 74.5521851,51 74,51 C73.4478149,51 73,50.5521851 73,50 C73,49.4478149 73.4478149,49 74,49 C74.5521851,49 75,49.4478149 75,50" id="Fill-69" fill="#E97406"></path>
                    <path d="M47,49 C47,49.5521851 46.5521851,50 46,50 C45.4478149,50 45,49.5521851 45,49 C45,48.4478149 45.4478149,48 46,48 C46.5521851,48 47,48.4478149 47,49" id="Fill-71" fill="#E97406"></path>
                </g>
                <g id="Group-19" transform="translate(171.785714, 83.798701)">
                    <circle id="Oval" fill="#E97406" cx="33.7142857" cy="33.7012987" r="33.5"></circle>
                    <g id="Group-4" transform="translate(13.214286, 6.201299)" fill="#FFFFFF">
                        <polygon id="Fill-1" points="17.6458912 -0.348101266 9.74640635 19.5151937 14.8296208 18.0044616 13.4982616 27.0725995 16.4806274 26.1859163 15.3573201 41.6382668 23.25767 21.7745037 19.6178428 22.856407 21.0344125 13.2082265 16.5641077 14.5359106"></polygon>
                        <polygon id="Fill-2" points="33.7980101 23.4130141 25.5544391 40.6141064 31.0454987 38.219006 22.413216 54.4912366 39.3755502 32.8658172 31.6292419 34.7326875 40.9912036 20.2166504"></polygon>
                        <polygon id="Fill-3" points="-0.387041407 29.566159 3.80359001 41.9395994 5.34592535 38.094337 8.90195237 50.2069133 6.86404257 31.4265078 3.96459564 36.1175473 1.60557154 24.5009737"></polygon>
                    </g>
                </g>
                <g id="Group-11" transform="translate(234.584416, 27.714286)">
                    <circle id="Oval-Copy" fill="#E97406" cx="33.9155844" cy="33.7857143" r="33.5"></circle>
                    <g id="Group-17" transform="translate(16.415584, 14.285714)">
                        <path d="M27.510555,28.1012752 C27.4440406,27.2810165 26.9883742,26.3246031 26.4605786,25.217462 C25.7302165,23.6843693 24.9022426,21.9468365 25.124245,20.5578095 C25.2857798,19.5505984 25.6956636,18.6678834 26.0576053,17.8892622 C26.2364166,17.5041153 26.4057258,17.1402035 26.5232057,16.802107 C26.9529575,15.5629751 27.3274246,13.2962296 26.9667786,10.9857648 C26.463602,7.7601077 24.6685785,5.17192074 21.7756365,3.50059152 C21.3337913,3.24535365 20.760645,3.38359015 20.4958833,3.80954176 C20.2311217,4.23549338 20.3749481,4.78760662 20.8163615,5.04284449 C27.2561592,8.76315506 24.7800117,16.1575586 24.754097,16.2316733 C24.6659871,16.4860784 24.5217287,16.795445 24.3554428,17.1539439 C23.9654269,17.9929395 23.4803905,19.0363753 23.2808475,20.2834184 C22.9728947,22.2066545 23.9671546,24.2922768 24.7657586,25.9681861 C25.1808254,26.8392426 25.6101452,27.7406945 25.6507449,28.2411772 C25.6611107,28.3694207 25.6546321,28.5405508 25.5639307,28.6300715 C25.4464508,28.7470728 25.1609574,28.8061981 24.8007434,28.7891267 C24.5282074,28.7758027 24.2595585,28.728336 23.999116,28.6825347 C23.2251309,28.5463801 22.0550832,28.3402745 21.2003307,29.5460965 C20.2790638,30.8447701 20.7619407,31.8403227 21.0500255,32.4349062 C21.0763721,32.4886185 21.1079017,32.553573 21.1359759,32.6160293 C20.8863311,32.6214422 20.2384642,32.5098537 19.4947129,32.4944478 C18.0301016,32.4415682 16.4639912,32.6476738 16.260561,32.6743218 C16.2082997,32.6809838 16.1573342,32.6905604 16.1076644,32.7030517 C15.5746858,32.8346262 15.1941719,33.2647415 15.2343397,33.7190066 C15.2783946,34.215742 15.8096455,34.5534221 16.4203681,34.4734781 C16.9105875,34.40894 18.1886131,34.2919386 19.211811,34.365637 C19.347863,34.5246922 19.4675025,34.6845802 19.5469742,34.815322 C19.4264709,34.8436355 19.2860997,34.8702835 19.1755304,34.8906859 C18.5263677,35.0131001 17.6374942,35.1804829 17.2526613,35.997827 C16.8872643,36.7747827 16.4976803,37.5096846 15.9085532,38.5335507 C15.5124906,39.2214022 14.3009793,40.0449919 12.7348689,39.3259123 C12.2727238,39.113561 11.8520422,38.8554086 11.4071735,38.5822666 C10.0254892,37.7341107 8.4598107,36.7727008 5.71328664,37.4747091 C2.24287923,38.3615878 0.221534272,41.4989734 0.136879654,41.6322134 C-0.131769184,42.0556667 0.00730625923,42.6090291 0.446560067,42.8680144 C0.540284822,42.9229759 0.639624425,42.9604496 0.741123584,42.980852 C1.11645452,43.0570486 1.51726822,42.9029899 1.72890476,42.5694735 C1.7457493,42.5428255 3.43625019,39.9167484 6.19098056,39.2130747 C8.14753882,38.7130083 9.14395822,39.3246632 10.4051393,40.0991207 C10.8780822,40.389334 11.3670058,40.6895404 11.9328096,40.9493584 C12.3077086,41.1217376 12.6787204,41.2412373 13.0419578,41.3149356 C15.0274542,41.7171539 16.771512,40.7407545 17.5398823,39.4054399 C18.130737,38.3782428 18.5466676,37.5954578 18.9215666,36.8043453 C19.0450932,36.7477183 19.3461354,36.6910913 19.533153,36.6556995 C20.1291906,36.5436946 20.8707823,36.404209 21.2867129,35.7792301 C21.5804126,35.3387054 21.5635681,34.8577922 21.398578,34.4018616 C21.9894326,34.3560604 22.5785597,34.1695244 22.8696679,33.6219913 C23.2959644,32.820053 22.9612331,32.1301197 22.7400945,31.6733563 C22.5068624,31.1928596 22.4196163,31.0129856 22.7400945,30.5608023 C22.8951507,30.3417891 22.9115633,30.3188884 23.6639528,30.4517121 C23.9684503,30.5050081 24.3131155,30.5657988 24.7074506,30.5849521 C25.8792259,30.6415791 26.5473928,30.2347807 26.90156,29.8837766 C27.2194468,29.5685807 27.583548,29.0031435 27.510555,28.1012752" id="Fill-1" fill="#FFFFFF"></path>
                        <path d="M20.282673,19.595324 L15.1813576,17.7067518 C14.9458735,17.6932288 14.7301181,17.8386011 14.6507839,18.0621533 C14.5718694,18.2861281 14.6482653,18.5354585 14.8388353,18.6753371 L18.5444563,21.8185905 C18.6846554,21.9212808 18.8575956,21.9453687 19.0120664,21.8988834 C19.1195244,21.865921 19.2177477,21.7991512 19.2886868,21.7011094 C19.4620467,21.4619213 19.409577,21.1263817 19.1719941,20.9518504 L19.0057701,20.8022522 C19.1379937,20.7206916 19.3033783,20.6129301 19.3772556,20.4688256 L19.9317556,20.607859 C20.2092154,20.7059008 20.51312,20.5579929 20.610084,20.2782358 C20.707048,19.9984786 20.5605526,19.6929432 20.282673,19.595324" id="Fill-3" fill="#FFFFFF"></path>
                        <path d="M5.40258156,13.5083242 L5.20401261,13.4975901 C2.8738668,13.3708453 1.01290204,14.8868285 0.874669231,17.0229115 C0.808029312,18.0566865 0.981383155,18.8349077 1.13402459,19.5218891 C1.27045632,20.1345577 1.38842698,20.6642435 1.34565136,21.3272797 C1.27090659,22.4857353 1.7585487,23.5405656 2.61901414,24.0805726 C2.88917597,24.2498409 3.18275183,24.3613103 3.49073632,24.4145678 C3.99593895,24.5020919 4.54076531,24.4319075 5.08559168,24.2031889 C5.45166096,24.0491961 5.61240725,23.6524478 5.44445665,23.3168012 C5.27695631,22.9807417 4.84379684,22.8337673 4.47772755,22.9873473 C4.07338534,23.1574413 3.72487657,23.1537256 3.44255746,22.9770261 C3.01570176,22.7090868 2.75814748,22.07784 2.80137337,21.406134 C2.85585601,20.5684625 2.70681673,19.9004721 2.56318069,19.2543627 C2.41504195,18.5892623 2.27500807,17.9609054 2.33084151,17.1021786 C2.42089546,15.7042704 3.59339782,14.7497625 5.11756083,14.8323324 L5.31612977,14.8430664 C6.10950503,14.8860028 6.57643473,15.3950461 6.78400907,15.694362 C7.11991028,16.1786344 7.23292798,16.7628163 7.06542765,17.1488306 C7.06092495,17.1595646 7.05687252,17.1702987 7.05282009,17.18062 C6.83894198,17.7577835 6.5723823,18.1772385 6.32428368,18.5042153 C6.1648882,18.2622855 5.97082195,18.0550351 5.74118439,17.885354 C4.97167344,17.3164474 4.49708915,17.4072743 4.02880864,17.4151184 C3.29396845,17.4679632 3.17374643,18.7296311 4.22602678,18.7399523 C4.22782786,18.7403651 4.22872839,18.7403651 4.2300792,18.740778 C4.30482398,18.7383009 4.5884939,18.7428422 4.84109522,18.93812 C5.14502728,19.1730314 5.33414056,19.62923 5.38727239,20.257174 C5.4138383,20.5647468 5.66328773,20.8079151 5.97892681,20.8624113 C6.04106403,20.8731453 6.1054526,20.8764481 6.17119198,20.8719068 C6.55347097,20.8446587 6.8429944,20.5515356 6.8429944,20.2059807 C6.86370681,20.1576773 6.87901598,20.1073096 6.88667057,20.0544649 C6.92719484,19.9879962 7.04201362,19.8529944 7.13611999,19.7419379 C7.49318388,19.3212443 8.03215674,18.6862819 8.42794383,17.6260845 C8.76114342,16.8387806 8.60354902,15.8256481 8.01459622,14.9768297 C7.40718237,14.1007632 6.4548619,13.5648846 5.40258156,13.5083242" id="Fill-5" fill="#FFFFFF"></path>
                        <path d="M4.6068195,18.9456357 C4.5870395,18.9464788 4.5749995,18.947322 4.5715595,18.947322 C4.5715595,18.947322 5.2604195,19.0569298 4.6068195,18.9456357" id="Fill-7" fill="#FFFFFF"></path>
                        <path d="M22.1490361,15.6641237 C22.09986,15.3376337 21.7547798,15.1079496 21.3796005,15.1499112 C21.0035733,15.1922407 20.7381922,15.4914926 20.7873682,15.8179825 L20.8793614,16.4304733 C19.6270678,16.2600507 16.8808398,15.6729577 14.9718764,13.7026072 C14.7276919,13.4508381 14.2948579,13.4180787 14.0044648,13.6300947 C13.7144957,13.8421108 13.6771898,14.218292 13.9209503,14.4700611 C16.836327,17.4795111 21.2986296,17.6815888 21.4868551,17.6889505 C21.4953338,17.6889505 21.5029645,17.6885824 21.5110192,17.6885824 C21.5631628,17.6996249 21.6170021,17.7058824 21.6725371,17.7058824 C21.7022123,17.7058824 21.7318875,17.70441 21.7619867,17.7010973 C22.1380139,17.6583996 22.402971,17.3595159 22.3542189,17.0330259 L22.1490361,15.6641237 Z" id="Fill-9" fill="#FFFFFF"></path>
                        <g id="Group-13" transform="translate(28.380000, 0.000000)">
                            <mask id="mask-2" fill="white">
                                <use xlink:href="#path-1"></use>
                            </mask>
                            <g id="Clip-12"></g>
                            <path d="M0.873933645,9.20666797 C1.04805088,9.14684287 6.9765999,6.17262123 6.9765999,6.17262123 C7.23553302,6.03593749 7.39619388,5.76506271 7.40394149,5.46801446 C7.41005802,5.2395158 7.23145533,4.97487281 6.99658057,4.75177502 L6.17533442,3.98983586 C6.17533442,3.98983586 9.79591264,1.33260418 10.0434282,1.10285916 C10.2909438,0.873529601 10.4124589,0.547815149 10.2375261,0.260322291 C10.0625934,-0.0271705678 9.66868881,-0.0496049816 9.41057123,0.0625670874 C9.15204588,0.174739156 2.63753324,3.0604695 2.63753324,3.0604695 C2.39898856,3.21086316 2.25667728,3.47924522 2.26320158,3.76507627 C2.27013365,4.05090732 2.42508575,4.31181124 2.6705625,4.45057225 L4.159326,5.29103186 C4.159326,5.29103186 0.613777219,7.90588742 0.323038141,8.12233797 C0.0327068317,8.33920397 -0.0855460892,8.64580763 0.0665516331,8.9453486 C0.155445208,9.12066939 0.316513842,9.23325691 0.493893223,9.26566217 C0.619078212,9.28851204 0.699816413,9.26649308 0.873933645,9.20666797" id="Fill-11" fill="#FFFFFF" mask="url(#mask-2)"></path>
                        </g>
                        <g id="Group-16" transform="translate(29.240000, 10.960784)">
                            <mask id="mask-4" fill="white">
                                <use xlink:href="#path-3"></use>
                            </mask>
                            <g id="Clip-15"></g>
                            <path d="M13.1343972,1.14108572 C12.8441933,1.09557744 5.49264573,0 5.49264573,0 C5.19902767,-0.00125630095 4.92632136,0.150859328 4.77652493,0.400312104 C4.62672851,0.649764879 4.62160726,0.959052612 4.76372182,1.21271912 L5.62537134,2.75199444 C5.62537134,2.75199444 1.05423316,3.05327609 0.678675177,3.08024395 C0.30269042,3.10679045 0.0304108802,3.3052571 0.00224403119,3.6461478 C-0.0148267864,3.84587857 0.0666863675,4.03128266 0.206240301,4.15600905 C0.304824273,4.24449737 0.388471279,4.26977974 0.575396731,4.3140239 C0.762322183,4.35826806 7.6427152,5.05606163 7.6427152,5.05606163 C7.94657576,5.08092264 8.23677965,4.93639172 8.40578075,4.68525345 C8.53594573,4.49226465 8.52186231,4.16654337 8.43522791,3.84587857 L8.12283195,2.740196 C8.12283195,2.740196 12.7831651,2.44397083 13.1279957,2.38245038 C13.4728262,2.3213513 13.7579088,2.10771523 13.7600491,1.76513903 C13.7617498,1.42214146 13.4246011,1.186594 13.1343972,1.14108572" id="Fill-14" fill="#FFFFFF" mask="url(#mask-4)"></path>
                        </g>
                    </g>
                </g>
                <g id="Group-14" transform="translate(154.000000, 0.000000)">
                    <circle id="Oval-Copy-2" fill="#E97406" cx="33.5" cy="33.5" r="33.5"></circle>
                    <path d="M43.5975349,27.0978905 C43.5975349,30.5854468 40.9428109,31.9866082 40.9428109,31.9866082 C40.9428109,31.9866082 42.5054537,20.0730031 30.2136789,13 C30.6003291,27.4181086 19,28.8657265 19,41.0742475 C19,47.422612 23.0129356,52.8260844 28.619775,54.8469424 C28.7242529,54.8842735 28.829142,54.9211899 28.9348538,54.956447 C26.5660043,53.4412183 24.9934896,50.7732875 24.9934896,47.734949 C24.9934896,45.3258474 25.6845241,42.4973927 27.5667702,39.5660702 C27.1040239,44.3884214 30.440733,45.4648021 30.440733,45.4648021 C30.440733,45.4648021 28.625945,36.5356127 35.2940159,31.3262621 C35.3536587,39.5610927 41.9431655,40.5993126 41.9431655,47.734949 C41.9431655,50.8023228 40.3406238,53.4926523 37.9335206,55 C38.0857127,54.95064 38.2370821,54.8983764 38.3872176,54.8440389 C43.9907664,52.8215217 48,47.4201233 48,41.0742475 C48,36.9528917 46.6549509,32.1131192 43.5975349,27.0978905" id="Fill-1" fill="#FFFFFF"></path>
                </g>
            </g>
        </g>
    </g>
</svg>