<?xml version="1.0" encoding="UTF-8"?>
<svg width="265px" height="170px" viewBox="0 0 265 170" version="1.1" xmlns="http://www.w3.org/2000/svg" xmlns:xlink="http://www.w3.org/1999/xlink">
    <title>Group 21</title>
    <g id="Page-1" stroke="none" stroke-width="1" fill="none" fill-rule="evenodd">
        <g id="Landing-Soolantra" transform="translate(-293.000000, -4304.000000)">
            <g id="Group-21" transform="translate(294.754098, 4306.000000)">
                <g id="Group-33" transform="translate(134.251366, 21.770492)">
                    <path d="M-0.00546448087,132.229508 C-0.00546448087,132.229508 31.0960335,121.539972 34.6644784,118.526454 C37.7738329,115.900331 39.776775,112.143529 40.0436572,108.07255 C40.0454246,108.045037 40.0471921,108.017525 40.0489595,107.990012 L40.9945355,91.2295082" id="Stroke-1" stroke="#E97406" stroke-width="4" stroke-linecap="round" stroke-linejoin="round"></path>
                    <path d="M85.9945355,91.2295082 L86.9401116,107.990012 C86.941879,108.017525 86.9436464,108.044594 86.9454138,108.072106 C87.2122961,112.143529 89.2147963,115.900331 92.3245926,118.52601 C95.8930375,121.539528 126.994536,132.229508 126.994536,132.229508" id="Stroke-3" stroke="#E97406" stroke-width="4" stroke-linecap="round" stroke-linejoin="round"></path>
                    <path d="M30.9945355,69.95279 C30.4551921,70.1333604 29.886579,70.2295082 29.2996236,70.2295082 C25.8173074,70.2295082 22.9945355,66.8371312 22.9945355,62.6525899 C22.9945355,58.990999 25.1558117,55.935843 28.0289274,55.2295082 L29.3960185,55.2295082" id="Stroke-5" stroke="#E97406" stroke-width="4" stroke-linecap="round" stroke-linejoin="round"></path>
                    <path d="M29.2663733,59.3876873 C29.2663733,59.3876873 13.6659778,20.7360958 42.0898628,5.33425022 C68.7395408,-9.10564008 85.8058885,11.6762902 85.8058885,11.6762902 C85.8324472,11.8743139 110.231168,16.8121456 99.0730385,53.6793233 C97.4098555,56.8292207 95.7009567,60.2295082 95.7009567,60.2295082 C95.7009567,60.2295082 94.7274286,56.4617767 94.5985537,53.9143115 C94.1814518,45.6760843 92.0524034,27.0147682 81.3940996,21.989366 C81.3940996,21.989366 82.1024762,33.9257963 59.2994532,34.1216197 C41.2421619,34.2769584 35.1375836,38.7729771 32.5217711,50.4792598 C31.7598417,53.8887884 31.3954218,56.8116186 29.2663733,59.3876873" id="Stroke-7" stroke="#E97406" stroke-width="4" stroke-linecap="round" stroke-linejoin="round"></path>
                    <path d="M98.7766478,55.2295082 C102.278883,55.6749051 104.994536,58.8509208 104.994536,62.7029521 C104.994536,66.8596796 101.832031,70.2295082 97.9310396,70.2295082 C97.25945,70.2295082 96.6097221,70.1298064 95.9945355,69.9434478" id="Stroke-9" stroke="#E97406" stroke-width="4" stroke-linecap="round" stroke-linejoin="round"></path>
                    <path d="M49.9945355,60.7295082 C49.9945355,62.6628082 48.8750604,64.2295082 47.4943342,64.2295082 C46.1136081,64.2295082 44.9945355,62.6628082 44.9945355,60.7295082 C44.9945355,58.7965969 46.1136081,57.2295082 47.4943342,57.2295082 C48.8750604,57.2295082 49.9945355,58.7965969 49.9945355,60.7295082" id="Fill-11" fill="#E97406"></path>
                    <path d="M80.9945355,60.7295082 C80.9945355,62.6628082 79.8751506,64.2295082 78.4945355,64.2295082 C77.1139205,64.2295082 75.9945355,62.6628082 75.9945355,60.7295082 C75.9945355,58.7965969 77.1139205,57.2295082 78.4945355,57.2295082 C79.8751506,57.2295082 80.9945355,58.7965969 80.9945355,60.7295082" id="Fill-13" fill="#E97406"></path>
                    <path d="M53.9945355,81.2295082 C55.6226923,83.2597215 59.2625154,84.2295082 63.4943156,84.2295082 C67.7265556,84.2295082 71.3663788,83.2597215 72.9945355,81.2295082" id="Stroke-15" stroke="#E97406" stroke-width="4" stroke-linecap="round" stroke-linejoin="round"></path>
                    <path d="M59.9945355,72.2295082 C60.5087503,73.4085503 61.658074,74.2295082 62.9945355,74.2295082 C64.330997,74.2295082 65.4803208,73.4085503 65.9945355,72.2295082" id="Stroke-17" stroke="#E97406" stroke-width="4" stroke-linecap="round" stroke-linejoin="round"></path>
                    <path d="M59.9945355,88.2295082 C60.6802386,89.4085503 62.2126871,90.2295082 63.9943396,90.2295082 C65.776384,90.2295082 67.3088324,89.4085503 67.9945355,88.2295082" id="Stroke-19" stroke="#E97406" stroke-width="4" stroke-linecap="round" stroke-linejoin="round"></path>
                    <path d="M96.9945355,61.0425681 C96.8769928,64.1397352 96.6995945,68.1283553 96.4527982,71.9563339 C95.9609406,79.5865885 92.6337453,86.7674755 87.1248537,92.1388971 L75.5007064,103.474614 C73.6902888,105.239957 71.2487842,106.229508 68.7044839,106.229508 L59.6875287,106.229508 C57.1432284,106.229508 54.7017237,105.239957 52.8913062,103.474614 L41.0771821,91.9538382 C35.6906043,86.701077 32.3937706,79.7142449 31.7852378,72.2621952 C31.4373808,67.998557 31.1688977,63.4997397 30.9945355,60.2295082" id="Stroke-21" stroke="#E97406" stroke-width="4" stroke-linecap="round" stroke-linejoin="round"></path>
                    <path d="M73.9945355,52.2295082 C73.9945355,52.2295082 78.2816404,49.9795082 84.9945355,52.2295082" id="Stroke-23" stroke="#E97406" stroke-width="4" stroke-linecap="round" stroke-linejoin="round"></path>
                    <path d="M52.9945355,52.2295082 C52.9945355,52.2295082 48.7074306,49.9795082 41.9945355,52.2295082" id="Stroke-25" stroke="#E97406" stroke-width="4" stroke-linecap="round" stroke-linejoin="round"></path>
                    <path d="M117.494944,46.2295082 C116.53582,48.9796161 115.257397,50.5086054 113.088039,51.6817948 C113.057007,51.6986348 113.025567,51.715043 112.994536,51.7318831 C115.235349,52.9288212 116.53827,54.5156711 117.492086,57.2295082 C117.78117,56.4000283 118.093528,55.704837 118.451209,55.0843463 C119.282123,53.6330803 120.359657,52.597202 121.994536,51.7297241 C119.752498,50.5332177 118.449168,48.9455043 117.494944,46.2295082" id="Fill-27" fill="#E97406"></path>
                    <path d="M13.4949814,74.2295082 C12.3226529,77.4796222 10.7605887,79.286153 8.10913743,80.6731966 C8.07078815,80.6928031 8.03243888,80.7124095 7.99453552,80.732016 C10.7333875,82.1468734 12.3257744,84.0222549 13.4914141,87.2295082 C13.8445842,86.2487288 14.2267392,85.4270811 14.6637426,84.6938904 C15.6791066,82.9790084 16.9963597,81.7542881 18.9945355,80.7297362 C16.2543458,79.3153347 14.6610671,77.4390414 13.4949814,74.2295082" id="Fill-29" fill="#E97406"></path>
                    <path d="M106.994734,76.2295082 C106.35512,77.9795082 105.502962,78.9525754 104.056792,79.6990873 C104.036172,79.7098947 104.015155,79.7203019 103.994536,79.7311093 C105.48829,80.4928316 106.357102,81.5027241 106.992751,83.2295082 C107.185468,82.7015462 107.39365,82.2592429 107.632365,81.8645722 C108.185931,80.941139 108.904852,80.2814867 109.994536,79.7295082 C108.499988,78.9681861 107.630779,77.9578934 106.994734,76.2295082" id="Fill-31" fill="#E97406"></path>
                </g>
                <g id="Group-57">
                    <line x1="0.245901639" y1="154" x2="22.2459016" y2="147" id="Stroke-1" stroke="#E97406" stroke-width="4" stroke-linecap="round" stroke-linejoin="round"></line>
                    <line x1="124.245902" y1="154" x2="102.245902" y2="147" id="Stroke-3" stroke="#E97406" stroke-width="4" stroke-linecap="round" stroke-linejoin="round"></line>
                    <path d="M49.2459016,81 C49.2459016,83.2093311 48.1266872,85 46.7459016,85 C45.3651161,85 44.2459016,83.2093311 44.2459016,81 C44.2459016,78.7906689 45.3651161,77 46.7459016,77 C48.1266872,77 49.2459016,78.7906689 49.2459016,81" id="Fill-5" fill="#E97406"></path>
                    <path d="M81.2459016,81 C81.2459016,83.2093311 80.1266872,85 78.7459016,85 C77.3651161,85 76.2459016,83.2093311 76.2459016,81 C76.2459016,78.7906689 77.3651161,77 78.7459016,77 C80.1266872,77 81.2459016,78.7906689 81.2459016,81" id="Fill-7" fill="#E97406"></path>
                    <path d="M52.2459016,103 C53.8743459,104.353188 57.5136383,105 61.7459016,105 C65.978165,105 69.6179026,104.353188 71.2459016,103" id="Stroke-9" stroke="#E97406" stroke-width="4" stroke-linecap="round" stroke-linejoin="round"></path>
                    <path d="M59.2459016,94 C59.7601155,95.1782694 60.9092389,96 62.2456921,96 C63.5821453,96 64.7316878,95.1782694 65.2459016,94" id="Stroke-11" stroke="#E97406" stroke-width="4" stroke-linecap="round" stroke-linejoin="round"></path>
                    <path d="M58.2459016,110 C59.0169095,111.17892 60.7409688,112 62.7456785,112 C64.7503883,112 66.4744476,111.17892 67.2459016,110" id="Stroke-13" stroke="#E97406" stroke-width="4" stroke-linecap="round" stroke-linejoin="round"></path>
                    <path d="M94.2459016,97 C96.0782235,92.1951072 97.442575,87.114997 98.2459016,82" id="Stroke-15" stroke="#E97406" stroke-width="4" stroke-linecap="round" stroke-linejoin="round"></path>
                    <path d="M49.2459016,123 C53.4351714,126.173959 58.0017884,128 62.780775,128 C67.5338301,128 72.076304,126.19376 76.2459016,123.051676" id="Stroke-17" stroke="#E97406" stroke-width="4" stroke-linecap="round" stroke-linejoin="round"></path>
                    <path d="M26.2459016,81 C27.0848135,86.1018521 28.4442218,91.1689179 30.2459016,96" id="Stroke-19" stroke="#E97406" stroke-width="4" stroke-linecap="round" stroke-linejoin="round"></path>
                    <path d="M28.2459016,91.7232332 C27.6392949,91.9036301 26.9993581,92 26.3389789,92 C22.421588,92 19.2459016,88.6080641 19.2459016,84.4233313 C19.2459016,80.7617495 21.6772171,77.7063962 24.9093423,77" id="Stroke-21" stroke="#E97406" stroke-width="4" stroke-linecap="round" stroke-linejoin="round"></path>
                    <path d="M96.2459016,78.4922052 C95.7759478,77.4766157 95.4937068,76.3510264 95.4341225,75.1805393 C95.0098649,66.8762316 92.8451206,48.0658252 82.0101992,43 C82.0101992,43 82.731034,55.0317278 59.5496334,55.2292784 C41.1932113,55.3859719 34.9870436,59.9179616 32.3281534,71.7180165 C31.7345511,74.3517248 30.6799551,76.821107 29.2459016,79" id="Stroke-23" stroke="#E97406" stroke-width="4" stroke-linecap="round" stroke-linejoin="round"></path>
                    <path d="M99.0278647,77 C102.530323,77.445171 105.245902,80.6212588 105.245902,84.4735915 C105.245902,88.6300931 102.083333,92 98.1821231,92 C97.5107522,92 96.8610669,91.9004967 96.2459016,91.7137513" id="Stroke-25" stroke="#E97406" stroke-width="4" stroke-linecap="round" stroke-linejoin="round"></path>
                    <path d="M101.775583,76 C103.269013,70.9049446 104.127218,65.5326164 104.231516,60.0773319 C104.242305,59.6995196 104.245902,59.3176497 104.245902,58.9362306 C104.245902,40.1439024 95.2340723,26.2198522 82.0247248,19.5008352 C76.2654438,16.562646 69.7059506,15 62.7476999,15 C55.7894491,15 49.2263594,16.562646 43.4670785,19.5008352 C30.2545841,26.2198522 21.2459016,40.1475092 21.2459016,58.9362306 C21.2459016,59.3176497 21.2499477,59.6995196 21.2602875,60.0773319 C21.3645848,65.5326164 22.2227901,70.9049446 23.7198165,76" id="Stroke-27" stroke="#E97406" stroke-width="4" stroke-linecap="round" stroke-linejoin="round"></path>
                    <path d="M81.2459016,19.1143665 C81.2459016,19.4095777 81.2386342,19.7047888 81.2240995,20 C75.4056445,17.0982034 68.7777838,15.5544671 61.7474914,15.5544671 C54.7171989,15.5544671 48.0861588,17.0982034 42.2672496,20 C42.2527148,19.7047888 42.2459016,19.4095777 42.2459016,19.1143665 C42.2459016,8.55622593 50.9772178,0 61.7438577,0 C72.5141313,0 81.2459016,8.55622593 81.2459016,19.1143665 Z" id="Stroke-29" stroke="#E97406" stroke-width="4" stroke-linecap="round" stroke-linejoin="round"></path>
                    <path d="M73.2459016,74 C73.2459016,74 77.5330066,71.75 84.2459016,74" id="Stroke-31" stroke="#E97406" stroke-width="4" stroke-linecap="round" stroke-linejoin="round"></path>
                    <path d="M52.2459016,74 C52.2459016,74 47.9587967,71.75 41.2459016,74" id="Stroke-33" stroke="#E97406" stroke-width="4" stroke-linecap="round" stroke-linejoin="round"></path>
                    <path d="M42.9463825,166 L42.9463825,151.791348 C42.9463825,151.207344 43.0685891,150.635573 43.2912765,150.118623 C43.7248833,149.114625 44.4363967,147.013751 44.6468634,143.697297 C44.9560006,138.824102 46.0382072,128.703479 45.72907,126.079765 C45.4199328,123.456051 46.1925494,121.76928 47.1204137,118.020599 C48.0478253,114.272371 49.2459016,107.337719 49.2459016,105.510498 C49.2459016,103.683276 48.2021676,102.277408 47.0430162,103.401922 C45.8834122,104.526435 45.4199328,107.619074 44.7242609,110.149004 C44.0285891,112.679386 42.6372453,115.209315 41.2459016,119.988725" id="Stroke-35" stroke="#E97406" stroke-width="4" stroke-linecap="round" stroke-linejoin="round"></path>
                    <path d="M24.8655433,166 C24.8655433,166 26.2937694,155.354961 26.4127108,152.565818 C26.5316523,149.776676 26.174828,142.664251 24.8655433,137.643794 C23.5562585,132.623338 21.9695986,125.743304 22.2869306,122.303287 C22.6042626,118.86327 24.4292699,116.26022 25.7780469,113.006295 C27.1268239,109.752371 33.0776114,97.4801445 34.0296073,95.2488306 C34.9816033,93.0175168 36.0130483,92.5522851 36.7271614,93.3892526 C37.4412745,94.2257705 37.6001728,97.3870982 36.0130483,100.547976 C34.4263885,103.708855 33.0776114,106.591043 32.3634984,108.171932 C31.6493853,109.752371 30.7763739,114.121952 28.7929329,116.26022" id="Stroke-37" stroke="#E97406" stroke-width="4" stroke-linecap="round" stroke-linejoin="round"></path>
                    <path d="M36.4856074,98.9031815 C36.4856074,98.9031815 38.7721666,93.0538379 39.7595538,91.6732806 C40.746941,90.2922783 42.4392508,91.0866996 42.2278153,93.5892377 C42.0159669,96.0917759 41.2404281,101.522769 39.7595538,105.665331 C38.2786794,109.807448 35.2459016,118 35.2459016,118" id="Stroke-39" stroke="#E97406" stroke-width="4" stroke-linecap="round" stroke-linejoin="round"></path>
                    <path d="M42.2459016,97.2004954 C42.2459016,97.2004954 44.2368092,94.401913 45.8471102,95.1168924 C46.8247144,95.5511629 47.6216267,96.113476 47.0592296,99.5392882 C46.4962833,102.965548 44.6207111,111 44.6207111,111" id="Stroke-41" stroke="#E97406" stroke-width="4" stroke-linecap="round" stroke-linejoin="round"></path>
                    <path d="M81.5454207,166 L81.5454207,151.791348 C81.5454207,151.207344 81.4232142,150.635573 81.2000742,150.118623 C80.76692,149.114625 80.0554066,147.013751 79.8449398,143.697297 C79.5358026,138.824102 78.4535961,128.703479 78.7627333,126.079765 C79.0718705,123.456051 78.2988012,121.76928 77.3713896,118.020599 C76.443978,114.272371 75.2459016,107.337719 75.2459016,105.510498 C75.2459016,103.683276 76.2896357,102.277408 77.4487871,103.401922 C78.608391,104.526435 79.0718705,107.619074 79.7675424,110.149004 C80.4632142,112.679386 81.8545579,115.209315 83.2459016,119.988725" id="Stroke-43" stroke="#E97406" stroke-width="4" stroke-linecap="round" stroke-linejoin="round"></path>
                    <path d="M99.62626,166 C99.62626,166 98.1980338,155.354961 98.0790924,152.565818 C97.960151,149.776676 98.3169753,142.664251 99.62626,137.643794 C100.935545,132.623338 102.522205,125.743304 102.204873,122.303287 C101.887541,118.86327 100.062533,116.26022 98.7137564,113.006295 C97.3649794,109.752371 91.4141918,97.4801445 90.4621959,95.2488306 C89.5102,93.0175168 88.478755,92.5522851 87.7646419,93.3892526 C87.0505288,94.2257705 86.8916305,97.3870982 88.478755,100.547976 C90.0654148,103.708855 91.4141918,106.591043 92.1283049,108.171932 C92.842418,109.752371 93.7154294,114.121952 95.6988704,116.26022" id="Stroke-45" stroke="#E97406" stroke-width="4" stroke-linecap="round" stroke-linejoin="round"></path>
                    <path d="M88.0061952,98.9031815 C88.0061952,98.9031815 85.7196348,93.0538379 84.732247,91.6732806 C83.7452722,90.2922783 82.0525485,91.0866996 82.2639841,93.5892377 C82.4758326,96.0917759 83.2513718,101.522769 84.732247,105.665331 C86.2135351,109.807448 89.2459016,118 89.2459016,118" id="Stroke-47" stroke="#E97406" stroke-width="4" stroke-linecap="round" stroke-linejoin="round"></path>
                    <path d="M82.2459016,97.2004954 C82.2459016,97.2004954 80.2549941,94.401913 78.6446931,95.1168924 C77.6670888,95.5511629 76.8701766,96.113476 77.4325737,99.5392882 C77.9955199,102.965548 79.8710922,111 79.8710922,111" id="Stroke-49" stroke="#E97406" stroke-width="4" stroke-linecap="round" stroke-linejoin="round"></path>
                    <path d="M118.246355,66 C117.180663,69.0001178 115.760193,70.668106 113.349794,71.947949 C113.315315,71.9663199 113.280381,71.9842198 113.245902,72.0025908 C115.735694,73.3083415 117.183385,75.0394504 118.24318,78 C118.564385,77.0951129 118.911449,76.3362512 119.308872,75.6598234 C120.23211,74.0766241 121.42937,72.946104 123.245902,72.0002355 C120.754748,70.6949558 119.306604,68.9629048 118.246355,66" id="Fill-51" fill="#E97406"></path>
                    <path d="M10.7463476,96 C9.57401904,99.250114 8.0115089,101.056645 5.36050355,102.443688 C5.32215427,102.463295 5.283805,102.482901 5.24590164,102.502508 C7.98475359,103.917365 9.57714049,105.792747 10.7427802,109 C11.0959503,108.019221 11.4781053,107.197573 11.9151087,106.464382 C12.9304727,104.7495 14.2477259,103.525236 16.2459016,102.500228 C13.5057119,101.085827 11.9124332,99.2095332 10.7463476,96" id="Fill-53" fill="#E97406"></path>
                    <path d="M106.746133,96 C105.999917,98 105.005732,99.1120769 103.318534,99.9652333 C103.294477,99.9775846 103.269958,99.9894785 103.245902,100.00183 C104.988615,100.87237 106.001767,102.026532 106.74382,104 C106.968656,103.396615 107.211535,102.891125 107.490036,102.440073 C108.135863,101.384721 108.974142,100.630833 110.245902,100.000457 C108.502263,99.1299177 107.488186,97.9752973 106.746133,96" id="Fill-55" fill="#E97406"></path>
                </g>
            </g>
        </g>
    </g>
</svg>