<?xml version="1.0" encoding="UTF-8"?>
<svg width="167px" height="205px" viewBox="0 0 167 205" version="1.1" xmlns="http://www.w3.org/2000/svg" xmlns:xlink="http://www.w3.org/1999/xlink">
    <title>Group 58</title>
    <defs>
        <polygon id="path-1" points="0 0 11 0 11 14 0 14"></polygon>
    </defs>
    <g id="Page-1" stroke="none" stroke-width="1" fill="none" fill-rule="evenodd">
        <g id="Landing-Soolantra" transform="translate(-192.000000, -708.000000)">
            <g id="Group-58" transform="translate(194.000000, 710.000000)">
                <path d="M0,201 L35.1036121,189.834118 C43.5500583,187.147647 49.7972125,179.727059 50.6955723,170.831765 C50.721789,170.572353 52,151 52,151" id="Stroke-1" stroke="#E97406" stroke-width="3.40684411" stroke-linecap="round" stroke-linejoin="round"></path>
                <path d="M109,151 C109,151 110.278211,170.572353 110.304428,170.831765 C111.202787,179.727059 117.449942,187.147059 125.895805,189.834118 L161,201" id="Stroke-3" stroke="#E97406" stroke-width="3.40684411" stroke-linecap="round" stroke-linejoin="round"></path>
                <path d="M63,106 C63,108.761664 61.4330997,111 59.5,111 C57.5669003,111 56,108.761664 56,106 C56,103.238336 57.5669003,101 59.5,101 C61.4330997,101 63,103.238336 63,106" id="Fill-5" fill="#E97406"></path>
                <path d="M106,106 C106,108.761664 104.4331,111 102.5,111 C100.5669,111 99,108.761664 99,106 C99,103.238336 100.5669,101 102.5,101 C104.4331,101 106,103.238336 106,106" id="Fill-7" fill="#E97406"></path>
                <path d="M81,134 C75.6539831,134 71.0564199,134.969618 69,137" id="Stroke-9" stroke="#E97406" stroke-width="3.40684411" stroke-linecap="round" stroke-linejoin="round"></path>
                <path d="M81,134 C86.3460169,134 90.9435801,133.030382 93,131" id="Stroke-11" stroke="#E97406" stroke-width="3.40684411" stroke-linecap="round" stroke-linejoin="round"></path>
                <path d="M77,123 C77.6856185,124.17892 79.2177831,125 80.9997206,125 C82.7816582,125 84.3143815,124.17892 85,123" id="Stroke-13" stroke="#E97406" stroke-width="3.40684411" stroke-linecap="round" stroke-linejoin="round"></path>
                <path d="M75,143 C75.9428883,144.17892 78.0500719,145 80.4997273,145 C82.9499281,145 85.0571117,144.17892 86,143" id="Stroke-15" stroke="#E97406" stroke-width="3.40684411" stroke-linecap="round" stroke-linejoin="round"></path>
                <path d="M34,106.336385 C36.5400031,122.765628 43.1757101,138.899879 52.2987836,150.395277 C60.3053788,160.486835 70.2302815,167 80.9757287,167 C91.7211759,167 101.64257,160.486835 109.649165,150.395277 C118.835987,138.825256 125.500936,122.548756 128,106" id="Stroke-17" stroke="#E97406" stroke-width="3.40684411" stroke-linecap="round" stroke-linejoin="round"></path>
                <path d="M36,118.649429 C35.2585917,118.877931 34.4769899,119 33.6693166,119 C28.8813944,119 25,114.703548 25,109.402886 C25,104.764883 27.9716077,100.894768 31.921983,100" id="Stroke-19" stroke="#E97406" stroke-width="3.40684411" stroke-linecap="round" stroke-linejoin="round"></path>
                <path d="M125,101.337046 C124.389761,100.011137 124.023269,98.5416178 123.945899,97.0134818 C123.394997,86.1717468 120.584642,61.6137163 106.514834,55 C106.514834,55 107.450844,70.7080891 77.3496219,70.9660023 C53.5136707,71.1705744 45.4549156,77.0873388 42.0023269,92.492966 C41.23153,95.9314185 39.8621291,99.1553341 38,102" id="Stroke-21" stroke="#E97406" stroke-width="3.40684411" stroke-linecap="round" stroke-linejoin="round"></path>
                <path d="M129.400177,100 C133.68096,100.563883 137,104.586928 137,109.466549 C137,114.731451 133.134638,119 128.366493,119 C127.545928,119 126.751869,118.873963 126,118.637418" id="Stroke-23" stroke="#E97406" stroke-width="3.40684411" stroke-linecap="round" stroke-linejoin="round"></path>
                <path d="M131.785592,100 C133.728861,93.4014856 134.845568,86.4438803 134.981281,79.3788396 C134.99532,78.8895418 135,78.3949889 135,77.90102 C135,53.5634146 123.273701,35.5306282 106.085541,26.8289505 C98.5920812,23.0237546 90.0562058,21 81.0020474,21 C71.947889,21 63.4079188,23.0237546 55.9138741,26.8289505 C38.7216195,35.5306282 27,53.5680857 27,77.90102 C27,78.3949889 27.0046798,78.8895418 27.0181341,79.3788396 C27.153847,86.4438803 28.2705538,93.4014856 30.2185024,100" id="Stroke-25" stroke="#E97406" stroke-width="3.40684411" stroke-linecap="round" stroke-linejoin="round"></path>
                <path d="M106,24.8486764 C106,25.232451 105.990683,25.6162255 105.972048,26 C98.5124908,22.2276644 90.0152336,20.2208073 81.0020381,20.2208073 C71.9888427,20.2208073 63.4875092,22.2276644 56.0273692,26 C56.0087348,25.6162255 56,25.232451 56,24.8486764 C56,11.1230937 67.1939951,0 80.9973795,0 C94.8054226,0 106,11.1230937 106,24.8486764 Z" id="Stroke-27" stroke="#E97406" stroke-width="3.40684411" stroke-linecap="round" stroke-linejoin="round"></path>
                <path d="M94,95 C94,95 99.8460522,92.75 109,95" id="Stroke-29" stroke="#E97406" stroke-width="3.40684411" stroke-linecap="round" stroke-linejoin="round"></path>
                <path d="M67,95 C67,95 61.1539478,92.75 52,95" id="Stroke-31" stroke="#E97406" stroke-width="3.40684411" stroke-linecap="round" stroke-linejoin="round"></path>
                <path d="M58,122 C58,122.552185 57.5521851,123 57,123 C56.4478149,123 56,122.552185 56,122 C56,121.447815 56.4478149,121 57,121 C57.5521851,121 58,121.447815 58,122" id="Fill-33" fill="#E97406"></path>
                <path d="M76,112 C76,112.552185 75.5521851,113 75,113 C74.4478149,113 74,112.552185 74,112 C74,111.447815 74.4478149,111 75,111 C75.5521851,111 76,111.447815 76,112" id="Fill-35" fill="#E97406"></path>
                <path d="M68,81 C68,81.5521851 67.5521851,82 67,82 C66.4478149,82 66,81.5521851 66,81 C66,80.4478149 66.4478149,80 67,80 C67.5521851,80 68,80.4478149 68,81" id="Fill-37" fill="#E97406"></path>
                <path d="M77,85 C77,85.5521851 76.5521851,86 76,86 C75.4478149,86 75,85.5521851 75,85 C75,84.4478149 75.4478149,84 76,84 C76.5521851,84 77,84.4478149 77,85" id="Fill-39" fill="#E97406"></path>
                <path d="M52,131 C52,131.552185 51.5521851,132 51,132 C50.4478149,132 50,131.552185 50,131 C50,130.447815 50.4478149,130 51,130 C51.5521851,130 52,130.447815 52,131" id="Fill-41" fill="#E97406"></path>
                <path d="M45,114 C45,114.552185 44.5521851,115 44,115 C43.4478149,115 43,114.552185 43,114 C43,113.447815 43.4478149,113 44,113 C44.5521851,113 45,113.447815 45,114" id="Fill-43" fill="#E97406"></path>
                <path d="M68,151 C68,151.552185 67.5521851,152 67,152 C66.4478149,152 66,151.552185 66,151 C66,150.447815 66.4478149,150 67,150 C67.5521851,150 68,150.447815 68,151" id="Fill-45" fill="#E97406"></path>
                <path d="M67,129 C67,129.552185 66.5521851,130 66,130 C65.4478149,130 65,129.552185 65,129 C65,128.447815 65.4478149,128 66,128 C66.5521851,128 67,128.447815 67,129" id="Fill-47" fill="#E97406"></path>
                <path d="M55,85 C55,85.5521851 54.5521851,86 54,86 C53.4478149,86 53,85.5521851 53,85 C53,84.4478149 53.4478149,84 54,84 C54.5521851,84 55,84.4478149 55,85" id="Fill-49" fill="#E97406"></path>
                <line x1="80.5" y1="68" x2="80.5" y2="168" id="Stroke-51" stroke="#E97406" stroke-width="3.40684411" stroke-linecap="round" stroke-linejoin="round" stroke-dasharray="2.555133079847908,8.517110266159696"></line>
                <path d="M138.500882,128 C136.688968,133.000299 134.274259,135.779707 130.177016,137.9132 C130.118207,137.943729 130.058809,137.973661 130,138.00419 C134.233092,140.180784 136.693673,143.066148 138.495001,148 C139.041339,146.49147 139.631785,145.227177 140.307503,144.099371 C141.876535,141.461239 143.912513,139.577372 147,138.000599 C142.765143,135.824603 140.302799,132.938043 138.500882,128" id="Fill-53" fill="#E97406"></path>
                <g id="Group-57" transform="translate(154.000000, 101.000000)">
                    <mask id="mask-2" fill="white">
                        <use xlink:href="#path-1"></use>
                    </mask>
                    <g id="Clip-56"></g>
                    <path d="M5.50061329,0 C4.32812294,3.50015349 2.76591755,5.44577468 0.114294113,6.9395255 C0.0763819197,6.96039995 0.0379121937,6.98188835 0,7.00276279 C2.739156,8.52659738 4.33146813,10.546507 5.49726809,14 C5.85018601,12.9446126 6.23209561,12.0592904 6.6692009,11.2697452 C7.68502468,9.42297066 9.00191588,8.10419682 11.0001115,7.00030698 C8.25984044,5.47708635 6.66697078,3.45656273 5.50061329,0" id="Fill-55" fill="#E97406" mask="url(#mask-2)"></path>
                </g>
            </g>
        </g>
    </g>
</svg>