<?xml version="1.0" encoding="utf-8"?>
<!-- Generator: Adobe Illustrator 26.5.0, SVG Export Plug-In . SVG Version: 6.00 Build 0)  -->
<svg version="1.1" id="Capa_1" xmlns="http://www.w3.org/2000/svg" xmlns:xlink="http://www.w3.org/1999/xlink" x="0px" y="0px"
	 viewBox="0 0 110.2 242" style="enable-background:new 0 0 110.2 242;" xml:space="preserve">
<style type="text/css">
	.st0{fill-rule:evenodd;clip-rule:evenodd;fill:#DB7C35;}
	.st1{fill-rule:evenodd;clip-rule:evenodd;fill:#6D6A6E;}
	.st2{fill-rule:evenodd;clip-rule:evenodd;fill:#DB7C34;}
	.st3{fill-rule:evenodd;clip-rule:evenodd;fill:#8DC097;}
	.st4{filter:url(#Adobe_OpacityMaskFilter);}
	.st5{fill-rule:evenodd;clip-rule:evenodd;fill:#FFFFFF;}
	.st6{mask:url(#mask-2_00000133502253849870580790000002108764511858045848_);fill-rule:evenodd;clip-rule:evenodd;fill:#8DC097;}
	.st7{filter:url(#Adobe_OpacityMaskFilter_00000053510944307315635670000012827875051141503389_);}
	.st8{mask:url(#mask-4_00000116209240112809372100000014160699915115503238_);fill-rule:evenodd;clip-rule:evenodd;fill:#8DC097;}
</style>
<g id="Page-1">
	<g id="Landing-Soolantra" transform="translate(-163.000000, -1087.000000)">
		
			<g id="Group-53" transform="translate(261.553159, 1208.100599) rotate(18.000000) translate(-261.553159, -1208.100599) translate(192.636643, 1104.034328)">
			<path id="Fill-1" class="st0" d="M29.9,32.8c0.6,0.1,1,0.3,1.4,0.6c2.9,2.4,5.9,4.8,9.1,6.9c1.9,1.2,3,3,4,5
				c3.1,6.4,6.2,12.7,9.6,19.6c-2.4-1.9-4.2-3.7-6-5.5c-3.8-3.6-7.7-7.2-11.6-10.7c-1.7-1.6-1.9-3.8-2.8-5.8
				C32.1,39.6,31.1,36.2,29.9,32.8"/>
			<path id="Fill-3" class="st0" d="M88.1,184.5c-1.7-4.8-3.3-9.6-5-14.4c-0.5-1.4-0.1-2.7,0-4.1c0.4-6.7,0.8-13.4,1.3-20.1
				c0-0.4,0.2-0.8,0.4-1.4c1.3,5.1,2.6,9.9,3.9,14.7c0.5,1.8,0.8,3.7,1.5,5.4c1.5,4,0.2,7.8-0.3,11.7c-0.4,2.7-0.9,5.4-1.3,8.1
				C88.4,184.5,88.3,184.5,88.1,184.5"/>
			<path id="Fill-5" class="st0" d="M35.8,105.5c-0.3,0.6-0.9,0.7-1.4,0.8c-6.1,1.4-12.1,3-18,4.7c-3.2,0.9-6.3,1-9.5,0.2
				c-3-0.7-6.2-0.9-9.2-1.4c-0.4-0.1-0.9-0.2-1.8-0.5C1.2,107.4,6,105.5,11,104c2.1-0.6,4.5,0.1,6.7,0.3
				C23.7,104.6,29.8,105,35.8,105.5"/>
			<path id="Fill-7" class="st1" d="M44.5,72.1c-2.2-1.1-4.4-2.2-6.5-3.4c-4.1-2.2-8-4.6-12.2-6.6c-2.1-1-3.1-2.6-4.3-4.2
				c-2.1-2.9-4.1-5.8-6.1-8.8c-0.2-0.3-0.3-0.5-0.6-1c2.4,0.2,4.2,1.5,6.2,2.2c2.1,0.7,4.1,1.8,6.3,2.5c1.7,0.6,3,1.6,4.1,3
				c3.9,4.6,7.7,9.3,11.9,13.6c0.6,0.7,1,1.5,1.5,2.3C44.7,71.8,44.6,72,44.5,72.1"/>
			<path id="Fill-9" class="st0" d="M11.1,150.8c1-2.1,2.5-3.2,3.5-4.7c1.9-2.9,4.1-5.6,6.4-8.2c0.9-1,2.5-1.5,3.9-2.1
				c5.3-2.5,10.6-5,15.9-7.5c0.7-0.4,1.4-0.6,2.4-0.5c-2.9,3.7-6.5,6.7-9.6,10.1c-2.1,2.2-4.2,4.5-6.3,6.6c-1.3,1.3-3.1,1.4-4.7,2.1
				C18.9,148,15.2,149.3,11.1,150.8"/>
			<path id="Fill-11" class="st1" d="M-2.5,87.5c2.3-0.4,4.6-0.8,6.9-1c2.4-0.3,4.9-0.3,7.2-0.7c1.5-0.3,2.7,0.2,4,0.6
				c4.4,1.5,8.7,3,13,4.6c2,0.8,4,1.5,6.1,2c0.3,0.1,0.8,0.2,0.7,0.7c-0.1,0.6-0.6,0.3-1,0.3c-4.4,0.1-8.8,0.2-13.2,0.4
				c-2.6,0.1-5.1,0.2-7.7,0.2c-0.7,0-1.4,0.2-2.1-0.2c-4.7-2.2-9.4-4.4-14.1-6.6C-2.5,87.8-2.5,87.7-2.5,87.5"/>
			<path id="Fill-13" class="st1" d="M73.2,144.9c0.2,7,0.1,14,0.6,20.9c0.2,3.6-1.3,6.3-2.7,9.3c-1,2.2-2,4.5-3.1,6.7
				c-0.2,0.4-0.3,1.1-1,1c-0.7-0.1-0.7-0.7-0.7-1.2c-0.5-4.3-1-8.5-1.5-12.8c-0.2-2.1,1-3.8,1.6-5.7c1.9-5.8,4-11.6,6-17.5
				C72.6,145.4,72.8,145.1,73.2,144.9"/>
			<path id="Fill-15" class="st1" d="M51.2,135.7c-1.1,3-3,5.6-4.5,8.5c-1.8,3.6-3.9,7.1-5.9,10.7c-0.8,1.5-2.1,2.7-3.5,3.6
				c-3.4,2.3-6.9,4.7-10.3,7c-0.2,0.1-0.4,0.3-0.9,0c1.3-3,2.6-6.1,4-9.1c1-2.3,1.5-4.8,3.6-6.6c5.3-4.4,10.5-8.8,15.7-13.2
				C50,136.2,50.5,135.7,51.2,135.7L51.2,135.7z"/>
			<path id="Fill-17" class="st1" d="M1.8,130.1c3.3-2.5,6-4.7,8.8-6.8c0.3-0.2,0.7-0.4,1-0.7c2.4-2.8,5.9-2.9,9.2-3.6
				c4.1-0.8,8.2-1.5,12.3-2.2c1.9-0.3,3.8-0.6,5.7-0.7c-6.8,4.2-13.6,8.4-20.3,12.6c-0.8,0.5-1.5,0.3-2.3,0.3
				C11.6,129.5,7,129.7,1.8,130.1"/>
			<path id="Fill-19" class="st2" d="M3.7,66.6c4.6,0.6,9,1.4,13.4,1.6c3.1,0.2,5,2.1,7.3,3.5c4.2,2.6,8.2,5.5,12.3,8.3
				c0.5,0.3,1.2,0.5,0.9,1.2c-0.4,0.8-1,0.2-1.5,0c-6.6-1.3-13-2.9-19.6-4.4c-1.9-0.4-3-1.8-4.3-2.8c-2.8-2.2-5.5-4.5-8.3-6.8
				C3.8,67.1,3.8,66.9,3.7,66.6"/>
			<path id="Fill-21" class="st2" d="M46.7,176.3c0.5-4.1,1.1-8.2,1.4-12.3c0.3-4.5,3.5-7.2,5.5-10.7c1.8-3.1,3.8-6,5.8-9
				c0.5-0.8,0.9-1.9,2.3-2c-0.9,3.9-1.8,7.7-2.7,11.5c-0.7,3.2-1.5,6.4-2.2,9.6c-0.4,1.9-1.6,3-2.6,4.3c-2.2,3-4.8,5.8-7.2,8.6
				C46.9,176.4,46.8,176.3,46.7,176.3"/>
			<path id="Fill-23" class="st3" d="M16.4,161.6c-0.9,1.5-1.4,3.2-2.1,4.9c-0.9,2.2-2.2,4.3-2.9,6.6c-0.2,0.5-0.5,0.8-1.1,0.9
				c-3,0.9-5.9,1.8-8.9,2.8c-1.1,0.4-1.2,0.1-0.9-0.9c0.8-3.1,2.3-6,3.1-9.2c0.3-1.1,1.5-1.6,2.5-2c3-1.2,6-2.3,9.1-3.5
				C15.7,161.1,16.2,160.6,16.4,161.6"/>
			<path id="Fill-25" class="st3" d="M19.7,38.4c-3.6-1-6.6-2.8-9.8-3.8c-3.2-1.1-4.6-3.2-5.2-6.3c-0.4-2-1.3-3.9-2-5.9
				c3.2,0,5.7,2,8.6,2.4c3.3,0.5,4.2,2.9,5.2,5.4C17.5,32.8,18.6,35.4,19.7,38.4"/>
			<path id="Fill-27" class="st3" d="M38.5,23.8c-3.5-2.9-6.7-5.6-9.9-8.2c-0.5-0.4-0.8-1-0.8-1.5c0-3.7-0.5-7.3-0.2-11.3
				c1.8,1.2,3.5,2.3,5,3.4c0.9,0.7,1.6,1.5,2.7,2c1.7,0.8,1.9,2.4,2,3.9C37.8,15.9,38.1,19.7,38.5,23.8"/>
			<path id="Fill-29" class="st3" d="M47.8,208.2c-0.5-3.5-1-7.1-1.7-10.6c-0.1-0.8,0-1.2,0.4-1.8c2.7-3.4,5.4-6.9,8.3-10.6
				c0.3,3.1,0.6,5.8,0.7,8.4c0,0.9,0.1,1.8,0.3,2.5c0.8,3-0.7,4.7-2.6,6.5c-1.2,1.1-2.2,2.6-3.3,3.9
				C49.3,207.2,48.8,208.1,47.8,208.2L47.8,208.2z"/>
			<path id="Fill-31" class="st3" d="M-26.9,68.5c3.9-1.2,7.6-1.3,11.2-1.9c0.8-0.1,1.6,0.3,2.2,0.9c2.9,2.6,6,4.9,9.2,7.1
				c0.2,0.1,0.4,0.4,0.4,0.6c-0.1,0.4-0.5,0.3-0.8,0.3c-3.5,0.3-7,0.3-10.5,0.9c-2.4,0.4-3.7-0.7-5.1-2
				C-22.4,72.6-24.6,70.6-26.9,68.5"/>
			<path id="Fill-33" class="st3" d="M2.3,143c-2.9,3.5-5.3,6.5-7.8,9.5c-0.7,0.8-1.5,1.3-2.6,1.3c-2.6,0-5.3,0.1-7.9,0.1
				c-0.5,0-1.3,0.3-1.6-0.3c-0.3-0.6,0.3-1,0.6-1.5c1.6-2.2,3.1-4.4,4.7-6.6c0.3-0.4,0.5-0.9,1.1-0.9C-6.8,144.1-2.5,143.5,2.3,143"
				/>
			<g id="Group-37" transform="translate(103.926117, 185.132541)">
				<g id="Clip-36">
				</g>
				<defs>
					<filter id="Adobe_OpacityMaskFilter" filterUnits="userSpaceOnUse" x="-27.3" y="2.4" width="2.8" height="23.9">
						<feColorMatrix  type="matrix" values="1 0 0 0 0  0 1 0 0 0  0 0 1 0 0  0 0 0 1 0"/>
					</filter>
				</defs>
				
					<mask maskUnits="userSpaceOnUse" x="-27.3" y="2.4" width="2.8" height="23.9" id="mask-2_00000133502253849870580790000002108764511858045848_">
					<g class="st4">
						<polygon id="path-1_00000180339607706667305170000009757395830322999941_" class="st5" points="-30.7,2.8 -20.7,2.8 
							-20.7,25.8 -30.7,25.8 						"/>
					</g>
				</mask>
				<path id="Fill-35" class="st6" d="M-25.6,2.8c1.2,2.9,2.2,5.4,3.2,8c0,0.1,0,0.1,0,0.2c2.9,3.6,1.6,6.9-0.7,10.2
					c-0.8,1.2-1.2,2.6-1.8,3.9c-0.2,0.4-0.3,0.9-1,0.8c-0.5-0.1-0.6-0.5-0.8-0.8c-1.1-2.4-2.1-4.8-3.4-7.1c-0.9-1.6-1.1-3.3-0.1-5.2
					C-28.4,9.6-27.2,6.4-25.6,2.8"/>
			</g>
			<path id="Fill-38" class="st3" d="M-30.7,98.7c3.9-2.2,7.4-4,10.9-5.5c0.8-0.4,1.5,0.4,2.2,0.7c3.1,1.3,6.1,2.7,9.1,4.1
				c0.3,0.1,0.8,0.3,0.8,0.9c-3.5,1.7-7.3,2.8-10.7,4.8c-1.4,0.8-2.5,0.2-3.8-0.5C-24.8,101.7-27.5,100.4-30.7,98.7"/>
			<g id="Group-42" transform="translate(127.833033, 181.544831)">
				<g id="Clip-41">
				</g>
				<defs>
					
						<filter id="Adobe_OpacityMaskFilter_00000173149982861069892340000011321578142994898853_" filterUnits="userSpaceOnUse" x="-27.4" y="1.6" width="2.8" height="24.4">
						<feColorMatrix  type="matrix" values="1 0 0 0 0  0 1 0 0 0  0 0 1 0 0  0 0 0 1 0"/>
					</filter>
				</defs>
				
					<mask maskUnits="userSpaceOnUse" x="-27.4" y="1.6" width="2.8" height="24.4" id="mask-4_00000116209240112809372100000014160699915115503238_">
					<g style="filter:url(#Adobe_OpacityMaskFilter_00000173149982861069892340000011321578142994898853_);">
						<polygon id="path-3_00000054953684008099551820000014399429063329084301_" class="st5" points="-30.7,2.8 -20.7,2.8 
							-20.7,24.8 -30.7,24.8 						"/>
					</g>
				</mask>
				<path id="Fill-40" class="st8" d="M-20.7,13.6c-0.9,3.8-1.7,7.1-2.5,10.5c-0.2,0.9-0.7,0.9-1.2,0.3c-2-2.5-4-5-5.9-7.6
					c-0.3-0.4-0.5-1.1-0.4-1.7c0.6-3.8,1.2-7.5,1.9-11.3c0.1-0.4-0.1-0.9,0.4-1c0.6-0.2,0.7,0.5,0.9,0.8c2.1,3,4.1,6,6.2,9
					C-21,13-20.6,13.4-20.7,13.6"/>
			</g>
			<path id="Fill-43" class="st3" d="M-3.6,121.2c-2,2-4.1,3.2-6,4.6c-0.5,0.4-1.1,0.7-1.6,1.2c-1.9,1.6-3.7,2.6-6.4,1.5
				c-2.5-1-5.4-1.1-8-2c0.6-1.7,2.3-2.1,3.4-3.3c1.3-1.4,3-2.5,4.4-3.7c0.6-0.5,1.2-0.6,1.8-0.5C-12,119.6-8,120.4-3.6,121.2"/>
			<path id="Fill-45" class="st3" d="M34.1,174.8c-0.6,4.1-1.1,7.9-1.8,11.6c-0.3,1.6-1.9,2.2-3.3,2.9c-2.5,1.4-5,2.8-7.9,4.5
				c0.3-3.9,0.6-7.4,1-10.8c0.2-1.3,1.7-1.5,2.7-2.2C27.6,178.6,30.6,176.7,34.1,174.8"/>
			<path id="Fill-47" class="st3" d="M-13.8,44.1c3.7,0.3,7,0.5,10.2,0.7c1.2,0.1,2,0.9,2.6,1.9c1.9,2.9,3.8,5.7,5.7,8.6
				c0.3,0.4,0.6,1,0.3,1.5c-0.3,0.5-0.8,0-1.2,0c-3.1-0.6-6.3-1.2-9.4-1.5c-1.2-0.1-2.1-0.5-2.7-1.6C-10.1,50.7-11.8,47.6-13.8,44.1
				"/>
			<path id="Fill-49" class="st1" d="M51.1,135c0.1-0.3,0.3-0.6,0.4-0.9c0,0,0.1,0,0.2-0.1C51.8,134.5,51.7,134.8,51.1,135
				C51,135,51.1,135,51.1,135"/>
			<path id="Fill-51" class="st3" d="M46.7,207.4c0,0.1-0.1,0.2-0.1,0.3C46.7,207.6,46.7,207.5,46.7,207.4L46.7,207.4z"/>
		</g>
	</g>
</g>
</svg>
