<?xml version="1.0" encoding="UTF-8"?>
<svg width="208px" height="177px" viewBox="0 0 208 177" version="1.1" xmlns="http://www.w3.org/2000/svg" xmlns:xlink="http://www.w3.org/1999/xlink">
    <title>Group 4</title>
    <defs>
        <polygon id="path-1" points="0 0 71 0 71 72.254843 0 72.254843"></polygon>
        <polygon id="path-3" points="0 0 60 0 60 59.6909091 0 59.6909091"></polygon>
        <polygon id="path-5" points="0 0 60 0 60 59.6909091 0 59.6909091"></polygon>
    </defs>
    <g id="Page-1" stroke="none" stroke-width="1" fill="none" fill-rule="evenodd">
        <g id="Landing-Soolantra" transform="translate(-299.000000, -3996.000000)">
            <g id="Group-4" transform="translate(299.000000, 3996.000000)">
                <g id="Group-18" transform="translate(69.000000, 0.000000)">
                    <path d="M35.5002208,35.5504783 C25.9397989,35.5504783 18.1617986,27.7197728 18.1617986,18.0945676 C18.1617986,8.46936244 25.9397989,0.638656906 35.5002208,0.638656906 C45.0606427,0.638656906 52.8386431,8.46936244 52.8386431,18.0945676 C52.8386431,27.7197728 45.0606427,35.5504783 35.5002208,35.5504783 M35.5002208,4.68028269 C28.1532521,4.68028269 22.1762219,10.6978144 22.1762219,18.0945676 C22.1762219,25.4913208 28.1532521,31.5088525 35.5002208,31.5088525 C42.8471895,31.5088525 48.8242198,25.4913208 48.8242198,18.0945676 C48.8242198,10.6978144 42.8471895,4.68028269 35.5002208,4.68028269" id="Fill-1" fill="#E97406"></path>
                    <path d="M35.5000442,36.1887795 C25.5898507,36.1887795 17.5274402,28.0717366 17.5274402,18.0943898 C17.5274402,8.11704294 25.5898507,0 35.5000442,0 C45.4102376,0 53.4726481,8.11704294 53.4726481,18.0943898 C53.4726481,28.0717366 45.4102376,36.1887795 35.5000442,36.1887795 M35.5000442,1.27695811 C26.2893938,1.27695811 18.7958036,8.82132624 18.7958036,18.0943898 C18.7958036,27.3674533 26.2893938,34.9118214 35.5000442,34.9118214 C44.7106946,34.9118214 52.2042847,27.3674533 52.2042847,18.0943898 C52.2042847,8.82132624 44.7106946,1.27695811 35.5000442,1.27695811 M35.5000442,32.1471537 C27.8033039,32.1471537 21.5418635,25.8432846 21.5418635,18.0943898 C21.5418635,10.3454949 27.8033039,4.04162578 35.5000442,4.04162578 C43.1967844,4.04162578 49.4582248,10.3454949 49.4582248,18.0943898 C49.4582248,25.8432846 43.1967844,32.1471537 35.5000442,32.1471537 M35.5000442,5.31769465 C28.502847,5.31769465 22.8093437,11.0497782 22.8093437,18.0943898 C22.8093437,25.1390013 28.502847,30.8701956 35.5000442,30.8701956 C42.4972414,30.8701956 48.1898614,25.1390013 48.1898614,18.0943898 C48.1898614,11.0497782 42.4972414,5.31769465 35.5000442,5.31769465" id="Fill-3" fill="#E97406"></path>
                    <path d="M68.2202879,108.479637 C67.034951,108.479637 66.0748458,107.512137 66.0748458,106.319657 L66.0748458,60.8249119 C66.0748458,50.34603 55.9924164,41.8217121 43.5984917,41.8217121 L27.4056596,41.8217121 C15.0099684,41.8217121 4.92488919,50.34603 4.92488919,60.8249119 L4.92488919,106.319657 C4.92488919,107.512137 3.96478399,108.479637 2.77944713,108.479637 C1.59499352,108.479637 0.634005068,107.512137 0.634005068,106.319657 L0.634005068,60.8249119 C0.634005068,47.9637383 12.643711,37.5008629 27.4056596,37.5008629 L43.5984917,37.5008629 C58.3577906,37.5008629 70.36573,47.9637383 70.36573,60.8249119 L70.36573,106.319657 C70.36573,107.512137 69.4056248,108.479637 68.2202879,108.479637" id="Fill-5" fill="#E97406"></path>
                    <g id="Group-9" transform="translate(0.000000, 36.863006)">
                        <mask id="mask-2" fill="white">
                            <use xlink:href="#path-1"></use>
                        </mask>
                        <g id="Clip-8"></g>
                        <path d="M68.2204645,72.254843 C66.6880059,72.254843 65.4408408,70.9992268 65.4408408,69.456384 L65.4408408,23.9616388 C65.4408408,13.8357878 55.6419382,5.59691808 43.5986684,5.59691808 L27.4058362,5.59691808 C15.3599166,5.59691808 5.55924756,13.8357878 5.55924756,23.9616388 L5.55924756,69.456384 C5.55924756,70.9992268 4.31296566,72.254843 2.77962378,72.254843 C1.24716517,72.254843 0,70.9992268 0,69.456384 L0,23.9616388 C0,10.7492129 12.2941161,0 27.4058362,0 L43.5986684,0 C58.7077387,0 71.0000883,10.7492129 71.0000883,23.9616388 L71.0000883,69.456384 C71.0000883,70.9992268 69.7529232,72.254843 68.2204645,72.254843 M27.4058362,4.31995997 L43.5986684,4.31995997 C56.3414813,4.31995997 66.7083209,13.1306153 66.7083209,23.9616388 L66.7083209,69.456384 C66.7083209,70.2958327 67.3866657,70.9778849 68.2204645,70.9778849 C69.0542634,70.9778849 69.7326081,70.2958327 69.7326081,69.456384 L69.7326081,23.9616388 C69.7326081,11.4526069 58.0090789,1.27606887 43.5986684,1.27606887 L27.4058362,1.27606887 C12.9936592,1.27606887 1.26836344,11.4526069 1.26836344,23.9616388 L1.26836344,69.456384 C1.26836344,70.2958327 1.94670823,70.9778849 2.77962378,70.9778849 C3.61342259,70.9778849 4.29088412,70.2958327 4.29088412,69.456384 L4.29088412,23.9616388 C4.29088412,13.1306153 14.6603735,4.31995997 27.4058362,4.31995997" id="Fill-7" fill="#E97406" mask="url(#mask-2)"></path>
                    </g>
                    <path d="M25.3995079,176.361432 C18.660223,176.361432 13.1778192,170.841878 13.1778192,164.057816 L13.1778192,69.6465049 C13.1778192,68.453136 14.1388076,67.4865249 15.3241445,67.4865249 C16.5094814,67.4865249 17.4695866,68.453136 17.4695866,69.6465049 L17.4695866,164.057816 C17.4695866,168.459587 21.0273637,172.040583 25.3995079,172.040583 C29.771652,172.040583 33.3294292,168.459587 33.3294292,164.057816 L33.3294292,106.679179 C33.3294292,105.48581 34.2895343,104.51831 35.4748712,104.51831 C36.6602081,104.51831 37.6211965,105.48581 37.6211965,106.679179 L37.6211965,164.057816 C37.6211965,170.841878 32.1387927,176.361432 25.3995079,176.361432" id="Fill-10" fill="#E97406"></path>
                    <path d="M25.3992429,177 C18.3110698,177 12.5442558,171.194109 12.5442558,164.057905 L12.5442558,69.6465938 C12.5442558,68.1028617 13.7914209,66.8472455 15.3238795,66.8472455 C16.8563381,66.8472455 18.1035033,68.1028617 18.1035033,69.6465938 L18.1035033,164.057905 C18.1035033,168.107534 21.375987,171.402193 25.3992429,171.402193 C29.4224988,171.402193 32.6949825,168.107534 32.6949825,164.057905 L32.6949825,106.678379 C32.6949825,105.135536 33.9421476,103.87992 35.4746062,103.87992 C37.0079481,103.87992 38.2551133,105.135536 38.2551133,106.678379 L38.2551133,164.057905 C38.2551133,171.194109 32.4882993,177 25.3992429,177 M15.3238795,68.1242036 C14.4900807,68.1242036 13.8126192,68.807145 13.8126192,69.6465938 L13.8126192,164.057905 C13.8126192,170.489826 19.0106128,175.723042 25.3992429,175.723042 C31.7887562,175.723042 36.9867498,170.489826 36.9867498,164.057905 L36.9867498,106.678379 C36.9867498,105.83982 36.308405,105.156878 35.4746062,105.156878 C34.6416907,105.156878 33.9633459,105.83982 33.9633459,106.678379 L33.9633459,164.057905 C33.9633459,168.811817 30.1220419,172.679151 25.3992429,172.679151 C20.6773272,172.679151 16.8351399,168.811817 16.8351399,164.057905 L16.8351399,69.6465938 C16.8351399,68.807145 16.1576783,68.1242036 15.3238795,68.1242036" id="Fill-12" fill="#E97406"></path>
                    <path d="M45.6005805,176.361432 C38.8621789,176.361432 33.3797751,170.841878 33.3797751,164.057816 L33.3797751,106.679179 C33.3797751,105.48581 34.3398802,104.51831 35.5252171,104.51831 C36.710554,104.51831 37.6706592,105.48581 37.6706592,106.679179 L37.6706592,164.057816 C37.6706592,168.459587 41.2284363,172.040583 45.6005805,172.040583 C49.9727246,172.040583 53.5305018,168.459587 53.5305018,164.057816 L53.5305018,69.6465049 C53.5305018,68.453136 54.4914902,67.4865249 55.6759438,67.4865249 C56.8612807,67.4865249 57.8222691,68.453136 57.8222691,69.6465049 L57.8222691,164.057816 C57.8222691,170.841878 52.3398653,176.361432 45.6005805,176.361432" id="Fill-14" fill="#E97406"></path>
                    <path d="M45.6005805,177 C38.5124073,177 32.7455933,171.194109 32.7455933,164.057905 L32.7455933,106.678379 C32.7455933,105.135536 33.9927585,103.87992 35.5252171,103.87992 C37.0576757,103.87992 38.3048409,105.135536 38.3048409,106.678379 L38.3048409,164.057905 C38.3048409,168.107534 41.5773246,171.402193 45.6005805,171.402193 C49.6238364,171.402193 52.89632,168.107534 52.89632,164.057905 L52.89632,69.6465938 C52.89632,68.1028617 54.1434852,66.8472455 55.6759438,66.8472455 C57.2084024,66.8472455 58.4555676,68.1028617 58.4555676,69.6465938 L58.4555676,164.057905 C58.4555676,171.194109 52.6887536,177 45.6005805,177 M35.5252171,105.156878 C34.6914183,105.156878 34.0130735,105.83982 34.0130735,106.678379 L34.0130735,164.057905 C34.0130735,170.489826 39.2110671,175.723042 45.6005805,175.723042 C51.9900938,175.723042 57.1880874,170.489826 57.1880874,164.057905 L57.1880874,69.6465938 C57.1880874,68.807145 56.5097426,68.1242036 55.6759438,68.1242036 C54.8430283,68.1242036 54.1646835,68.807145 54.1646835,69.6465938 L54.1646835,164.057905 C54.1646835,168.811817 50.3224962,172.679151 45.6005805,172.679151 C40.8786648,172.679151 37.0364775,168.811817 37.0364775,164.057905 L37.0364775,106.678379 C37.0364775,105.83982 36.3590159,105.156878 35.5252171,105.156878" id="Fill-16" fill="#E97406"></path>
                </g>
                <g id="Group-18-Copy" transform="translate(148.000000, 30.000000)">
                    <path d="M30,29.4 C21.8524342,29.4 15.2238806,22.8055935 15.2238806,14.7 C15.2238806,6.59440652 21.8524342,0 30,0 C38.1475658,0 44.7761194,6.59440652 44.7761194,14.7 C44.7761194,22.8055935 38.1475658,29.4 30,29.4 M30,3.4035405 C23.7387794,3.4035405 18.6450453,8.47103413 18.6450453,14.7 C18.6450453,20.9289659 23.7387794,25.9964595 30,25.9964595 C36.2612206,25.9964595 41.3549547,20.9289659 41.3549547,14.7 C41.3549547,8.47103413 36.2612206,3.4035405 30,3.4035405" id="Fill-1" fill="#FA9638"></path>
                    <path d="M29.5522388,30.2909091 C21.1577067,30.2909091 14.3283582,23.4967421 14.3283582,15.1454545 C14.3283582,6.79416695 21.1577067,0 29.5522388,0 C37.946771,0 44.7761194,6.79416695 44.7761194,15.1454545 C44.7761194,23.4967421 37.946771,30.2909091 29.5522388,30.2909091 M29.5522388,1.06884572 C21.7502619,1.06884572 15.4027386,7.3836696 15.4027386,15.1454545 C15.4027386,22.9072395 21.7502619,29.2220634 29.5522388,29.2220634 C37.3542158,29.2220634 43.701739,22.9072395 43.701739,15.1454545 C43.701739,7.3836696 37.3542158,1.06884572 29.5522388,1.06884572 M29.5522388,26.9079677 C23.0326351,26.9079677 17.7288171,21.6314724 17.7288171,15.1454545 C17.7288171,8.65943671 23.0326351,3.38294137 29.5522388,3.38294137 C36.0718425,3.38294137 41.3756605,8.65943671 41.3756605,15.1454545 C41.3756605,21.6314724 36.0718425,26.9079677 29.5522388,26.9079677 M29.5522388,4.45104276 C23.6251903,4.45104276 18.8024493,9.24893936 18.8024493,15.1454545 C18.8024493,21.0419697 23.6251903,25.839122 29.5522388,25.839122 C35.4792873,25.839122 40.3012801,21.0419697 40.3012801,15.1454545 C40.3012801,9.24893936 35.4792873,4.45104276 29.5522388,4.45104276" id="Fill-3" fill="#FA9638"></path>
                    <path d="M57.3135576,89.9818182 C56.3240909,89.9818182 55.5226376,89.1803248 55.5226376,88.1924547 L55.5226376,50.5038493 C55.5226376,41.8229688 47.1062721,34.7612817 36.7603728,34.7612817 L23.2433138,34.7612817 C12.8959398,34.7612817 4.47736239,41.8229688 4.47736239,50.5038493 L4.47736239,88.1924547 C4.47736239,89.1803248 3.6759091,89.9818182 2.68644239,89.9818182 C1.69771299,89.9818182 0.895522388,89.1803248 0.895522388,88.1924547 L0.895522388,50.5038493 C0.895522388,39.8494387 10.9206929,31.1818182 23.2433138,31.1818182 L36.7603728,31.1818182 C49.0807817,31.1818182 59.1044776,39.8494387 59.1044776,50.5038493 L59.1044776,88.1924547 C59.1044776,89.1803248 58.3030243,89.9818182 57.3135576,89.9818182" id="Fill-5" fill="#FA9638"></path>
                    <g id="Group-9" transform="translate(0.000000, 31.181818)">
                        <mask id="mask-4" fill="white">
                            <use xlink:href="#path-3"></use>
                        </mask>
                        <g id="Clip-8"></g>
                        <path d="M57.6510968,59.6909091 C56.3560614,59.6909091 55.302119,58.653624 55.302119,57.3790562 L55.302119,19.7951022 C55.302119,11.4299709 47.0213563,4.62370569 36.8439451,4.62370569 L23.1598616,4.62370569 C12.9802112,4.62370569 4.69795569,11.4299709 4.69795569,19.7951022 L4.69795569,57.3790562 C4.69795569,58.653624 3.64475971,59.6909091 2.34897784,59.6909091 C1.05394239,59.6909091 0,58.653624 0,57.3790562 L0,19.7951022 C0,8.88010078 10.3893939,0 23.1598616,0 L36.8439451,0 C49.6121736,0 60.0000746,8.88010078 60.0000746,19.7951022 L60.0000746,57.3790562 C60.0000746,58.653624 58.9461322,59.6909091 57.6510968,59.6909091 M23.1598616,3.56878968 L36.8439451,3.56878968 C47.6125194,3.56878968 56.373229,10.8474163 56.373229,19.7951022 L56.373229,57.3790562 C56.373229,58.0725386 56.9464781,58.6359931 57.6510968,58.6359931 C58.3557155,58.6359931 58.9289646,58.0725386 58.9289646,57.3790562 L58.9289646,19.7951022 C58.9289646,9.46118613 49.0217568,1.05418139 36.8439451,1.05418139 L23.1598616,1.05418139 C10.9805571,1.05418139 1.07185643,9.46118613 1.07185643,19.7951022 L1.07185643,57.3790562 C1.07185643,58.0725386 1.64510555,58.6359931 2.34897784,58.6359931 C3.05359655,58.6359931 3.62609926,58.0725386 3.62609926,57.3790562 L3.62609926,19.7951022 C3.62609926,10.8474163 12.3890481,3.56878968 23.1598616,3.56878968" id="Fill-7" fill="#FA9638" mask="url(#mask-4)"></path>
                    </g>
                    <path d="M21.0447761,146.109091 C15.365972,146.109091 10.7462687,141.547347 10.7462687,135.940524 L10.7462687,57.9124309 C10.7462687,56.9261475 11.5560378,56.1272727 12.5548524,56.1272727 C13.5536669,56.1272727 14.3626919,56.9261475 14.3626919,57.9124309 L14.3626919,135.940524 C14.3626919,139.578455 17.3606241,142.53804 21.0447761,142.53804 C24.7289282,142.53804 27.7268604,139.578455 27.7268604,135.940524 L27.7268604,88.5188164 C27.7268604,87.5325331 28.5358853,86.7329234 29.5346998,86.7329234 C30.5335144,86.7329234 31.3432836,87.5325331 31.3432836,88.5188164 L31.3432836,135.940524 C31.3432836,141.547347 26.7235802,146.109091 21.0447761,146.109091" id="Fill-10" fill="#FA9638"></path>
                    <path d="M21.4921681,147 C15.566935,147 10.7462687,142.163356 10.7462687,136.218484 L10.7462687,57.5683832 C10.7462687,56.2823648 11.7888144,55.2363636 13.0698461,55.2363636 C14.3508778,55.2363636 15.3934235,56.2823648 15.3934235,57.5683832 L15.3934235,136.218484 C15.3934235,139.59206 18.1289984,142.336702 21.4921681,142.336702 C24.8553379,142.336702 27.5909128,139.59206 27.5909128,136.218484 L27.5909128,88.4180092 C27.5909128,87.1327316 28.6334585,86.0867304 29.9144902,86.0867304 C31.1962603,86.0867304 32.238806,87.1327316 32.238806,88.4180092 L32.238806,136.218484 C32.238806,142.163356 27.4181396,147 21.4921681,147 M13.0698461,56.3001438 C12.3728467,56.3001438 11.8065347,56.8690736 11.8065347,57.5683832 L11.8065347,136.218484 C11.8065347,141.576647 16.1517057,145.93622 21.4921681,145.93622 C26.833369,145.93622 31.1785399,141.576647 31.1785399,136.218484 L31.1785399,88.4180092 C31.1785399,87.7194404 30.6114896,87.1505106 29.9144902,87.1505106 C29.2182292,87.1505106 28.6511788,87.7194404 28.6511788,88.4180092 L28.6511788,136.218484 C28.6511788,140.178769 25.4401085,143.400482 21.4921681,143.400482 C17.5449661,143.400482 14.3331575,140.178769 14.3331575,136.218484 L14.3331575,57.5683832 C14.3331575,56.8690736 13.7668455,56.3001438 13.0698461,56.3001438" id="Fill-12" fill="#FA9638"></path>
                    <path d="M38.0593293,146.109091 C32.3810644,146.109091 27.761194,141.547347 27.761194,135.940524 L27.761194,88.5188164 C27.761194,87.5325331 28.5702482,86.7329234 29.5690988,86.7329234 C30.5679495,86.7329234 31.3770036,87.5325331 31.3770036,88.5188164 L31.3770036,135.940524 C31.3770036,139.578455 34.3750442,142.53804 38.0593293,142.53804 C41.7436145,142.53804 44.7416551,139.578455 44.7416551,135.940524 L44.7416551,57.9124309 C44.7416551,56.9261475 45.5514535,56.1272727 46.5495599,56.1272727 C47.5484105,56.1272727 48.358209,56.9261475 48.358209,57.9124309 L48.358209,135.940524 C48.358209,141.547347 43.7383386,146.109091 38.0593293,146.109091" id="Fill-14" fill="#FA9638"></path>
                    <path d="M38.5074627,147 C32.582026,147 27.761194,142.163356 27.761194,136.218484 L27.761194,88.4180092 C27.761194,87.1327316 28.8037755,86.0867304 30.0848513,86.0867304 C31.365927,86.0867304 32.4085085,87.1327316 32.4085085,88.4180092 L32.4085085,136.218484 C32.4085085,139.59206 35.1441774,142.336702 38.5074627,142.336702 C41.870748,142.336702 44.6064169,139.59206 44.6064169,136.218484 L44.6064169,57.5683832 C44.6064169,56.2823648 45.6489984,55.2363636 46.9300741,55.2363636 C48.2111498,55.2363636 49.2537313,56.2823648 49.2537313,57.5683832 L49.2537313,136.218484 C49.2537313,142.163356 44.4328994,147 38.5074627,147 M30.0848513,87.1505106 C29.3878279,87.1505106 28.8207581,87.7194404 28.8207581,88.4180092 L28.8207581,136.218484 C28.8207581,141.576647 33.1660784,145.93622 38.5074627,145.93622 C43.848847,145.93622 48.1941673,141.576647 48.1941673,136.218484 L48.1941673,57.5683832 C48.1941673,56.8690736 47.6270974,56.3001438 46.9300741,56.3001438 C46.2337891,56.3001438 45.6667193,56.8690736 45.6667193,57.5683832 L45.6667193,136.218484 C45.6667193,140.178769 42.4548003,143.400482 38.5074627,143.400482 C34.560125,143.400482 31.3482061,140.178769 31.3482061,136.218484 L31.3482061,88.4180092 C31.3482061,87.7194404 30.7818746,87.1505106 30.0848513,87.1505106" id="Fill-16" fill="#FA9638"></path>
                </g>
                <g id="Group-18-Copy-2" transform="translate(0.000000, 30.000000)">
                    <path d="M30,29.4 C21.8524342,29.4 15.2238806,22.8055935 15.2238806,14.7 C15.2238806,6.59440652 21.8524342,0 30,0 C38.1475658,0 44.7761194,6.59440652 44.7761194,14.7 C44.7761194,22.8055935 38.1475658,29.4 30,29.4 M30,3.4035405 C23.7387794,3.4035405 18.6450453,8.47103413 18.6450453,14.7 C18.6450453,20.9289659 23.7387794,25.9964595 30,25.9964595 C36.2612206,25.9964595 41.3549547,20.9289659 41.3549547,14.7 C41.3549547,8.47103413 36.2612206,3.4035405 30,3.4035405" id="Fill-1" fill="#FA9638"></path>
                    <path d="M29.5522388,30.2909091 C21.1577067,30.2909091 14.3283582,23.4967421 14.3283582,15.1454545 C14.3283582,6.79416695 21.1577067,0 29.5522388,0 C37.946771,0 44.7761194,6.79416695 44.7761194,15.1454545 C44.7761194,23.4967421 37.946771,30.2909091 29.5522388,30.2909091 M29.5522388,1.06884572 C21.7502619,1.06884572 15.4027386,7.3836696 15.4027386,15.1454545 C15.4027386,22.9072395 21.7502619,29.2220634 29.5522388,29.2220634 C37.3542158,29.2220634 43.701739,22.9072395 43.701739,15.1454545 C43.701739,7.3836696 37.3542158,1.06884572 29.5522388,1.06884572 M29.5522388,26.9079677 C23.0326351,26.9079677 17.7288171,21.6314724 17.7288171,15.1454545 C17.7288171,8.65943671 23.0326351,3.38294137 29.5522388,3.38294137 C36.0718425,3.38294137 41.3756605,8.65943671 41.3756605,15.1454545 C41.3756605,21.6314724 36.0718425,26.9079677 29.5522388,26.9079677 M29.5522388,4.45104276 C23.6251903,4.45104276 18.8024493,9.24893936 18.8024493,15.1454545 C18.8024493,21.0419697 23.6251903,25.839122 29.5522388,25.839122 C35.4792873,25.839122 40.3012801,21.0419697 40.3012801,15.1454545 C40.3012801,9.24893936 35.4792873,4.45104276 29.5522388,4.45104276" id="Fill-3" fill="#FA9638"></path>
                    <path d="M57.3135576,89.9818182 C56.3240909,89.9818182 55.5226376,89.1803248 55.5226376,88.1924547 L55.5226376,50.5038493 C55.5226376,41.8229688 47.1062721,34.7612817 36.7603728,34.7612817 L23.2433138,34.7612817 C12.8959398,34.7612817 4.47736239,41.8229688 4.47736239,50.5038493 L4.47736239,88.1924547 C4.47736239,89.1803248 3.6759091,89.9818182 2.68644239,89.9818182 C1.69771299,89.9818182 0.895522388,89.1803248 0.895522388,88.1924547 L0.895522388,50.5038493 C0.895522388,39.8494387 10.9206929,31.1818182 23.2433138,31.1818182 L36.7603728,31.1818182 C49.0807817,31.1818182 59.1044776,39.8494387 59.1044776,50.5038493 L59.1044776,88.1924547 C59.1044776,89.1803248 58.3030243,89.9818182 57.3135576,89.9818182" id="Fill-5" fill="#FA9638"></path>
                    <g id="Group-9" transform="translate(0.000000, 31.181818)">
                        <mask id="mask-6" fill="white">
                            <use xlink:href="#path-5"></use>
                        </mask>
                        <g id="Clip-8"></g>
                        <path d="M57.6510968,59.6909091 C56.3560614,59.6909091 55.302119,58.653624 55.302119,57.3790562 L55.302119,19.7951022 C55.302119,11.4299709 47.0213563,4.62370569 36.8439451,4.62370569 L23.1598616,4.62370569 C12.9802112,4.62370569 4.69795569,11.4299709 4.69795569,19.7951022 L4.69795569,57.3790562 C4.69795569,58.653624 3.64475971,59.6909091 2.34897784,59.6909091 C1.05394239,59.6909091 0,58.653624 0,57.3790562 L0,19.7951022 C0,8.88010078 10.3893939,0 23.1598616,0 L36.8439451,0 C49.6121736,0 60.0000746,8.88010078 60.0000746,19.7951022 L60.0000746,57.3790562 C60.0000746,58.653624 58.9461322,59.6909091 57.6510968,59.6909091 M23.1598616,3.56878968 L36.8439451,3.56878968 C47.6125194,3.56878968 56.373229,10.8474163 56.373229,19.7951022 L56.373229,57.3790562 C56.373229,58.0725386 56.9464781,58.6359931 57.6510968,58.6359931 C58.3557155,58.6359931 58.9289646,58.0725386 58.9289646,57.3790562 L58.9289646,19.7951022 C58.9289646,9.46118613 49.0217568,1.05418139 36.8439451,1.05418139 L23.1598616,1.05418139 C10.9805571,1.05418139 1.07185643,9.46118613 1.07185643,19.7951022 L1.07185643,57.3790562 C1.07185643,58.0725386 1.64510555,58.6359931 2.34897784,58.6359931 C3.05359655,58.6359931 3.62609926,58.0725386 3.62609926,57.3790562 L3.62609926,19.7951022 C3.62609926,10.8474163 12.3890481,3.56878968 23.1598616,3.56878968" id="Fill-7" fill="#FA9638" mask="url(#mask-6)"></path>
                    </g>
                    <path d="M21.0447761,146.109091 C15.365972,146.109091 10.7462687,141.547347 10.7462687,135.940524 L10.7462687,57.9124309 C10.7462687,56.9261475 11.5560378,56.1272727 12.5548524,56.1272727 C13.5536669,56.1272727 14.3626919,56.9261475 14.3626919,57.9124309 L14.3626919,135.940524 C14.3626919,139.578455 17.3606241,142.53804 21.0447761,142.53804 C24.7289282,142.53804 27.7268604,139.578455 27.7268604,135.940524 L27.7268604,88.5188164 C27.7268604,87.5325331 28.5358853,86.7329234 29.5346998,86.7329234 C30.5335144,86.7329234 31.3432836,87.5325331 31.3432836,88.5188164 L31.3432836,135.940524 C31.3432836,141.547347 26.7235802,146.109091 21.0447761,146.109091" id="Fill-10" fill="#FA9638"></path>
                    <path d="M21.4921681,147 C15.566935,147 10.7462687,142.163356 10.7462687,136.218484 L10.7462687,57.5683832 C10.7462687,56.2823648 11.7888144,55.2363636 13.0698461,55.2363636 C14.3508778,55.2363636 15.3934235,56.2823648 15.3934235,57.5683832 L15.3934235,136.218484 C15.3934235,139.59206 18.1289984,142.336702 21.4921681,142.336702 C24.8553379,142.336702 27.5909128,139.59206 27.5909128,136.218484 L27.5909128,88.4180092 C27.5909128,87.1327316 28.6334585,86.0867304 29.9144902,86.0867304 C31.1962603,86.0867304 32.238806,87.1327316 32.238806,88.4180092 L32.238806,136.218484 C32.238806,142.163356 27.4181396,147 21.4921681,147 M13.0698461,56.3001438 C12.3728467,56.3001438 11.8065347,56.8690736 11.8065347,57.5683832 L11.8065347,136.218484 C11.8065347,141.576647 16.1517057,145.93622 21.4921681,145.93622 C26.833369,145.93622 31.1785399,141.576647 31.1785399,136.218484 L31.1785399,88.4180092 C31.1785399,87.7194404 30.6114896,87.1505106 29.9144902,87.1505106 C29.2182292,87.1505106 28.6511788,87.7194404 28.6511788,88.4180092 L28.6511788,136.218484 C28.6511788,140.178769 25.4401085,143.400482 21.4921681,143.400482 C17.5449661,143.400482 14.3331575,140.178769 14.3331575,136.218484 L14.3331575,57.5683832 C14.3331575,56.8690736 13.7668455,56.3001438 13.0698461,56.3001438" id="Fill-12" fill="#FA9638"></path>
                    <path d="M38.0593293,146.109091 C32.3810644,146.109091 27.761194,141.547347 27.761194,135.940524 L27.761194,88.5188164 C27.761194,87.5325331 28.5702482,86.7329234 29.5690988,86.7329234 C30.5679495,86.7329234 31.3770036,87.5325331 31.3770036,88.5188164 L31.3770036,135.940524 C31.3770036,139.578455 34.3750442,142.53804 38.0593293,142.53804 C41.7436145,142.53804 44.7416551,139.578455 44.7416551,135.940524 L44.7416551,57.9124309 C44.7416551,56.9261475 45.5514535,56.1272727 46.5495599,56.1272727 C47.5484105,56.1272727 48.358209,56.9261475 48.358209,57.9124309 L48.358209,135.940524 C48.358209,141.547347 43.7383386,146.109091 38.0593293,146.109091" id="Fill-14" fill="#FA9638"></path>
                    <path d="M38.5074627,147 C32.582026,147 27.761194,142.163356 27.761194,136.218484 L27.761194,88.4180092 C27.761194,87.1327316 28.8037755,86.0867304 30.0848513,86.0867304 C31.365927,86.0867304 32.4085085,87.1327316 32.4085085,88.4180092 L32.4085085,136.218484 C32.4085085,139.59206 35.1441774,142.336702 38.5074627,142.336702 C41.870748,142.336702 44.6064169,139.59206 44.6064169,136.218484 L44.6064169,57.5683832 C44.6064169,56.2823648 45.6489984,55.2363636 46.9300741,55.2363636 C48.2111498,55.2363636 49.2537313,56.2823648 49.2537313,57.5683832 L49.2537313,136.218484 C49.2537313,142.163356 44.4328994,147 38.5074627,147 M30.0848513,87.1505106 C29.3878279,87.1505106 28.8207581,87.7194404 28.8207581,88.4180092 L28.8207581,136.218484 C28.8207581,141.576647 33.1660784,145.93622 38.5074627,145.93622 C43.848847,145.93622 48.1941673,141.576647 48.1941673,136.218484 L48.1941673,57.5683832 C48.1941673,56.8690736 47.6270974,56.3001438 46.9300741,56.3001438 C46.2337891,56.3001438 45.6667193,56.8690736 45.6667193,57.5683832 L45.6667193,136.218484 C45.6667193,140.178769 42.4548003,143.400482 38.5074627,143.400482 C34.560125,143.400482 31.3482061,140.178769 31.3482061,136.218484 L31.3482061,88.4180092 C31.3482061,87.7194404 30.7818746,87.1505106 30.0848513,87.1505106" id="Fill-16" fill="#FA9638"></path>
                </g>
            </g>
        </g>
    </g>
</svg>