<?xml version="1.0" encoding="UTF-8"?>
<svg width="648px" height="249px" viewBox="0 0 648 249" version="1.1" xmlns="http://www.w3.org/2000/svg" xmlns:xlink="http://www.w3.org/1999/xlink">
    <title>Group</title>
    <g id="Page-1" stroke="none" stroke-width="1" fill="none" fill-rule="evenodd">
        <g id="Landing-Soolantra" transform="translate(-338.000000, -1470.000000)">
            <g id="Group" transform="translate(339.000000, 1470.000000)">
                <path d="M617.655067,98.3701531 L28.3449327,98.3701531 C12.6875548,98.3701531 0,85.6785285 0,70.0268666 L0,52.158273 C0,36.5035149 12.6875548,23.8149866 28.3449327,23.8149866 L617.655067,23.8149866 C633.312445,23.8149866 646,36.5035149 646,52.158273 L646,70.0268666 C646,85.6785285 633.312445,98.3701531 617.655067,98.3701531 Z" id="Stroke-2" stroke="#E97406" stroke-width="1.5593"></path>
                <path d="M617.655067,98.3701531 L409.411322,98.3701531 C393.757041,98.3701531 381.066389,85.6785285 381.066389,70.0268666 L381.066389,52.158273 C381.066389,36.5035149 393.757041,23.8149866 409.411322,23.8149866 L617.655067,23.8149866 C633.312445,23.8149866 646,36.5035149 646,52.158273 L646,70.0268666 C646,85.6785285 633.312445,98.3701531 617.655067,98.3701531" id="Fill-4" fill="#E97406"></path>
                <path d="M316.855037,61.0925698 C316.855037,27.3524789 344.212093,2.27373675e-13 377.95783,2.27373675e-13 C411.703567,2.27373675e-13 439.060623,27.3524789 439.060623,61.0925698 C439.060623,94.8326607 411.703567,122.18514 377.95783,122.18514 C344.212093,122.18514 316.855037,94.8326607 316.855037,61.0925698" id="Fill-6" fill="#E97406"></path>
                <path d="M617.655067,219.465443 L409.411322,219.465443 C393.757041,219.465443 381.066389,206.776915 381.066389,191.122157 L381.066389,173.253563 C381.066389,157.601901 393.757041,144.910277 409.411322,144.910277 L617.655067,144.910277 C633.312445,144.910277 646,157.601901 646,173.253563 L646,191.122157 C646,206.776915 633.312445,219.465443 617.655067,219.465443" id="Fill-9-Copy" fill="#848588"></path>
                <path d="M617.655067,219.465443 L28.3449327,219.465443 C12.6875548,219.465443 0,206.776915 0,191.122157 L0,173.253563 C0,157.601901 12.6875548,144.910277 28.3449327,144.910277 L617.655067,144.910277 C633.312445,144.910277 646,157.601901 646,173.253563 L646,191.122157 C646,206.776915 633.312445,219.465443 617.655067,219.465443 Z" id="Stroke-11-Copy" stroke="#848588" stroke-width="1.5593"></path>
                <path d="M319.960809,187.13137 C319.960809,153.391279 347.317865,126.0388 381.063602,126.0388 C414.812436,126.0388 442.169492,153.391279 442.169492,187.13137 C442.169492,220.871461 414.812436,248.22394 381.063602,248.22394 C347.317865,248.22394 319.960809,220.871461 319.960809,187.13137" id="Fill-13-Copy" fill="#848588"></path>
                <path d="M20.8338761,67.1953125 C22.4093969,67.1953125 23.6626521,66.8453776 24.5936417,66.1455078 C25.5246313,65.445638 25.9901261,64.4804687 25.9901261,63.25 C25.9901261,62.1432292 25.6092667,61.21875 24.847548,60.4765625 C24.0858292,59.734375 22.8716365,59.1126302 21.2049698,58.6113281 C20.3000219,58.3378906 19.6148006,58.0449219 19.1493058,57.7324219 C18.683811,57.4199219 18.4510636,57.0325521 18.4510636,56.5703125 C18.4510636,56.0755208 18.6496313,55.6767578 19.0467667,55.3740234 C19.4439021,55.0712891 20.0005427,54.9199219 20.7166886,54.9199219 C21.4588761,54.9199219 22.035048,55.1005859 22.4452042,55.4619141 C22.8553605,55.8232422 23.0604386,56.3294271 23.0604386,56.9804687 L23.0604386,56.9804687 L25.9901261,56.9804687 C25.9901261,56.1276042 25.7703995,55.3658854 25.3309464,54.6953125 C24.8914933,54.0247396 24.2746313,53.5055339 23.4803605,53.1376953 C22.6860896,52.7698568 21.7811417,52.5859375 20.7655167,52.5859375 C19.7564021,52.5859375 18.8465714,52.7552083 18.0360245,53.09375 C17.2254776,53.4322917 16.6037329,53.9026693 16.1707901,54.5048828 C15.7378474,55.1070964 15.5213761,55.7923177 15.5213761,56.5605469 C15.5213761,58.0384115 16.3286677,59.2135417 17.9432511,60.0859375 C18.535699,60.4049479 19.3397355,60.7288411 20.3553605,61.0576172 C21.3709855,61.3863932 22.0741105,61.6988932 22.4647355,61.9951172 C22.8553605,62.2913411 23.050673,62.7161458 23.050673,63.2695312 C23.050673,63.7773437 22.8553605,64.1728516 22.4647355,64.4560547 C22.0741105,64.7392578 21.5304907,64.8808594 20.8338761,64.8808594 C18.9588761,64.8808594 18.0213761,64.0963542 18.0213761,62.5273437 L18.0213761,62.5273437 L15.081923,62.5273437 C15.081923,63.4453125 15.3179256,64.2526042 15.7899308,64.9492187 C16.261936,65.6458333 16.9471573,66.1943359 17.8455948,66.5947266 C18.7440323,66.9951172 19.7401261,67.1953125 20.8338761,67.1953125 Z M33.6170792,67.1953125 C34.8084855,67.1953125 35.8648006,66.9088542 36.7860245,66.3359375 C37.7072485,65.7630208 38.4152563,64.9492187 38.910048,63.8945312 C39.4048396,62.8398437 39.6522355,61.6126302 39.6522355,60.2128906 L39.6522355,60.2128906 L39.6522355,59.578125 C39.6522355,58.1848958 39.3999568,56.9560547 38.8953995,55.8916016 C38.3908422,54.8271484 37.6779516,54.0100911 36.7567276,53.4404297 C35.8355037,52.8707682 34.7824438,52.5859375 33.597548,52.5859375 C32.4126521,52.5859375 31.3595922,52.8707682 30.4383683,53.4404297 C29.5171443,54.0100911 28.8042537,54.8271484 28.2996964,55.8916016 C27.7951391,56.9560547 27.5428605,58.188151 27.5428605,59.5878906 L27.5428605,59.5878906 L27.5428605,60.2910156 C27.5493709,61.6582031 27.8065323,62.867513 28.3143448,63.9189453 C28.8221573,64.9703776 29.5383032,65.7792969 30.4627823,66.3457031 C31.3872615,66.9121094 32.4386938,67.1953125 33.6170792,67.1953125 Z M33.6170792,64.7929687 C32.614475,64.7929687 31.8462459,64.3925781 31.3123917,63.5917969 C30.7785375,62.7910156 30.5116105,61.6647135 30.5116105,60.2128906 L30.5116105,60.2128906 L30.5116105,59.5195312 C30.5181209,58.0416667 30.7883032,56.9202474 31.3221573,56.1552734 C31.8560115,55.3902995 32.614475,55.0078125 33.597548,55.0078125 C34.5871313,55.0078125 35.34885,55.3951823 35.8827042,56.1699219 C36.4165584,56.9446615 36.6834855,58.077474 36.6834855,59.5683594 L36.6834855,59.5683594 L36.6834855,60.2617187 C36.676975,61.7395833 36.410048,62.8642578 35.8827042,63.6357422 C35.3553605,64.4072266 34.6001521,64.7929687 33.6170792,64.7929687 Z M47.425673,67.1953125 C48.6170792,67.1953125 49.6733943,66.9088542 50.5946183,66.3359375 C51.5158422,65.7630208 52.22385,64.9492187 52.7186417,63.8945312 C53.2134334,62.8398437 53.4608292,61.6126302 53.4608292,60.2128906 L53.4608292,60.2128906 L53.4608292,59.578125 C53.4608292,58.1848958 53.2085506,56.9560547 52.7039933,55.8916016 C52.199436,54.8271484 51.4865454,54.0100911 50.5653214,53.4404297 C49.6440974,52.8707682 48.5910375,52.5859375 47.4061417,52.5859375 C46.2212459,52.5859375 45.168186,52.8707682 44.246962,53.4404297 C43.3257381,54.0100911 42.6128474,54.8271484 42.1082901,55.8916016 C41.6037329,56.9560547 41.3514542,58.188151 41.3514542,59.5878906 L41.3514542,59.5878906 L41.3514542,60.2910156 C41.3579646,61.6582031 41.6151261,62.867513 42.1229386,63.9189453 C42.6307511,64.9703776 43.3468969,65.7792969 44.2713761,66.3457031 C45.1958552,66.9121094 46.2472875,67.1953125 47.425673,67.1953125 Z M47.425673,64.7929687 C46.4230688,64.7929687 45.6548396,64.3925781 45.1209855,63.5917969 C44.5871313,62.7910156 44.3202042,61.6647135 44.3202042,60.2128906 L44.3202042,60.2128906 L44.3202042,59.5195312 C44.3267146,58.0416667 44.5968969,56.9202474 45.1307511,56.1552734 C45.6646052,55.3902995 46.4230688,55.0078125 47.4061417,55.0078125 C48.395725,55.0078125 49.1574438,55.3951823 49.691298,56.1699219 C50.2251521,56.9446615 50.4920792,58.077474 50.4920792,59.5683594 L50.4920792,59.5683594 L50.4920792,60.2617187 C50.4855688,61.7395833 50.2186417,62.8642578 49.691298,63.6357422 C49.1639542,64.4072266 48.4087459,64.7929687 47.425673,64.7929687 Z M64.7401261,67 L64.7401261,64.6464844 L58.519423,64.6464844 L58.519423,52.78125 L55.5897355,52.78125 L55.5897355,67 L64.7401261,67 Z M68.3338761,67 L69.3104386,64.0703125 L74.4471573,64.0703125 L75.4334855,67 L78.5487198,67 L73.2264542,52.78125 L70.5116105,52.78125 L65.2186417,67 L68.3338761,67 Z M73.6561417,61.6972656 L70.1014542,61.6972656 L71.8690323,56.375 L73.6561417,61.6972656 Z M82.8065323,67 L82.8065323,57.6445312 L88.5096573,67 L91.4393448,67 L91.4393448,52.78125 L88.519423,52.78125 L88.519423,62.15625 L82.8065323,52.78125 L79.8768448,52.78125 L79.8768448,67 L82.8065323,67 Z M100.345595,67 L100.345595,55.1542969 L104.701064,55.1542969 L104.701064,52.78125 L93.1190323,52.78125 L93.1190323,55.1542969 L97.4159073,55.1542969 L97.4159073,67 L100.345595,67 Z M109.300673,67 L109.300673,61.7949219 L111.634657,61.7949219 L114.300673,67 L117.445204,67 L117.445204,66.8632812 L114.369032,61.0527344 C115.221897,60.6686198 115.85829,60.1526693 116.278212,59.5048828 C116.698134,58.8570964 116.908095,58.0481771 116.908095,57.078125 C116.908095,55.7109375 116.452366,54.6529948 115.540907,53.9042969 C114.629449,53.155599 113.333876,52.78125 111.654189,52.78125 L111.654189,52.78125 L106.370985,52.78125 L106.370985,67 L109.300673,67 Z M111.663954,59.421875 L109.300673,59.421875 L109.300673,55.1542969 L111.654189,55.1542969 C112.441949,55.1542969 113.026259,55.3463542 113.407118,55.7304687 C113.787978,56.1145833 113.978407,56.6419271 113.978407,57.3125 C113.978407,57.9700521 113.776584,58.4860026 113.372939,58.8603516 C112.969293,59.2347005 112.399631,59.421875 111.663954,59.421875 L111.663954,59.421875 Z M121.04872,67 L122.025282,64.0703125 L127.162001,64.0703125 L128.148329,67 L131.263564,67 L125.941298,52.78125 L123.226454,52.78125 L117.933485,67 L121.04872,67 Z M126.370985,61.6972656 L122.816298,61.6972656 L124.583876,56.375 L126.370985,61.6972656 Z M136.297157,61.125 C137.092991,61.125 137.833616,60.91875 138.519032,60.50625 C139.204449,60.09375 139.745074,59.5260417 140.140907,58.803125 C140.536741,58.0802083 140.734657,57.29375 140.734657,56.44375 C140.734657,55.6020833 140.539866,54.8208333 140.150282,54.1 C139.760699,53.3791667 139.221116,52.8114583 138.531532,52.396875 C137.841949,51.9822917 137.097157,51.775 136.297157,51.775 C135.497157,51.775 134.752366,51.9822917 134.062782,52.396875 C133.373199,52.8114583 132.833616,53.3791667 132.444032,54.1 C132.054449,54.8208333 131.859657,55.6020833 131.859657,56.44375 C131.859657,57.2895833 132.055491,58.0729167 132.447157,58.79375 C132.838824,59.5145833 133.377366,60.0833333 134.062782,60.5 C134.748199,60.9166667 135.492991,61.125 136.297157,61.125 Z M136.297157,60.35 C135.630491,60.35 135.012782,60.1760417 134.444032,59.828125 C133.875282,59.4802083 133.429449,59.00625 133.106532,58.40625 C132.783616,57.80625 132.622157,57.1520833 132.622157,56.44375 C132.622157,55.7354167 132.784657,55.08125 133.109657,54.48125 C133.434657,53.88125 133.881532,53.4104167 134.450282,53.06875 C135.019032,52.7270833 135.634657,52.55625 136.297157,52.55625 C136.976324,52.55625 137.601324,52.734375 138.172157,53.090625 C138.742991,53.446875 139.184657,53.921875 139.497157,54.515625 C139.809657,55.109375 139.965907,55.7520833 139.965907,56.44375 C139.965907,57.1395833 139.807574,57.7875 139.490907,58.3875 C139.174241,58.9875 138.729449,59.4645833 138.156532,59.81875 C137.583616,60.1729167 136.963824,60.35 136.297157,60.35 Z M135.397157,59.025 L135.397157,56.91875 L136.384657,56.91875 C136.705491,56.91875 136.934657,56.9885417 137.072157,57.128125 C137.209657,57.2677083 137.278407,57.4958333 137.278407,57.8125 C137.278407,58.4791667 137.305491,58.8833333 137.359657,59.025 L137.359657,59.025 L138.328407,59.025 L138.328407,58.925 C138.286741,58.8291667 138.258616,58.7104167 138.244032,58.56875 C138.229449,58.4270833 138.222157,58.1854167 138.222157,57.84375 C138.222157,57.5020833 138.171116,57.215625 138.069032,56.984375 C137.966949,56.753125 137.788824,56.5729167 137.534657,56.44375 C138.005491,56.1854167 138.240907,55.8229167 138.240907,55.35625 C138.240907,54.83125 138.059657,54.4260417 137.697157,54.140625 C137.334657,53.8552083 136.838824,53.7125 136.209657,53.7125 L136.209657,53.7125 L134.453407,53.7125 L134.453407,59.025 L135.397157,59.025 Z M136.247157,56.08125 L135.397157,56.08125 L135.397157,54.54375 L136.278407,54.54375 C136.665907,54.5479167 136.933616,54.6114583 137.081532,54.734375 C137.229449,54.8572917 137.303407,55.0645833 137.303407,55.35625 C137.303407,55.5729167 137.204449,55.7479167 137.006532,55.88125 C136.808616,56.0145833 136.555491,56.08125 136.247157,56.08125 L136.247157,56.08125 Z M153.42997,67 L153.42997,52.7128906 L153.146767,52.7128906 L147.970985,54.65625 L147.970985,56.296875 L151.613564,54.9589844 L151.613564,67 L153.42997,67 Z M163.166298,67.1953125 C164.702756,67.1953125 165.832314,66.6809896 166.55497,65.6523437 C167.277626,64.6236979 167.638954,63.0514323 167.638954,60.9355469 L167.638954,60.9355469 L167.638954,58.5917969 C167.619423,56.547526 167.248329,55.0354818 166.525673,54.0556641 C165.803017,53.0758464 164.676715,52.5859375 163.146767,52.5859375 C161.603798,52.5859375 160.470985,53.09375 159.748329,54.109375 C159.025673,55.125 158.664345,56.6777344 158.664345,58.7675781 L158.664345,58.7675781 L158.664345,61.1796875 C158.690386,63.1783854 159.067991,64.6806641 159.797157,65.6865234 C160.526324,66.6923828 161.649371,67.1953125 163.166298,67.1953125 Z M163.166298,65.7207031 C162.26135,65.7207031 161.585894,65.3544922 161.139931,64.6220703 C160.693967,63.8896484 160.470985,62.7552083 160.470985,61.21875 L160.470985,61.21875 L160.470985,58.328125 C160.484006,56.8828125 160.702105,55.811849 161.125282,55.1152344 C161.548459,54.4186198 162.222288,54.0703125 163.146767,54.0703125 C164.077756,54.0703125 164.758095,54.4202474 165.187782,55.1201172 C165.61747,55.819987 165.832314,56.9348958 165.832314,58.4648437 L165.832314,58.4648437 L165.832314,61.4238281 C165.812782,62.9082031 165.586545,63.9954427 165.153603,64.6855469 C164.72066,65.375651 164.058225,65.7207031 163.166298,65.7207031 Z M171.935829,67 L171.935829,59.2851562 C172.372027,58.2760417 173.182574,57.7714844 174.36747,57.7714844 C175.871376,57.7714844 176.623329,58.5397135 176.623329,60.0761719 L176.623329,60.0761719 L176.623329,67 L178.439735,67 L178.439735,59.9882812 C178.51135,59.3111979 178.768511,58.7724609 179.21122,58.3720703 C179.653928,57.9716797 180.210569,57.7714844 180.881142,57.7714844 C181.694944,57.7714844 182.274371,57.9586589 182.619423,58.3330078 C182.964475,58.7073568 183.137001,59.2721354 183.137001,60.0273437 L183.137001,60.0273437 L183.137001,67 L184.943642,67 L184.943642,59.9199219 C184.904579,57.4654948 183.726194,56.2382812 181.408485,56.2382812 C180.640256,56.2382812 179.974566,56.3945312 179.411415,56.7070312 C178.848264,57.0195312 178.390907,57.4296875 178.039345,57.9375 C177.505491,56.8046875 176.499631,56.2382812 175.021767,56.2382812 C173.706663,56.2382812 172.661741,56.6940104 171.887001,57.6054687 L171.887001,57.6054687 L171.838173,56.4335937 L170.129189,56.4335937 L170.129189,67 L171.935829,67 Z M191.681923,71.1601562 C193.04911,71.1601562 194.137978,70.766276 194.948525,69.9785156 C195.759071,69.1907552 196.164345,68.1132812 196.164345,66.7460937 L196.164345,66.7460937 L196.164345,56.4335937 L194.513954,56.4335937 L194.426064,57.6054687 C193.703407,56.6940104 192.697548,56.2382812 191.408485,56.2382812 C190.151975,56.2382812 189.14286,56.7249349 188.381142,57.6982422 C187.619423,58.6715495 187.238564,59.9817708 187.238564,61.6289062 C187.238564,63.3476562 187.621051,64.7050781 188.386025,65.7011719 C189.150998,66.6972656 190.151975,67.1953125 191.388954,67.1953125 C192.638954,67.1953125 193.625282,66.7786458 194.347939,65.9453125 L194.347939,65.9453125 L194.347939,66.8535156 C194.347939,67.7519531 194.10217,68.4485677 193.610634,68.9433594 C193.119097,69.438151 192.433876,69.6855469 191.55497,69.6855469 C190.435178,69.6855469 189.487913,69.2070312 188.713173,68.25 L188.713173,68.25 L187.775673,69.3339844 C188.159788,69.9003906 188.716428,70.3463542 189.445595,70.671875 C190.174761,70.9973958 190.920204,71.1601562 191.681923,71.1601562 Z M191.838173,65.6621094 C190.959267,65.6621094 190.275673,65.3219401 189.787392,64.6416016 C189.29911,63.961263 189.05497,63.0253906 189.05497,61.8339844 C189.05497,60.4928385 189.302366,59.4804687 189.797157,58.796875 C190.291949,58.1132812 190.978798,57.7714844 191.857704,57.7714844 C192.964475,57.7714844 193.794553,58.2760417 194.347939,59.2851562 L194.347939,59.2851562 L194.347939,64.109375 C193.814084,65.1445312 192.977496,65.6621094 191.838173,65.6621094 Z M199.250282,68.2207031 L205.178017,52.78125 L203.635048,52.78125 L197.697548,68.2207031 L199.250282,68.2207031 Z M211.144814,71.1601562 C212.512001,71.1601562 213.600868,70.766276 214.411415,69.9785156 C215.221962,69.1907552 215.627235,68.1132812 215.627235,66.7460937 L215.627235,66.7460937 L215.627235,56.4335937 L213.976845,56.4335937 L213.888954,57.6054687 C213.166298,56.6940104 212.160439,56.2382812 210.871376,56.2382812 C209.614866,56.2382812 208.605751,56.7249349 207.844032,57.6982422 C207.082314,58.6715495 206.701454,59.9817708 206.701454,61.6289062 C206.701454,63.3476562 207.083941,64.7050781 207.848915,65.7011719 C208.613889,66.6972656 209.614866,67.1953125 210.851845,67.1953125 C212.101845,67.1953125 213.088173,66.7786458 213.810829,65.9453125 L213.810829,65.9453125 L213.810829,66.8535156 C213.810829,67.7519531 213.565061,68.4485677 213.073525,68.9433594 C212.581988,69.438151 211.896767,69.6855469 211.01786,69.6855469 C209.898069,69.6855469 208.950803,69.2070312 208.176064,68.25 L208.176064,68.25 L207.238564,69.3339844 C207.622678,69.9003906 208.179319,70.3463542 208.908485,70.671875 C209.637652,70.9973958 210.383095,71.1601562 211.144814,71.1601562 Z M211.301064,65.6621094 C210.422157,65.6621094 209.738564,65.3219401 209.250282,64.6416016 C208.762001,63.961263 208.51786,63.0253906 208.51786,61.8339844 C208.51786,60.4928385 208.765256,59.4804687 209.260048,58.796875 C209.75484,58.1132812 210.441689,57.7714844 211.320595,57.7714844 C212.427366,57.7714844 213.257444,58.2760417 213.810829,59.2851562 L213.810829,59.2851562 L213.810829,64.109375 C213.276975,65.1445312 212.440386,65.6621094 211.301064,65.6621094 Z M227.541298,67.1953125 C228.257444,67.1953125 228.936155,67.0325521 229.577431,66.7070312 C230.218707,66.3815104 230.731402,65.9453125 231.115517,65.3984375 C231.499631,64.8515625 231.707965,64.2753906 231.740517,63.6699219 L231.740517,63.6699219 L230.031532,63.6699219 C229.979449,64.2558594 229.712522,64.7441406 229.230751,65.1347656 C228.74898,65.5253906 228.185829,65.7207031 227.541298,65.7207031 C226.610308,65.7207031 225.894163,65.3919271 225.39286,64.734375 C224.891558,64.0768229 224.640907,63.1393229 224.640907,61.921875 L224.640907,61.921875 L224.640907,61.5800781 C224.640907,60.3300781 224.893186,59.3746745 225.397743,58.7138672 C225.902301,58.0530599 226.613564,57.7226562 227.531532,57.7226562 C228.215126,57.7226562 228.78967,57.9423828 229.255165,58.3818359 C229.72066,58.8212891 229.979449,59.3828125 230.031532,60.0664062 L230.031532,60.0664062 L231.740517,60.0664062 C231.688433,58.9335937 231.270139,58.0123698 230.485634,57.3027344 C229.701129,56.593099 228.716428,56.2382812 227.531532,56.2382812 C226.567991,56.2382812 225.73303,56.4596354 225.02665,56.9023437 C224.320269,57.3450521 223.778277,57.9667969 223.400673,58.7675781 C223.023069,59.5683594 222.834267,60.4830729 222.834267,61.5117187 L222.834267,61.5117187 L222.834267,61.8144531 C222.834267,63.4811198 223.259071,64.7945964 224.108681,65.7548828 C224.95829,66.7151693 226.102496,67.1953125 227.541298,67.1953125 Z M235.578407,67 L235.578407,59.5 C236.001584,58.4908854 236.805621,57.9863281 237.990517,57.9863281 C238.309527,57.9863281 238.605751,58.0091146 238.879189,58.0546875 L238.879189,58.0546875 L238.879189,56.375 C238.696897,56.2838542 238.42997,56.2382812 238.078407,56.2382812 C236.991168,56.2382812 236.151324,56.7102865 235.558876,57.6542969 L235.558876,57.6542969 L235.529579,56.4335937 L233.771767,56.4335937 L233.771767,67 L235.578407,67 Z M244.92411,67.1953125 C246.694944,67.1953125 248.023069,66.514974 248.908485,65.1542969 L248.908485,65.1542969 L247.80497,64.2949219 C247.472939,64.7246094 247.085569,65.0696615 246.64286,65.3300781 C246.200152,65.5904948 245.659788,65.7207031 245.021767,65.7207031 C244.123329,65.7207031 243.382769,65.4000651 242.800087,64.7587891 C242.217405,64.117513 241.913043,63.2760417 241.887001,62.234375 L241.887001,62.234375 L249.045204,62.234375 L249.045204,61.4824219 C249.045204,59.796224 248.664345,58.500651 247.902626,57.5957031 C247.140907,56.6907552 246.073199,56.2382812 244.699501,56.2382812 C243.859657,56.2382812 243.080035,56.4710286 242.360634,56.9365234 C241.641233,57.4020182 241.081337,58.0465495 240.680946,58.8701172 C240.280556,59.6936849 240.08036,60.6295573 240.08036,61.6777344 L240.08036,61.6777344 L240.08036,62.0097656 C240.08036,63.5852865 240.529579,64.8434245 241.428017,65.7841797 C242.326454,66.7249349 243.491819,67.1953125 244.92411,67.1953125 Z M247.238564,60.75 L241.945595,60.75 C242.062782,59.7929687 242.368772,59.0491536 242.863564,58.5185547 C243.358355,57.9879557 243.970334,57.7226562 244.699501,57.7226562 C245.454709,57.7226562 246.053668,57.9749349 246.496376,58.4794922 C246.939084,58.9840495 247.18648,59.6953125 247.238564,60.6132812 L247.238564,60.6132812 L247.238564,60.75 Z M252.931923,67 L252.931923,59.2851562 C253.368121,58.2760417 254.178668,57.7714844 255.363564,57.7714844 C256.86747,57.7714844 257.619423,58.5397135 257.619423,60.0761719 L257.619423,60.0761719 L257.619423,67 L259.435829,67 L259.435829,59.9882812 C259.507444,59.3111979 259.764605,58.7724609 260.207314,58.3720703 C260.650022,57.9716797 261.206663,57.7714844 261.877235,57.7714844 C262.691038,57.7714844 263.270465,57.9586589 263.615517,58.3330078 C263.960569,58.7073568 264.133095,59.2721354 264.133095,60.0273437 L264.133095,60.0273437 L264.133095,67 L265.939735,67 L265.939735,59.9199219 C265.900673,57.4654948 264.722288,56.2382812 262.404579,56.2382812 C261.63635,56.2382812 260.97066,56.3945312 260.407509,56.7070312 C259.844358,57.0195312 259.387001,57.4296875 259.035439,57.9375 C258.501584,56.8046875 257.495725,56.2382812 256.01786,56.2382812 C254.702756,56.2382812 253.657834,56.6940104 252.883095,57.6054687 L252.883095,57.6054687 L252.834267,56.4335937 L251.125282,56.4335937 L251.125282,67 L252.931923,67 Z M271.926064,67.1953125 C273.091428,67.1953125 274.094032,66.7591146 274.933876,65.8867187 C274.99898,66.4205729 275.083616,66.7916667 275.187782,67 L275.187782,67 L277.082314,67 L277.082314,66.84375 C276.834918,66.2708333 276.71122,65.499349 276.71122,64.5292969 L276.71122,64.5292969 L276.71122,59.6660156 C276.685178,58.5983073 276.327105,57.7600911 275.637001,57.1513672 C274.946897,56.5426432 273.993121,56.2382812 272.775673,56.2382812 C272.007444,56.2382812 271.302691,56.3815104 270.661415,56.6679687 C270.020139,56.9544271 269.512327,57.3434245 269.137978,57.8349609 C268.763629,58.3264974 268.576454,58.8359375 268.576454,59.3632812 L268.576454,59.3632812 L270.39286,59.3632812 C270.39286,58.9010417 270.610959,58.5071615 271.047157,58.1816406 C271.483355,57.8561198 272.02372,57.6933594 272.668251,57.6933594 C273.403928,57.6933594 273.960569,57.8805339 274.338173,58.2548828 C274.715777,58.6292318 274.904579,59.1321615 274.904579,59.7636719 L274.904579,59.7636719 L274.904579,60.59375 L273.146767,60.59375 C271.62984,60.59375 270.453082,60.898112 269.616493,61.5068359 C268.779905,62.1155599 268.36161,62.9700521 268.36161,64.0703125 C268.36161,64.9752604 268.695269,65.7223307 269.362587,66.3115234 C270.029905,66.9007161 270.884397,67.1953125 271.926064,67.1953125 Z M272.189735,65.6230469 C271.597288,65.6230469 271.112261,65.4635417 270.734657,65.1445312 C270.357053,64.8255208 270.168251,64.3828125 270.168251,63.8164062 C270.168251,62.5208333 271.275022,61.8730469 273.488564,61.8730469 L273.488564,61.8730469 L274.904579,61.8730469 L274.904579,64.0410156 C274.676715,64.5097656 274.308876,64.890625 273.801064,65.1835937 C273.293251,65.4765625 272.756142,65.6230469 272.189735,65.6230469 Z" id="SOOLANTRA®10mg/gcrema" fill="#E97406" fill-rule="nonzero"></path>
                <path d="M16.991298,190.2 L16.991298,186.313281 L16.6983292,179.614062 L20.5264542,190.2 L22.538173,190.2 L26.3760636,179.604297 L26.0830948,186.313281 L26.0830948,190.2 L29.022548,190.2 L29.022548,175.98125 L25.1748917,175.98125 L21.5420792,186.29375 L17.8897355,175.98125 L14.0616105,175.98125 L14.0616105,190.2 L16.991298,190.2 Z M41.1123917,190.2 L41.1123917,187.846484 L34.5108292,187.846484 L34.5108292,184.037891 L40.1358292,184.037891 L40.1358292,181.742969 L34.5108292,181.742969 L34.5108292,178.354297 L41.0928605,178.354297 L41.0928605,175.98125 L31.5811417,175.98125 L31.5811417,190.2 L41.1123917,190.2 Z M49.178798,190.2 L49.178798,178.354297 L53.5342667,178.354297 L53.5342667,175.98125 L41.9522355,175.98125 L41.9522355,178.354297 L46.2491105,178.354297 L46.2491105,190.2 L49.178798,190.2 Z M58.1338761,190.2 L58.1338761,184.994922 L60.4678605,184.994922 L63.1338761,190.2 L66.2784073,190.2 L66.2784073,190.063281 L63.2022355,184.252734 C64.0551,183.86862 64.6914933,183.352669 65.1114151,182.704883 C65.531337,182.057096 65.741298,181.248177 65.741298,180.278125 C65.741298,178.910937 65.2855688,177.852995 64.3741105,177.104297 C63.4626521,176.355599 62.1670792,175.98125 60.4873917,175.98125 L60.4873917,175.98125 L55.2041886,175.98125 L55.2041886,190.2 L58.1338761,190.2 Z M60.4971573,182.621875 L58.1338761,182.621875 L58.1338761,178.354297 L60.4873917,178.354297 C61.2751521,178.354297 61.859462,178.546354 62.2403214,178.930469 C62.6211808,179.314583 62.8116105,179.841927 62.8116105,180.5125 C62.8116105,181.170052 62.6097875,181.686003 62.2061417,182.060352 C61.8024959,182.434701 61.2328344,182.621875 60.4971573,182.621875 L60.4971573,182.621875 Z M73.6123917,190.395312 C74.803798,190.395312 75.8601131,190.108854 76.781337,189.535937 C77.702561,188.963021 78.4105688,188.149219 78.9053605,187.094531 C79.4001521,186.039844 79.647548,184.81263 79.647548,183.412891 L79.647548,183.412891 L79.647548,182.778125 C79.647548,181.384896 79.3952693,180.156055 78.890712,179.091602 C78.3861547,178.027148 77.6732641,177.210091 76.7520401,176.64043 C75.8308162,176.070768 74.7777563,175.785937 73.5928605,175.785937 C72.4079646,175.785937 71.3549047,176.070768 70.4336808,176.64043 C69.5124568,177.210091 68.7995662,178.027148 68.2950089,179.091602 C67.7904516,180.156055 67.538173,181.388151 67.538173,182.787891 L67.538173,182.787891 L67.538173,183.491016 C67.5446834,184.858203 67.8018448,186.067513 68.3096573,187.118945 C68.8174698,188.170378 69.5336157,188.979297 70.4580948,189.545703 C71.382574,190.112109 72.4340063,190.395312 73.6123917,190.395312 Z M73.6123917,187.992969 C72.6097875,187.992969 71.8415584,187.592578 71.3077042,186.791797 C70.77385,185.991016 70.506923,184.864714 70.506923,183.412891 L70.506923,183.412891 L70.506923,182.719531 C70.5134334,181.241667 70.7836157,180.120247 71.3174698,179.355273 C71.851324,178.590299 72.6097875,178.207812 73.5928605,178.207812 C74.5824438,178.207812 75.3441625,178.595182 75.8780167,179.369922 C76.4118709,180.144661 76.678798,181.277474 76.678798,182.768359 L76.678798,182.768359 L76.678798,183.461719 C76.6722875,184.939583 76.4053605,186.064258 75.8780167,186.835742 C75.350673,187.607227 74.5954646,187.992969 73.6123917,187.992969 Z M84.7061417,190.2 L84.7061417,180.844531 L90.4092667,190.2 L93.3389542,190.2 L93.3389542,175.98125 L90.4190323,175.98125 L90.4190323,185.35625 L84.7061417,175.98125 L81.7764542,175.98125 L81.7764542,190.2 L84.7061417,190.2 Z M99.0127823,190.2 L99.0127823,175.98125 L96.0830948,175.98125 L96.0830948,190.2 L99.0127823,190.2 Z M106.131923,190.2 C107.375413,190.19349 108.491949,189.907031 109.481532,189.340625 C110.471116,188.774219 111.237717,187.976693 111.781337,186.948047 C112.324957,185.919401 112.596767,184.744271 112.596767,183.422656 L112.596767,183.422656 L112.596767,182.768359 C112.596767,181.446745 112.320074,180.266732 111.766689,179.22832 C111.213303,178.189909 110.443446,177.389128 109.457118,176.825977 C108.47079,176.262826 107.352626,175.98125 106.102626,175.98125 L106.102626,175.98125 L101.727626,175.98125 L101.727626,190.2 L106.131923,190.2 Z M106.073329,187.846484 L104.657314,187.846484 L104.657314,178.354297 L106.102626,178.354297 C107.25497,178.354297 108.130621,178.727018 108.729579,179.472461 C109.328538,180.217904 109.628017,181.313281 109.628017,182.758594 L109.628017,182.758594 L109.628017,183.510547 C109.614996,184.903776 109.305751,185.97474 108.700282,186.723437 C108.094814,187.472135 107.219163,187.846484 106.073329,187.846484 L106.073329,187.846484 Z M116.639735,190.2 L117.616298,187.270312 L122.753017,187.270312 L123.739345,190.2 L126.854579,190.2 L121.532314,175.98125 L118.81747,175.98125 L113.524501,190.2 L116.639735,190.2 Z M121.962001,184.897266 L118.407314,184.897266 L120.174892,179.575 L121.962001,184.897266 Z M138.456142,190.2 L138.456142,187.846484 L131.288173,187.846484 L138.299892,177.660937 L138.299892,175.98125 L127.635829,175.98125 L127.635829,178.354297 L134.657314,178.354297 L127.626064,188.48125 L127.626064,190.2 L138.456142,190.2 Z M145.946376,190.395312 C147.137782,190.395312 148.194097,190.108854 149.115321,189.535937 C150.036545,188.963021 150.744553,188.149219 151.239345,187.094531 C151.734136,186.039844 151.981532,184.81263 151.981532,183.412891 L151.981532,183.412891 L151.981532,182.778125 C151.981532,181.384896 151.729254,180.156055 151.224696,179.091602 C150.720139,178.027148 150.007248,177.210091 149.086025,176.64043 C148.164801,176.070768 147.111741,175.785937 145.926845,175.785937 C144.741949,175.785937 143.688889,176.070768 142.767665,176.64043 C141.846441,177.210091 141.133551,178.027148 140.628993,179.091602 C140.124436,180.156055 139.872157,181.388151 139.872157,182.787891 L139.872157,182.787891 L139.872157,183.491016 C139.878668,184.858203 140.135829,186.067513 140.643642,187.118945 C141.151454,188.170378 141.8676,188.979297 142.792079,189.545703 C143.716558,190.112109 144.767991,190.395312 145.946376,190.395312 Z M145.946376,187.992969 C144.943772,187.992969 144.175543,187.592578 143.641689,186.791797 C143.107834,185.991016 142.840907,184.864714 142.840907,183.412891 L142.840907,183.412891 L142.840907,182.719531 C142.847418,181.241667 143.1176,180.120247 143.651454,179.355273 C144.185308,178.590299 144.943772,178.207812 145.926845,178.207812 C146.916428,178.207812 147.678147,178.595182 148.212001,179.369922 C148.745855,180.144661 149.012782,181.277474 149.012782,182.768359 L149.012782,182.768359 L149.012782,183.461719 C149.006272,184.939583 148.739345,186.064258 148.212001,186.835742 C147.684657,187.607227 146.929449,187.992969 145.946376,187.992969 Z M163.260829,190.2 L163.260829,187.846484 L157.040126,187.846484 L157.040126,175.98125 L154.110439,175.98125 L154.110439,190.2 L163.260829,190.2 Z M173.094814,190.2 L178.983485,176.996875 L178.983485,175.98125 L169.37411,175.98125 L169.37411,177.465625 L177.069423,177.465625 L171.200282,190.2 L173.094814,190.2 Z M181.16122,193.032031 C181.649501,192.634896 182.054775,192.107552 182.37704,191.45 C182.699306,190.792448 182.860439,190.134896 182.860439,189.477344 L182.860439,189.477344 L182.860439,188.061328 L181.09286,188.061328 L181.09286,189.692187 C181.066819,190.597135 180.747808,191.476042 180.135829,192.328906 L180.135829,192.328906 L181.16122,193.032031 Z M189.715907,190.395312 C191.135178,190.395312 192.240321,189.973763 193.031337,189.130664 C193.822353,188.287565 194.21786,187.133594 194.21786,185.66875 C194.21786,184.210417 193.837001,183.05319 193.075282,182.19707 C192.313564,181.340951 191.284918,180.912891 189.989345,180.912891 C189.103928,180.912891 188.312913,181.117969 187.616298,181.528125 L187.616298,181.528125 L188.045985,177.651172 L193.797939,177.651172 L193.797939,175.98125 L186.512782,175.98125 L185.790126,183.071094 L187.235439,183.442187 L187.713954,183.051562 C188.163173,182.70651 188.781663,182.533984 189.569423,182.533984 C190.428798,182.533984 191.117275,182.82207 191.634853,183.398242 C192.152431,183.974414 192.41122,184.73776 192.41122,185.688281 C192.41122,186.697396 192.171962,187.488411 191.693446,188.061328 C191.214931,188.634245 190.555751,188.920703 189.715907,188.920703 C188.947678,188.920703 188.329189,188.713997 187.860439,188.300586 C187.391689,187.887174 187.101975,187.273568 186.991298,186.459766 L186.991298,186.459766 L185.282314,186.459766 C185.392991,187.690234 185.845465,188.653776 186.639735,189.350391 C187.434006,190.047005 188.459397,190.395312 189.715907,190.395312 Z M203.12411,190.2 L203.12411,182.485156 C203.560308,181.476042 204.370855,180.971484 205.555751,180.971484 C207.059657,180.971484 207.81161,181.739714 207.81161,183.276172 L207.81161,183.276172 L207.81161,190.2 L209.628017,190.2 L209.628017,183.188281 C209.699631,182.511198 209.956793,181.972461 210.399501,181.57207 C210.842209,181.17168 211.39885,180.971484 212.069423,180.971484 C212.883225,180.971484 213.462652,181.158659 213.807704,181.533008 C214.152756,181.907357 214.325282,182.472135 214.325282,183.227344 L214.325282,183.227344 L214.325282,190.2 L216.131923,190.2 L216.131923,183.119922 C216.09286,180.665495 214.914475,179.438281 212.596767,179.438281 C211.828538,179.438281 211.162847,179.594531 210.599696,179.907031 C210.036545,180.219531 209.579189,180.629687 209.227626,181.1375 C208.693772,180.004687 207.687913,179.438281 206.210048,179.438281 C204.894944,179.438281 203.850022,179.89401 203.075282,180.805469 L203.075282,180.805469 L203.026454,179.633594 L201.31747,179.633594 L201.31747,190.2 L203.12411,190.2 Z M222.870204,194.360156 C224.237392,194.360156 225.326259,193.966276 226.136806,193.178516 C226.947353,192.390755 227.352626,191.313281 227.352626,189.946094 L227.352626,189.946094 L227.352626,179.633594 L225.702235,179.633594 L225.614345,180.805469 C224.891689,179.89401 223.885829,179.438281 222.596767,179.438281 C221.340256,179.438281 220.331142,179.924935 219.569423,180.898242 C218.807704,181.871549 218.426845,183.181771 218.426845,184.828906 C218.426845,186.547656 218.809332,187.905078 219.574306,188.901172 C220.33928,189.897266 221.340256,190.395312 222.577235,190.395312 C223.827235,190.395312 224.813564,189.978646 225.53622,189.145312 L225.53622,189.145312 L225.53622,190.053516 C225.53622,190.951953 225.290452,191.648568 224.798915,192.143359 C224.307379,192.638151 223.622157,192.885547 222.743251,192.885547 C221.623459,192.885547 220.676194,192.407031 219.901454,191.45 L219.901454,191.45 L218.963954,192.533984 C219.348069,193.100391 219.904709,193.546354 220.633876,193.871875 C221.363043,194.197396 222.108485,194.360156 222.870204,194.360156 Z M223.026454,188.862109 C222.147548,188.862109 221.463954,188.52194 220.975673,187.841602 C220.487392,187.161263 220.243251,186.225391 220.243251,185.033984 C220.243251,183.692839 220.490647,182.680469 220.985439,181.996875 C221.48023,181.313281 222.167079,180.971484 223.045985,180.971484 C224.152756,180.971484 224.982834,181.476042 225.53622,182.485156 L225.53622,182.485156 L225.53622,187.309375 C225.002366,188.344531 224.165777,188.862109 223.026454,188.862109 Z M230.438564,191.420703 L236.366298,175.98125 L234.823329,175.98125 L228.885829,191.420703 L230.438564,191.420703 Z M242.333095,194.360156 C243.700282,194.360156 244.78915,193.966276 245.599696,193.178516 C246.410243,192.390755 246.815517,191.313281 246.815517,189.946094 L246.815517,189.946094 L246.815517,179.633594 L245.165126,179.633594 L245.077235,180.805469 C244.354579,179.89401 243.34872,179.438281 242.059657,179.438281 C240.803147,179.438281 239.794032,179.924935 239.032314,180.898242 C238.270595,181.871549 237.889735,183.181771 237.889735,184.828906 C237.889735,186.547656 238.272222,187.905078 239.037196,188.901172 C239.80217,189.897266 240.803147,190.395312 242.040126,190.395312 C243.290126,190.395312 244.276454,189.978646 244.99911,189.145312 L244.99911,189.145312 L244.99911,190.053516 C244.99911,190.951953 244.753342,191.648568 244.261806,192.143359 C243.770269,192.638151 243.085048,192.885547 242.206142,192.885547 C241.08635,192.885547 240.139084,192.407031 239.364345,191.45 L239.364345,191.45 L238.426845,192.533984 C238.810959,193.100391 239.3676,193.546354 240.096767,193.871875 C240.825933,194.197396 241.571376,194.360156 242.333095,194.360156 Z M242.489345,188.862109 C241.610439,188.862109 240.926845,188.52194 240.438564,187.841602 C239.950282,187.161263 239.706142,186.225391 239.706142,185.033984 C239.706142,183.692839 239.953538,182.680469 240.448329,181.996875 C240.943121,181.313281 241.62997,180.971484 242.508876,180.971484 C243.615647,180.971484 244.445725,181.476042 244.99911,182.485156 L244.99911,182.485156 L244.99911,187.309375 C244.465256,188.344531 243.628668,188.862109 242.489345,188.862109 Z M258.729579,190.395312 C259.445725,190.395312 260.124436,190.232552 260.765712,189.907031 C261.406988,189.58151 261.919683,189.145312 262.303798,188.598437 C262.687913,188.051562 262.896246,187.475391 262.928798,186.869922 L262.928798,186.869922 L261.219814,186.869922 C261.16773,187.455859 260.900803,187.944141 260.419032,188.334766 C259.937261,188.725391 259.37411,188.920703 258.729579,188.920703 C257.79859,188.920703 257.082444,188.591927 256.581142,187.934375 C256.07984,187.276823 255.829189,186.339323 255.829189,185.121875 L255.829189,185.121875 L255.829189,184.780078 C255.829189,183.530078 256.081467,182.574674 256.586025,181.913867 C257.090582,181.25306 257.801845,180.922656 258.719814,180.922656 C259.403407,180.922656 259.977952,181.142383 260.443446,181.581836 C260.908941,182.021289 261.16773,182.582812 261.219814,183.266406 L261.219814,183.266406 L262.928798,183.266406 C262.876715,182.133594 262.45842,181.21237 261.673915,180.502734 C260.88941,179.793099 259.904709,179.438281 258.719814,179.438281 C257.756272,179.438281 256.921311,179.659635 256.214931,180.102344 C255.508551,180.545052 254.966558,181.166797 254.588954,181.967578 C254.21135,182.768359 254.022548,183.683073 254.022548,184.711719 L254.022548,184.711719 L254.022548,185.014453 C254.022548,186.68112 254.447353,187.994596 255.296962,188.954883 C256.146571,189.915169 257.290777,190.395312 258.729579,190.395312 Z M266.766689,190.2 L266.766689,182.7 C267.189866,181.690885 267.993902,181.186328 269.178798,181.186328 C269.497808,181.186328 269.794032,181.209115 270.06747,181.254687 L270.06747,181.254687 L270.06747,179.575 C269.885178,179.483854 269.618251,179.438281 269.266689,179.438281 C268.179449,179.438281 267.339605,179.910286 266.747157,180.854297 L266.747157,180.854297 L266.71786,179.633594 L264.960048,179.633594 L264.960048,190.2 L266.766689,190.2 Z M276.112392,190.395312 C277.883225,190.395312 279.21135,189.714974 280.096767,188.354297 L280.096767,188.354297 L278.993251,187.494922 C278.66122,187.924609 278.27385,188.269661 277.831142,188.530078 C277.388433,188.790495 276.848069,188.920703 276.210048,188.920703 C275.31161,188.920703 274.571051,188.600065 273.988368,187.958789 C273.405686,187.317513 273.101324,186.476042 273.075282,185.434375 L273.075282,185.434375 L280.233485,185.434375 L280.233485,184.682422 C280.233485,182.996224 279.852626,181.700651 279.090907,180.795703 C278.329189,179.890755 277.26148,179.438281 275.887782,179.438281 C275.047939,179.438281 274.268316,179.671029 273.548915,180.136523 C272.829514,180.602018 272.269618,181.246549 271.869228,182.070117 C271.468837,182.893685 271.268642,183.829557 271.268642,184.877734 L271.268642,184.877734 L271.268642,185.209766 C271.268642,186.785286 271.71786,188.043424 272.616298,188.98418 C273.514735,189.924935 274.6801,190.395312 276.112392,190.395312 Z M278.426845,183.95 L273.133876,183.95 C273.251064,182.992969 273.557053,182.249154 274.051845,181.718555 C274.546636,181.187956 275.158616,180.922656 275.887782,180.922656 C276.642991,180.922656 277.241949,181.174935 277.684657,181.679492 C278.127366,182.184049 278.374761,182.895312 278.426845,183.813281 L278.426845,183.813281 L278.426845,183.95 Z M284.120204,190.2 L284.120204,182.485156 C284.556402,181.476042 285.366949,180.971484 286.551845,180.971484 C288.055751,180.971484 288.807704,181.739714 288.807704,183.276172 L288.807704,183.276172 L288.807704,190.2 L290.62411,190.2 L290.62411,183.188281 C290.695725,182.511198 290.952886,181.972461 291.395595,181.57207 C291.838303,181.17168 292.394944,180.971484 293.065517,180.971484 C293.879319,180.971484 294.458746,181.158659 294.803798,181.533008 C295.14885,181.907357 295.321376,182.472135 295.321376,183.227344 L295.321376,183.227344 L295.321376,190.2 L297.128017,190.2 L297.128017,183.119922 C297.088954,180.665495 295.910569,179.438281 293.59286,179.438281 C292.824631,179.438281 292.158941,179.594531 291.59579,179.907031 C291.032639,180.219531 290.575282,180.629687 290.22372,181.1375 C289.689866,180.004687 288.684006,179.438281 287.206142,179.438281 C285.891038,179.438281 284.846116,179.89401 284.071376,180.805469 L284.071376,180.805469 L284.022548,179.633594 L282.313564,179.633594 L282.313564,190.2 L284.120204,190.2 Z M303.114345,190.395312 C304.279709,190.395312 305.282314,189.959115 306.122157,189.086719 C306.187261,189.620573 306.271897,189.991667 306.376064,190.2 L306.376064,190.2 L308.270595,190.2 L308.270595,190.04375 C308.023199,189.470833 307.899501,188.699349 307.899501,187.729297 L307.899501,187.729297 L307.899501,182.866016 C307.873459,181.798307 307.515386,180.960091 306.825282,180.351367 C306.135178,179.742643 305.181402,179.438281 303.963954,179.438281 C303.195725,179.438281 302.490972,179.58151 301.849696,179.867969 C301.20842,180.154427 300.700608,180.543424 300.326259,181.034961 C299.95191,181.526497 299.764735,182.035937 299.764735,182.563281 L299.764735,182.563281 L301.581142,182.563281 C301.581142,182.101042 301.799241,181.707161 302.235439,181.381641 C302.671636,181.05612 303.212001,180.893359 303.856532,180.893359 C304.592209,180.893359 305.14885,181.080534 305.526454,181.454883 C305.904058,181.829232 306.09286,182.332161 306.09286,182.963672 L306.09286,182.963672 L306.09286,183.79375 L304.335048,183.79375 C302.818121,183.79375 301.641363,184.098112 300.804775,184.706836 C299.968186,185.31556 299.549892,186.170052 299.549892,187.270312 C299.549892,188.17526 299.883551,188.922331 300.550868,189.511523 C301.218186,190.100716 302.072678,190.395312 303.114345,190.395312 Z M303.378017,188.823047 C302.785569,188.823047 302.300543,188.663542 301.922939,188.344531 C301.545334,188.025521 301.356532,187.582812 301.356532,187.016406 C301.356532,185.720833 302.463303,185.073047 304.676845,185.073047 L304.676845,185.073047 L306.09286,185.073047 L306.09286,187.241016 C305.864996,187.709766 305.497157,188.090625 304.989345,188.383594 C304.481532,188.676562 303.944423,188.823047 303.378017,188.823047 Z" id="METRONIDAZOL7,5mg/gcrema" fill="#848588" fill-rule="nonzero"></path>
                <polygon id="1" fill="#FFFFFF" fill-rule="nonzero" points="384.837717 59 384.837717 13.4375 383.868967 13.4375 365.025217 20.1875 365.025217 27.53125 375.806467 24.1875 375.806467 59"></polygon>
                <path d="M369.405438,83.8 L372.969891,73.2335937 L370.020672,73.2335937 L368.057782,80.3527344 L366.094891,73.2335937 L363.145672,73.2335937 L366.710125,83.8 L369.405438,83.8 Z M379.073407,83.9953125 C379.952313,83.9953125 380.753094,83.8276693 381.47575,83.4923828 C382.198407,83.1570964 382.771323,82.689974 383.1945,82.0910156 L383.1945,82.0910156 L381.807782,80.5382812 C381.195802,81.3260417 380.346193,81.7199219 379.258953,81.7199219 C378.555828,81.7199219 377.974774,81.5115885 377.515789,81.0949219 C377.056805,80.6782552 376.78174,80.1248698 376.690594,79.4347656 L376.690594,79.4347656 L383.41911,79.4347656 L383.41911,78.2824219 C383.41911,76.6092448 383.004071,75.3169271 382.173992,74.4054687 C381.343914,73.4940104 380.206219,73.0382812 378.760907,73.0382812 C377.797365,73.0382812 376.939617,73.2645182 376.187664,73.7169922 C375.435711,74.1694661 374.854657,74.8139974 374.4445,75.6505859 C374.034344,76.4871745 373.829266,77.4360677 373.829266,78.4972656 L373.829266,78.4972656 L373.829266,78.7707031 C373.829266,80.3527344 374.31592,81.6190104 375.289227,82.5695312 C376.262534,83.5200521 377.523927,83.9953125 379.073407,83.9953125 Z M380.645672,77.5109375 L376.719891,77.5109375 C376.817547,76.8078125 377.040529,76.2674479 377.388836,75.8898437 C377.737144,75.5122396 378.191245,75.3234375 378.751141,75.3234375 C379.350099,75.3234375 379.812339,75.4943359 380.13786,75.8361328 C380.463381,76.1779297 380.632651,76.6613281 380.645672,77.2863281 L380.645672,77.2863281 L380.645672,77.5109375 Z M393.428875,83.8 L393.428875,81.5246094 L388.26286,81.5246094 L393.272625,74.9035156 L393.272625,73.2335937 L384.805828,73.2335937 L384.805828,75.51875 L389.630047,75.51875 L384.659344,82.08125 L384.659344,83.8 L393.428875,83.8 Z M358.585125,103.995312 C359.678875,103.995312 360.567547,103.614453 361.251141,102.852734 C361.309735,103.230339 361.404136,103.546094 361.534344,103.8 L361.534344,103.8 L364.385907,103.8 L364.385907,103.633984 C364.112469,103.119661 363.972495,102.361198 363.965985,101.358594 L363.965985,101.358594 L363.965985,96.7785156 C363.965985,95.5936198 363.583498,94.6740234 362.818524,94.0197266 C362.05355,93.3654297 361.020021,93.0382812 359.717938,93.0382812 C358.858563,93.0382812 358.083823,93.1863932 357.393719,93.4826172 C356.703615,93.7788411 356.169761,94.1873698 355.792157,94.7082031 C355.414552,95.2290365 355.22575,95.7954427 355.22575,96.4074219 L355.22575,96.4074219 L358.048016,96.4074219 C358.048016,96.0102865 358.183107,95.6977865 358.453289,95.4699219 C358.723472,95.2420573 359.096193,95.128125 359.571453,95.128125 C360.111818,95.128125 360.507326,95.2746094 360.757977,95.5675781 C361.008628,95.8605469 361.133953,96.2511719 361.133953,96.7394531 L361.133953,96.7394531 L361.133953,97.3449219 L359.835125,97.3449219 C358.266115,97.3514323 357.066571,97.6541667 356.236492,98.253125 C355.406414,98.8520833 354.991375,99.7114583 354.991375,100.83125 C354.991375,101.742708 355.331545,102.497917 356.011883,103.096875 C356.692222,103.695833 357.549969,103.995312 358.585125,103.995312 Z M359.20036,101.837109 C358.770672,101.837109 358.432131,101.723177 358.184735,101.495312 C357.937339,101.267448 357.813641,100.977734 357.813641,100.626172 L357.813641,100.626172 L357.823407,100.460156 C357.914552,99.4835937 358.666506,98.9953125 360.079266,98.9953125 L360.079266,98.9953125 L361.133953,98.9953125 L361.133953,100.811719 C360.964683,101.124219 360.704266,101.373242 360.352703,101.558789 C360.001141,101.744336 359.617026,101.837109 359.20036,101.837109 Z M369.112469,103.8 L369.112469,88.8 L366.280438,88.8 L366.280438,103.8 L369.112469,103.8 Z M380.098797,103.995312 C381.205568,103.995312 382.110516,103.555859 382.813641,102.676953 L382.813641,102.676953 L382.95036,103.8 L385.499188,103.8 L385.499188,88.8 L382.667157,88.8 L382.667157,94.190625 C381.996584,93.4223958 381.146974,93.0382812 380.118328,93.0382812 C378.835776,93.0382812 377.825034,93.5265625 377.086102,94.503125 C376.34717,95.4796875 375.977703,96.7915365 375.977703,98.4386719 C375.977703,100.183464 376.35368,101.545768 377.105633,102.525586 C377.857586,103.505404 378.855308,103.995312 380.098797,103.995312 Z M380.821453,101.710156 C380.163901,101.710156 379.662599,101.446484 379.317547,100.919141 C378.972495,100.391797 378.799969,99.6333333 378.799969,98.64375 C378.799969,96.4367187 379.480308,95.3332031 380.840985,95.3332031 C381.70687,95.3332031 382.315594,95.7010417 382.667157,96.4367187 L382.667157,96.4367187 L382.667157,100.606641 C382.309084,101.342318 381.693849,101.710156 380.821453,101.710156 Z M390.274578,91.9738281 L392.979657,88.9464844 L389.903485,88.9464844 L387.979657,91.9738281 L390.274578,91.9738281 Z M390.733563,103.8 L390.733563,93.2335937 L387.911297,93.2335937 L387.911297,103.8 L390.733563,103.8 Z M396.339032,103.995312 C397.432782,103.995312 398.321453,103.614453 399.005047,102.852734 C399.063641,103.230339 399.158042,103.546094 399.28825,103.8 L399.28825,103.8 L402.139813,103.8 L402.139813,103.633984 C401.866375,103.119661 401.726401,102.361198 401.719891,101.358594 L401.719891,101.358594 L401.719891,96.7785156 C401.719891,95.5936198 401.337404,94.6740234 400.57243,94.0197266 C399.807456,93.3654297 398.773927,93.0382812 397.471844,93.0382812 C396.612469,93.0382812 395.837729,93.1863932 395.147625,93.4826172 C394.457521,93.7788411 393.923667,94.1873698 393.546063,94.7082031 C393.168459,95.2290365 392.979657,95.7954427 392.979657,96.4074219 L392.979657,96.4074219 L395.801922,96.4074219 C395.801922,96.0102865 395.937013,95.6977865 396.207196,95.4699219 C396.477378,95.2420573 396.850099,95.128125 397.32536,95.128125 C397.865724,95.128125 398.261232,95.2746094 398.511883,95.5675781 C398.762534,95.8605469 398.88786,96.2511719 398.88786,96.7394531 L398.88786,96.7394531 L398.88786,97.3449219 L397.589032,97.3449219 C396.020021,97.3514323 394.820477,97.6541667 393.990399,98.253125 C393.160321,98.8520833 392.745282,99.7114583 392.745282,100.83125 C392.745282,101.742708 393.085451,102.497917 393.765789,103.096875 C394.446128,103.695833 395.303875,103.995312 396.339032,103.995312 Z M396.954266,101.837109 C396.524578,101.837109 396.186037,101.723177 395.938641,101.495312 C395.691245,101.267448 395.567547,100.977734 395.567547,100.626172 L395.567547,100.626172 L395.577313,100.460156 C395.668459,99.4835937 396.420412,98.9953125 397.833172,98.9953125 L397.833172,98.9953125 L398.88786,98.9953125 L398.88786,100.811719 C398.718589,101.124219 398.458172,101.373242 398.10661,101.558789 C397.755047,101.744336 397.370933,101.837109 396.954266,101.837109 Z" id="vezaldía" fill="#FFFFFF" fill-rule="nonzero"></path>
                <path d="M394.087717,187 L394.087717,179.71875 L374.525217,179.71875 L384.868967,168.8125 C387.7023,165.708333 389.7023,162.989583 390.868967,160.65625 C392.035633,158.322917 392.618967,156.03125 392.618967,153.78125 C392.618967,149.677083 391.322092,146.5 388.728342,144.25 C386.134592,142 382.493967,140.875 377.806467,140.875 C374.743967,140.875 372.004383,141.526042 369.587717,142.828125 C367.17105,144.130208 365.301258,145.927083 363.978342,148.21875 C362.655425,150.510417 361.993967,153.041667 361.993967,155.8125 L361.993967,155.8125 L371.056467,155.8125 C371.056467,153.520833 371.645008,151.671875 372.822092,150.265625 C373.999175,148.859375 375.60855,148.15625 377.650217,148.15625 C379.54605,148.15625 381.004383,148.734375 382.025217,149.890625 C383.04605,151.046875 383.556467,152.635417 383.556467,154.65625 C383.556467,156.135417 383.072092,157.697917 382.103342,159.34375 C381.134592,160.989583 379.6398,162.916667 377.618967,165.125 L377.618967,165.125 L362.900217,180.8125 L362.900217,187 L394.087717,187 Z" id="2" fill="#FFFFFF" fill-rule="nonzero"></path>
                <path d="M361.130125,210.2 L364.694578,199.633594 L361.745359,199.633594 L359.782468,206.752734 L357.819578,199.633594 L354.870359,199.633594 L358.434812,210.2 L361.130125,210.2 Z M370.798093,210.395312 C371.677,210.395312 372.477781,210.227669 373.200437,209.892383 C373.923093,209.557096 374.49601,209.089974 374.919187,208.491016 L374.919187,208.491016 L373.532468,206.938281 C372.920489,207.726042 372.07088,208.119922 370.98364,208.119922 C370.280515,208.119922 369.69946,207.911589 369.240476,207.494922 C368.781492,207.078255 368.506427,206.52487 368.415281,205.834766 L368.415281,205.834766 L375.143796,205.834766 L375.143796,204.682422 C375.143796,203.009245 374.728757,201.716927 373.898679,200.805469 C373.068601,199.89401 371.930906,199.438281 370.485593,199.438281 C369.522052,199.438281 368.664304,199.664518 367.912351,200.116992 C367.160398,200.569466 366.579343,201.213997 366.169187,202.050586 C365.759031,202.887174 365.553953,203.836068 365.553953,204.897266 L365.553953,204.897266 L365.553953,205.170703 C365.553953,206.752734 366.040606,208.01901 367.013914,208.969531 C367.987221,209.920052 369.248614,210.395312 370.798093,210.395312 Z M372.370359,203.910937 L368.444578,203.910937 C368.542234,203.207812 368.765216,202.667448 369.113523,202.289844 C369.46183,201.91224 369.915932,201.723437 370.475828,201.723437 C371.074786,201.723437 371.537026,201.894336 371.862546,202.236133 C372.188067,202.57793 372.357338,203.061328 372.370359,203.686328 L372.370359,203.686328 L372.370359,203.910937 Z M381.188718,210.395312 C381.99601,210.395312 382.733315,210.230924 383.400632,209.902148 C384.06795,209.573372 384.593666,209.111133 384.977781,208.51543 C385.361895,207.919727 385.557208,207.263802 385.563718,206.547656 L385.563718,206.547656 L382.917234,206.547656 C382.904213,207.022917 382.734942,207.403776 382.409421,207.690234 C382.083901,207.976693 381.660723,208.119922 381.13989,208.119922 C380.462807,208.119922 379.95825,207.882292 379.626218,207.407031 C379.294187,206.931771 379.128171,206.150521 379.128171,205.063281 L379.128171,205.063281 L379.128171,204.770312 C379.128171,203.696094 379.295815,202.919727 379.631101,202.441211 C379.966388,201.962695 380.462807,201.723437 381.120359,201.723437 C381.654213,201.723437 382.083901,201.894336 382.409421,202.236133 C382.734942,202.57793 382.904213,203.022266 382.917234,203.569141 L382.917234,203.569141 L385.563718,203.569141 C385.550697,202.319141 385.145424,201.318164 384.347898,200.566211 C383.550372,199.814258 382.490802,199.438281 381.169187,199.438281 C379.65877,199.438281 378.470619,199.923307 377.604734,200.893359 C376.738848,201.863411 376.305906,203.16224 376.305906,204.789844 L376.305906,204.789844 L376.305906,204.975391 C376.305906,206.668099 376.742104,207.994596 377.6145,208.954883 C378.486895,209.915169 379.678302,210.395312 381.188718,210.395312 Z M392.038328,210.395312 C392.917234,210.395312 393.718015,210.227669 394.440671,209.892383 C395.163328,209.557096 395.736244,209.089974 396.159421,208.491016 L396.159421,208.491016 L394.772703,206.938281 C394.160723,207.726042 393.311114,208.119922 392.223875,208.119922 C391.52075,208.119922 390.939695,207.911589 390.48071,207.494922 C390.021726,207.078255 389.746661,206.52487 389.655515,205.834766 L389.655515,205.834766 L396.384031,205.834766 L396.384031,204.682422 C396.384031,203.009245 395.968992,201.716927 395.138914,200.805469 C394.308835,199.89401 393.17114,199.438281 391.725828,199.438281 C390.762286,199.438281 389.904539,199.664518 389.152585,200.116992 C388.400632,200.569466 387.819578,201.213997 387.409421,202.050586 C386.999265,202.887174 386.794187,203.836068 386.794187,204.897266 L386.794187,204.897266 L386.794187,205.170703 C386.794187,206.752734 387.280841,208.01901 388.254148,208.969531 C389.227455,209.920052 390.488848,210.395312 392.038328,210.395312 Z M393.610593,203.910937 L389.684812,203.910937 C389.782468,203.207812 390.00545,202.667448 390.353757,202.289844 C390.702065,201.91224 391.156166,201.723437 391.716062,201.723437 C392.31502,201.723437 392.77726,201.894336 393.102781,202.236133 C393.428302,202.57793 393.597572,203.061328 393.610593,203.686328 L393.610593,203.686328 L393.610593,203.910937 Z M402.009031,210.395312 C403.317625,210.395312 404.385333,210.097461 405.212156,209.501758 C406.038979,208.906055 406.45239,208.126432 406.45239,207.162891 C406.45239,205.815234 405.706947,204.867969 404.216062,204.321094 C403.734291,204.145312 403.141843,203.987435 402.438718,203.847461 C401.735593,203.707487 401.235919,203.541471 400.939695,203.349414 C400.643471,203.157357 400.495359,202.905078 400.495359,202.592578 C400.495359,202.260547 400.625567,201.987109 400.885984,201.772266 C401.146401,201.557422 401.514239,201.45 401.9895,201.45 C402.542885,201.45 402.949786,201.581836 403.210203,201.845508 C403.470619,202.10918 403.600828,202.442839 403.600828,202.846484 L403.600828,202.846484 L406.423093,202.846484 C406.423093,201.83737 406.021075,201.017057 405.217039,200.385547 C404.413002,199.754036 403.340411,199.438281 401.999265,199.438281 C400.742755,199.438281 399.725502,199.752409 398.947507,200.380664 C398.169513,201.008919 397.780515,201.791797 397.780515,202.729297 C397.780515,204.33737 399.037026,205.405078 401.550046,205.932422 C402.305255,206.088672 402.853757,206.266081 403.195554,206.464648 C403.537351,206.663216 403.70825,206.935026 403.70825,207.280078 C403.70825,207.612109 403.569903,207.880664 403.29321,208.085742 C403.016518,208.29082 402.607989,208.393359 402.067625,208.393359 C401.488197,208.393359 401.025958,208.259896 400.680906,207.992969 C400.335854,207.726042 400.150307,207.341927 400.124265,206.840625 L400.124265,206.840625 L397.448484,206.840625 C397.448484,207.478646 397.643796,208.072721 398.034421,208.622852 C398.425046,209.172982 398.963783,209.605924 399.650632,209.92168 C400.337481,210.237435 401.123614,210.395312 402.009031,210.395312 Z M360.98364,230.395312 C362.07739,230.395312 362.966062,230.014453 363.649656,229.252734 C363.70825,229.630339 363.802651,229.946094 363.932859,230.2 L363.932859,230.2 L366.784421,230.2 L366.784421,230.033984 C366.510984,229.519661 366.37101,228.761198 366.3645,227.758594 L366.3645,227.758594 L366.3645,223.178516 C366.3645,221.99362 365.982013,221.074023 365.217039,220.419727 C364.452065,219.76543 363.418536,219.438281 362.116453,219.438281 C361.257078,219.438281 360.482338,219.586393 359.792234,219.882617 C359.10213,220.178841 358.568276,220.58737 358.190671,221.108203 C357.813067,221.629036 357.624265,222.195443 357.624265,222.807422 L357.624265,222.807422 L360.446531,222.807422 C360.446531,222.410286 360.581622,222.097786 360.851804,221.869922 C361.121987,221.642057 361.494708,221.528125 361.969968,221.528125 C362.510333,221.528125 362.905841,221.674609 363.156492,221.967578 C363.407143,222.260547 363.532468,222.651172 363.532468,223.139453 L363.532468,223.139453 L363.532468,223.744922 L362.23364,223.744922 C360.66463,223.751432 359.465085,224.054167 358.635007,224.653125 C357.804929,225.252083 357.38989,226.111458 357.38989,227.23125 C357.38989,228.142708 357.730059,228.897917 358.410398,229.496875 C359.090737,230.095833 359.948484,230.395312 360.98364,230.395312 Z M361.598875,228.237109 C361.169187,228.237109 360.830645,228.123177 360.58325,227.895312 C360.335854,227.667448 360.212156,227.377734 360.212156,227.026172 L360.212156,227.026172 L360.221921,226.860156 C360.313067,225.883594 361.06502,225.395312 362.477781,225.395312 L362.477781,225.395312 L363.532468,225.395312 L363.532468,227.211719 C363.363197,227.524219 363.102781,227.773242 362.751218,227.958789 C362.399656,228.144336 362.015541,228.237109 361.598875,228.237109 Z M371.510984,230.2 L371.510984,215.2 L368.678953,215.2 L368.678953,230.2 L371.510984,230.2 Z M382.497312,230.395312 C383.604083,230.395312 384.509031,229.955859 385.212156,229.076953 L385.212156,229.076953 L385.348875,230.2 L387.897703,230.2 L387.897703,215.2 L385.065671,215.2 L385.065671,220.590625 C384.395098,219.822396 383.545489,219.438281 382.516843,219.438281 C381.234291,219.438281 380.223549,219.926562 379.484617,220.903125 C378.745684,221.879687 378.376218,223.191536 378.376218,224.838672 C378.376218,226.583464 378.752195,227.945768 379.504148,228.925586 C380.256101,229.905404 381.253822,230.395312 382.497312,230.395312 Z M383.219968,228.110156 C382.562416,228.110156 382.061114,227.846484 381.716062,227.319141 C381.37101,226.791797 381.198484,226.033333 381.198484,225.04375 C381.198484,222.836719 381.878822,221.733203 383.2395,221.733203 C384.105385,221.733203 384.714109,222.101042 385.065671,222.836719 L385.065671,222.836719 L385.065671,227.006641 C384.707598,227.742318 384.092364,228.110156 383.219968,228.110156 Z M392.673093,218.373828 L395.378171,215.346484 L392.302,215.346484 L390.378171,218.373828 L392.673093,218.373828 Z M393.132078,230.2 L393.132078,219.633594 L390.309812,219.633594 L390.309812,230.2 L393.132078,230.2 Z M398.737546,230.395312 C399.831296,230.395312 400.719968,230.014453 401.403562,229.252734 C401.462156,229.630339 401.556557,229.946094 401.686765,230.2 L401.686765,230.2 L404.538328,230.2 L404.538328,230.033984 C404.26489,229.519661 404.124916,228.761198 404.118406,227.758594 L404.118406,227.758594 L404.118406,223.178516 C404.118406,221.99362 403.735919,221.074023 402.970945,220.419727 C402.205971,219.76543 401.172442,219.438281 399.870359,219.438281 C399.010984,219.438281 398.236244,219.586393 397.54614,219.882617 C396.856036,220.178841 396.322182,220.58737 395.944578,221.108203 C395.566973,221.629036 395.378171,222.195443 395.378171,222.807422 L395.378171,222.807422 L398.200437,222.807422 C398.200437,222.410286 398.335528,222.097786 398.60571,221.869922 C398.875893,221.642057 399.248614,221.528125 399.723875,221.528125 C400.264239,221.528125 400.659747,221.674609 400.910398,221.967578 C401.161049,222.260547 401.286375,222.651172 401.286375,223.139453 L401.286375,223.139453 L401.286375,223.744922 L399.987546,223.744922 C398.418536,223.751432 397.218992,224.054167 396.388914,224.653125 C395.558835,225.252083 395.143796,226.111458 395.143796,227.23125 C395.143796,228.142708 395.483966,228.897917 396.164304,229.496875 C396.844643,230.095833 397.70239,230.395312 398.737546,230.395312 Z M399.352781,228.237109 C398.923093,228.237109 398.584552,228.123177 398.337156,227.895312 C398.08976,227.667448 397.966062,227.377734 397.966062,227.026172 L397.966062,227.026172 L397.975828,226.860156 C398.066973,225.883594 398.818927,225.395312 400.231687,225.395312 L400.231687,225.395312 L401.286375,225.395312 L401.286375,227.211719 C401.117104,227.524219 400.856687,227.773242 400.505125,227.958789 C400.153562,228.144336 399.769447,228.237109 399.352781,228.237109 Z" id="vecesaldía" fill="#FFFFFF" fill-rule="nonzero"></path>
                <path d="M481.915377,183.3125 C484.279961,183.3125 486.149752,182.726562 487.524752,181.554687 C488.899752,180.382812 489.587252,178.786458 489.587252,176.765625 C489.587252,175.505208 489.264336,174.408854 488.618502,173.476562 C487.972669,172.544271 487.097669,171.8125 485.993502,171.28125 C486.962252,170.770833 487.722669,170.088542 488.274752,169.234375 C488.826836,168.380208 489.102877,167.401042 489.102877,166.296875 C489.102877,164.338542 488.45444,162.789062 487.157565,161.648437 C485.86069,160.507812 484.108086,159.9375 481.899752,159.9375 C479.681002,159.9375 477.925794,160.513021 476.634127,161.664062 C475.342461,162.815104 474.696627,164.359375 474.696627,166.296875 C474.696627,167.401042 474.970065,168.380208 475.51694,169.234375 C476.063815,170.088542 476.821627,170.770833 477.790377,171.28125 C476.696627,171.802083 475.826836,172.53125 475.181002,173.46875 C474.535169,174.40625 474.212252,175.505208 474.212252,176.765625 C474.212252,178.776042 474.904961,180.369792 476.290377,181.546875 C477.675794,182.723958 479.550794,183.3125 481.915377,183.3125 Z M481.915377,169.53125 C481.061211,169.53125 480.399752,169.255208 479.931002,168.703125 C479.462252,168.151042 479.227877,167.421875 479.227877,166.515625 C479.227877,165.598958 479.462252,164.880208 479.931002,164.359375 C480.399752,163.838542 481.056002,163.578125 481.899752,163.578125 C482.753919,163.578125 483.415377,163.846354 483.884127,164.382812 C484.352877,164.919271 484.587252,165.630208 484.587252,166.515625 C484.587252,167.421875 484.355482,168.151042 483.89194,168.703125 C483.428398,169.255208 482.769544,169.53125 481.915377,169.53125 Z M481.915377,179.671875 C480.915377,179.671875 480.134127,179.375 479.571627,178.78125 C479.009127,178.1875 478.727877,177.40625 478.727877,176.4375 C478.727877,175.4375 479.014336,174.643229 479.587252,174.054687 C480.160169,173.466146 480.925794,173.171875 481.884127,173.171875 C482.852877,173.171875 483.623711,173.46875 484.196627,174.0625 C484.769544,174.65625 485.056002,175.447917 485.056002,176.4375 C485.056002,177.447917 484.777357,178.239583 484.220065,178.8125 C483.662773,179.385417 482.894544,179.671875 481.915377,179.671875 Z M500.431002,183.3125 C502.003919,183.3125 503.368502,182.992187 504.524752,182.351562 C505.681002,181.710937 506.569023,180.809896 507.188815,179.648437 C507.808607,178.486979 508.118502,177.171875 508.118502,175.703125 C508.118502,173.286458 507.503919,171.40625 506.274752,170.0625 C505.045586,168.71875 503.347669,168.046875 501.181002,168.046875 C499.972669,168.046875 498.832044,168.333333 497.759127,168.90625 L497.759127,168.90625 L498.321627,164.015625 L507.368502,164.015625 L507.368502,160.25 L494.618502,160.25 L493.306002,171.8125 L496.899752,172.703125 L497.337252,172.296875 C498.003919,171.734375 498.873711,171.453125 499.946627,171.453125 C501.113294,171.453125 502.014336,171.796875 502.649752,172.484375 C503.285169,173.171875 503.602877,174.161458 503.602877,175.453125 C503.602877,176.796875 503.326836,177.835937 502.774752,178.570312 C502.222669,179.304687 501.436211,179.671875 500.415377,179.671875 C499.498711,179.671875 498.756523,179.408854 498.188815,178.882812 C497.621107,178.356771 497.290377,177.619792 497.196627,176.671875 L497.196627,176.671875 L492.727877,176.671875 C492.769544,177.963542 493.131523,179.114583 493.813815,180.125 C494.496107,181.135417 495.425794,181.919271 496.602877,182.476562 C497.779961,183.033854 499.056002,183.3125 500.431002,183.3125 Z M525.040377,183.3125 C526.811211,183.3125 528.259127,182.609375 529.384127,181.203125 L529.384127,181.203125 L529.602877,183 L533.681002,183 L533.681002,159 L529.149752,159 L529.149752,167.625 C528.076836,166.395833 526.717461,165.78125 525.071627,165.78125 C523.019544,165.78125 521.402357,166.5625 520.220065,168.125 C519.037773,169.6875 518.446627,171.786458 518.446627,174.421875 C518.446627,177.213542 519.04819,179.393229 520.251315,180.960937 C521.45444,182.528646 523.050794,183.3125 525.040377,183.3125 Z M526.196627,179.65625 C525.144544,179.65625 524.342461,179.234375 523.790377,178.390625 C523.238294,177.546875 522.962252,176.333333 522.962252,174.75 C522.962252,171.21875 524.050794,169.453125 526.227877,169.453125 C527.613294,169.453125 528.587252,170.041667 529.149752,171.21875 L529.149752,171.21875 L529.149752,177.890625 C528.576836,179.067708 527.592461,179.65625 526.196627,179.65625 Z M541.321627,164.078125 L545.649752,159.234375 L540.727877,159.234375 L537.649752,164.078125 L541.321627,164.078125 Z M542.056002,183 L542.056002,166.09375 L537.540377,166.09375 L537.540377,183 L542.056002,183 Z M551.024752,183.3125 C552.774752,183.3125 554.196627,182.703125 555.290377,181.484375 C555.384127,182.088542 555.535169,182.59375 555.743502,183 L555.743502,183 L560.306002,183 L560.306002,182.734375 C559.868502,181.911458 559.644544,180.697917 559.634127,179.09375 L559.634127,179.09375 L559.634127,171.765625 C559.634127,169.869792 559.022148,168.398437 557.79819,167.351562 C556.574232,166.304687 554.920586,165.78125 552.837252,165.78125 C551.462252,165.78125 550.222669,166.018229 549.118502,166.492187 C548.014336,166.966146 547.160169,167.619792 546.556002,168.453125 C545.951836,169.286458 545.649752,170.192708 545.649752,171.171875 L545.649752,171.171875 L550.165377,171.171875 C550.165377,170.536458 550.381523,170.036458 550.813815,169.671875 C551.246107,169.307292 551.842461,169.125 552.602877,169.125 C553.467461,169.125 554.100273,169.359375 554.501315,169.828125 C554.902357,170.296875 555.102877,170.921875 555.102877,171.703125 L555.102877,171.703125 L555.102877,172.671875 L553.024752,172.671875 C550.514336,172.682292 548.595065,173.166667 547.26694,174.125 C545.938815,175.083333 545.274752,176.458333 545.274752,178.25 C545.274752,179.708333 545.819023,180.916667 546.907565,181.875 C547.996107,182.833333 549.368502,183.3125 551.024752,183.3125 Z M552.009127,179.859375 C551.321627,179.859375 550.779961,179.677083 550.384127,179.3125 C549.988294,178.947917 549.790377,178.484375 549.790377,177.921875 L549.790377,177.921875 L549.806002,177.65625 C549.951836,176.09375 551.154961,175.3125 553.415377,175.3125 L553.415377,175.3125 L555.102877,175.3125 L555.102877,178.21875 C554.832044,178.71875 554.415377,179.117187 553.852877,179.414062 C553.290377,179.710937 552.675794,179.859375 552.009127,179.859375 Z M569.540377,183.3125 C571.634127,183.3125 573.342461,182.835937 574.665377,181.882812 C575.988294,180.929687 576.649752,179.682292 576.649752,178.140625 C576.649752,175.984375 575.457044,174.46875 573.071627,173.59375 C572.300794,173.3125 571.352877,173.059896 570.227877,172.835937 C569.102877,172.611979 568.303398,172.346354 567.82944,172.039062 C567.355482,171.731771 567.118502,171.328125 567.118502,170.828125 C567.118502,170.296875 567.326836,169.859375 567.743502,169.515625 C568.160169,169.171875 568.748711,169 569.509127,169 C570.394544,169 571.045586,169.210937 571.462252,169.632812 C571.878919,170.054687 572.087252,170.588542 572.087252,171.234375 L572.087252,171.234375 L576.602877,171.234375 C576.602877,169.619792 575.959648,168.307292 574.67319,167.296875 C573.386732,166.286458 571.670586,165.78125 569.524752,165.78125 C567.514336,165.78125 565.886732,166.283854 564.64194,167.289062 C563.397148,168.294271 562.774752,169.546875 562.774752,171.046875 C562.774752,173.619792 564.785169,175.328125 568.806002,176.171875 C570.014336,176.421875 570.89194,176.705729 571.438815,177.023437 C571.98569,177.341146 572.259127,177.776042 572.259127,178.328125 C572.259127,178.859375 572.037773,179.289062 571.595065,179.617187 C571.152357,179.945312 570.498711,180.109375 569.634127,180.109375 C568.707044,180.109375 567.967461,179.895833 567.415377,179.46875 C566.863294,179.041667 566.566419,178.427083 566.524752,177.625 L566.524752,177.625 L562.243502,177.625 C562.243502,178.645833 562.556002,179.596354 563.181002,180.476562 C563.806002,181.356771 564.667982,182.049479 565.76694,182.554687 C566.865898,183.059896 568.123711,183.3125 569.540377,183.3125 Z M495.787448,211.443359 L496.334323,209.949219 C495.370781,209.220052 494.625338,208.116536 494.097995,206.638672 C493.570651,205.160807 493.306979,203.435547 493.306979,201.462891 L493.306979,201.462891 L493.306979,201.160156 C493.306979,199.19401 493.573906,197.47526 494.10776,196.003906 C494.641614,194.532552 495.383802,193.445312 496.334323,192.742187 L496.334323,192.742187 L495.787448,191.21875 C494.8825,191.622396 494.042656,192.343424 493.267917,193.381836 C492.493177,194.420247 491.907239,195.613281 491.510104,196.960937 C491.112969,198.308594 490.914401,199.727865 490.914401,201.21875 L490.914401,201.21875 L490.914401,201.736328 C490.940443,203.16862 491.155286,204.542318 491.558932,205.857422 C491.962578,207.172526 492.546888,208.333008 493.311862,209.338867 C494.076836,210.344727 494.902031,211.046224 495.787448,211.443359 L495.787448,211.443359 Z M500.572604,207 L500.572604,199.548828 C500.969739,198.871745 501.565443,198.533203 502.359713,198.533203 C502.965182,198.533203 503.398125,198.668294 503.658542,198.938477 C503.918958,199.208659 504.049167,199.643229 504.049167,200.242187 L504.049167,200.242187 L504.049167,207 L506.871432,207 L506.871432,200.173828 C506.858411,198.865234 506.578463,197.882161 506.031588,197.224609 C505.484713,196.567057 504.65138,196.238281 503.531588,196.238281 C502.262057,196.238281 501.249687,196.710286 500.494479,197.654297 L500.494479,197.654297 L500.406588,196.433594 L497.750338,196.433594 L497.750338,207 L500.572604,207 Z M517.984713,199.714844 L517.984713,197.410156 L509.254245,197.410156 L509.254245,199.714844 L517.984713,199.714844 Z M517.984713,203.943359 L517.984713,201.638672 L509.254245,201.638672 L509.254245,203.943359 L517.984713,203.943359 Z M524.830417,207.195312 C526.347344,207.195312 527.566419,206.814453 528.487643,206.052734 C529.408867,205.291016 529.869479,204.278646 529.869479,203.015625 C529.869479,202.234375 529.672539,201.557292 529.278659,200.984375 C528.884779,200.411458 528.287448,199.981771 527.486667,199.695312 C528.131198,199.402344 528.652031,198.982422 529.049167,198.435547 C529.446302,197.888672 529.64487,197.289714 529.64487,196.638672 C529.64487,195.375651 529.218437,194.38444 528.365573,193.665039 C527.512708,192.945638 526.334323,192.585937 524.830417,192.585937 C523.964531,192.585937 523.171888,192.751953 522.452487,193.083984 C521.733086,193.416016 521.17319,193.876628 520.772799,194.46582 C520.372409,195.055013 520.172213,195.720703 520.172213,196.462891 L520.172213,196.462891 L522.994479,196.462891 C522.994479,195.98763 523.176771,195.601888 523.541354,195.305664 C523.905937,195.00944 524.358411,194.861328 524.898776,194.861328 C525.497734,194.861328 525.968112,195.020833 526.309909,195.339844 C526.651706,195.658854 526.822604,196.104818 526.822604,196.677734 C526.822604,197.270182 526.650078,197.745443 526.305026,198.103516 C525.959974,198.461589 525.429375,198.640625 524.713229,198.640625 L524.713229,198.640625 L523.209323,198.640625 L523.209323,200.847656 L524.703463,200.847656 C526.265963,200.847656 527.047213,201.557292 527.047213,202.976562 C527.047213,203.5625 526.856784,204.032878 526.475924,204.387695 C526.095065,204.742513 525.569349,204.919922 524.898776,204.919922 C524.312838,204.919922 523.819674,204.750651 523.419284,204.412109 C523.018893,204.073568 522.818698,203.63737 522.818698,203.103516 L522.818698,203.103516 L519.996432,203.103516 C519.996432,204.333984 520.447279,205.323568 521.348971,206.072266 C522.250664,206.820964 523.411146,207.195312 524.830417,207.195312 Z M536.83237,207.195312 C537.756849,207.195312 538.585299,206.986979 539.317721,206.570312 C540.050143,206.153646 540.616549,205.570964 541.01694,204.822266 C541.417331,204.073568 541.617526,203.236979 541.617526,202.3125 C541.617526,200.867187 541.252943,199.701823 540.523776,198.816406 C539.794609,197.93099 538.811536,197.488281 537.574557,197.488281 C536.422213,197.488281 535.468437,197.872396 534.713229,198.640625 C534.869479,197.494792 535.336601,196.599609 536.114596,195.955078 C536.892591,195.310547 537.919609,194.978516 539.195651,194.958984 L539.195651,194.958984 L539.469088,194.958984 L539.469088,192.634766 L539.000338,192.634766 C537.561536,192.641276 536.296888,192.968424 535.206393,193.616211 C534.115898,194.263997 533.27931,195.178711 532.696627,196.360352 C532.113945,197.541992 531.822604,198.904297 531.822604,200.447266 L531.822604,200.447266 L531.822604,201.462891 C531.822604,203.201172 532.283216,204.591146 533.20444,205.632812 C534.125664,206.674479 535.334974,207.195312 536.83237,207.195312 Z M536.773776,204.919922 C536.103203,204.919922 535.58237,204.654622 535.211276,204.124023 C534.840182,203.593424 534.654635,202.85612 534.654635,201.912109 L534.654635,201.912109 L534.654635,201.052734 C534.830417,200.662109 535.103854,200.347982 535.474948,200.110352 C535.846042,199.872721 536.259453,199.753906 536.715182,199.753906 C537.353203,199.753906 537.861015,199.991536 538.23862,200.466797 C538.616224,200.942057 538.805026,201.567057 538.805026,202.341797 C538.805026,203.103516 538.617851,203.723633 538.243502,204.202148 C537.869154,204.680664 537.379245,204.919922 536.773776,204.919922 Z M548.160495,207.195312 C549.143568,207.195312 549.996432,206.995117 550.719088,206.594727 C551.441745,206.194336 551.996758,205.631185 552.384127,204.905273 C552.771497,204.179362 552.965182,203.357422 552.965182,202.439453 C552.965182,200.929036 552.581068,199.753906 551.812838,198.914062 C551.044609,198.074219 549.983411,197.654297 548.629245,197.654297 C547.874036,197.654297 547.161146,197.833333 546.490573,198.191406 L546.490573,198.191406 L546.842135,195.134766 L552.496432,195.134766 L552.496432,192.78125 L544.527682,192.78125 L543.70737,200.007812 L545.953463,200.564453 L546.226901,200.310547 C546.643568,199.958984 547.187187,199.783203 547.85776,199.783203 C548.586927,199.783203 549.150078,199.998047 549.547213,200.427734 C549.944349,200.857422 550.142917,201.475911 550.142917,202.283203 C550.142917,203.123047 549.97039,203.772461 549.625338,204.231445 C549.280286,204.69043 548.78875,204.919922 548.150729,204.919922 C547.577812,204.919922 547.113945,204.755534 546.759127,204.426758 C546.40431,204.097982 546.197604,203.63737 546.13901,203.044922 L546.13901,203.044922 L543.346042,203.044922 C543.372083,203.852214 543.59832,204.571615 544.024752,205.203125 C544.451185,205.834635 545.032239,206.324544 545.767917,206.672852 C546.503594,207.021159 547.30112,207.195312 548.160495,207.195312 Z M554.73276,211.443359 C555.637708,211.052734 556.487318,210.336589 557.281588,209.294922 C558.075859,208.253255 558.684583,207.052083 559.10776,205.691406 C559.530937,204.330729 559.742526,202.914714 559.742526,201.443359 L559.742526,201.443359 L559.742526,201.003906 C559.722995,199.565104 559.496758,198.17513 559.063815,196.833984 C558.630872,195.492839 558.022148,194.317708 557.237643,193.308594 C556.453138,192.299479 555.618177,191.602865 554.73276,191.21875 L554.73276,191.21875 L554.185885,192.712891 C555.136406,193.455078 555.876966,194.568359 556.407565,196.052734 C556.938164,197.537109 557.203463,199.252604 557.203463,201.199219 L557.203463,201.199219 L557.203463,201.716797 C557.183932,203.604818 556.907239,205.27474 556.373385,206.726562 C555.839531,208.178385 555.110364,209.252604 554.185885,209.949219 L554.185885,209.949219 L554.73276,211.443359 Z" id="85días(n=365)" fill="#FFFFFF" fill-rule="nonzero"></path>
                <path d="M476.063815,62.4 L476.063815,39.61875 L475.57944,39.61875 L466.157565,42.99375 L466.157565,46.665625 L471.54819,44.99375 L471.54819,62.4 L476.063815,62.4 Z M494.42319,62.4 L494.42319,39.61875 L493.938815,39.61875 L484.51694,42.99375 L484.51694,46.665625 L489.907565,44.99375 L489.907565,62.4 L494.42319,62.4 Z M509.61069,62.7125 C511.183607,62.7125 512.54819,62.3921875 513.70444,61.7515625 C514.86069,61.1109375 515.748711,60.2098958 516.368502,59.0484375 C516.988294,57.8869792 517.29819,56.571875 517.29819,55.103125 C517.29819,52.6864583 516.683607,50.80625 515.45444,49.4625 C514.225273,48.11875 512.527357,47.446875 510.36069,47.446875 C509.152357,47.446875 508.011732,47.7333333 506.938815,48.30625 L506.938815,48.30625 L507.501315,43.415625 L516.54819,43.415625 L516.54819,39.65 L503.79819,39.65 L502.48569,51.2125 L506.07944,52.103125 L506.51694,51.696875 C507.183607,51.134375 508.053398,50.853125 509.126315,50.853125 C510.292982,50.853125 511.194023,51.196875 511.82944,51.884375 C512.464857,52.571875 512.782565,53.5614583 512.782565,54.853125 C512.782565,56.196875 512.506523,57.2359375 511.95444,57.9703125 C511.402357,58.7046875 510.615898,59.071875 509.595065,59.071875 C508.678398,59.071875 507.936211,58.8088542 507.368502,58.2828125 C506.800794,57.7567708 506.470065,57.0197917 506.376315,56.071875 L506.376315,56.071875 L501.907565,56.071875 C501.949232,57.3635417 502.311211,58.5145833 502.993502,59.525 C503.675794,60.5354167 504.605482,61.3192708 505.782565,61.8765625 C506.959648,62.4338542 508.23569,62.7125 509.61069,62.7125 Z M534.220065,62.7125 C535.990898,62.7125 537.438815,62.009375 538.563815,60.603125 L538.563815,60.603125 L538.782565,62.4 L542.86069,62.4 L542.86069,38.4 L538.32944,38.4 L538.32944,47.025 C537.256523,45.7958333 535.897148,45.18125 534.251315,45.18125 C532.199232,45.18125 530.582044,45.9625 529.399752,47.525 C528.217461,49.0875 527.626315,51.1864583 527.626315,53.821875 C527.626315,56.6135417 528.227877,58.7932292 529.431002,60.3609375 C530.634127,61.9286458 532.230482,62.7125 534.220065,62.7125 Z M535.376315,59.05625 C534.324232,59.05625 533.522148,58.634375 532.970065,57.790625 C532.417982,56.946875 532.14194,55.7333333 532.14194,54.15 C532.14194,50.61875 533.230482,48.853125 535.407565,48.853125 C536.792982,48.853125 537.76694,49.4416667 538.32944,50.61875 L538.32944,50.61875 L538.32944,57.290625 C537.756523,58.4677083 536.772148,59.05625 535.376315,59.05625 Z M550.501315,43.478125 L554.82944,38.634375 L549.907565,38.634375 L546.82944,43.478125 L550.501315,43.478125 Z M551.23569,62.4 L551.23569,45.49375 L546.720065,45.49375 L546.720065,62.4 L551.23569,62.4 Z M560.20444,62.7125 C561.95444,62.7125 563.376315,62.103125 564.470065,60.884375 C564.563815,61.4885417 564.714857,61.99375 564.92319,62.4 L564.92319,62.4 L569.48569,62.4 L569.48569,62.134375 C569.04819,61.3114583 568.824232,60.0979167 568.813815,58.49375 L568.813815,58.49375 L568.813815,51.165625 C568.813815,49.2697917 568.201836,47.7984375 566.977877,46.7515625 C565.753919,45.7046875 564.100273,45.18125 562.01694,45.18125 C560.64194,45.18125 559.402357,45.4182292 558.29819,45.8921875 C557.194023,46.3661458 556.339857,47.0197917 555.73569,47.853125 C555.131523,48.6864583 554.82944,49.5927083 554.82944,50.571875 L554.82944,50.571875 L559.345065,50.571875 C559.345065,49.9364583 559.561211,49.4364583 559.993502,49.071875 C560.425794,48.7072917 561.022148,48.525 561.782565,48.525 C562.647148,48.525 563.279961,48.759375 563.681002,49.228125 C564.082044,49.696875 564.282565,50.321875 564.282565,51.103125 L564.282565,51.103125 L564.282565,52.071875 L562.20444,52.071875 C559.694023,52.0822917 557.774752,52.5666667 556.446627,53.525 C555.118502,54.4833333 554.45444,55.8583333 554.45444,57.65 C554.45444,59.1083333 554.998711,60.3166667 556.087252,61.275 C557.175794,62.2333333 558.54819,62.7125 560.20444,62.7125 Z M561.188815,59.259375 C560.501315,59.259375 559.959648,59.0770833 559.563815,58.7125 C559.167982,58.3479167 558.970065,57.884375 558.970065,57.321875 L558.970065,57.321875 L558.98569,57.05625 C559.131523,55.49375 560.334648,54.7125 562.595065,54.7125 L562.595065,54.7125 L564.282565,54.7125 L564.282565,57.61875 C564.011732,58.11875 563.595065,58.5171875 563.032565,58.8140625 C562.470065,59.1109375 561.855482,59.259375 561.188815,59.259375 Z M578.720065,62.7125 C580.813815,62.7125 582.522148,62.2359375 583.845065,61.2828125 C585.167982,60.3296875 585.82944,59.0822917 585.82944,57.540625 C585.82944,55.384375 584.636732,53.86875 582.251315,52.99375 C581.480482,52.7125 580.532565,52.4598958 579.407565,52.2359375 C578.282565,52.0119792 577.483086,51.7463542 577.009127,51.4390625 C576.535169,51.1317708 576.29819,50.728125 576.29819,50.228125 C576.29819,49.696875 576.506523,49.259375 576.92319,48.915625 C577.339857,48.571875 577.928398,48.4 578.688815,48.4 C579.574232,48.4 580.225273,48.6109375 580.64194,49.0328125 C581.058607,49.4546875 581.26694,49.9885417 581.26694,50.634375 L581.26694,50.634375 L585.782565,50.634375 C585.782565,49.0197917 585.139336,47.7072917 583.852877,46.696875 C582.566419,45.6864583 580.850273,45.18125 578.70444,45.18125 C576.694023,45.18125 575.066419,45.6838542 573.821627,46.6890625 C572.576836,47.6942708 571.95444,48.946875 571.95444,50.446875 C571.95444,53.0197917 573.964857,54.728125 577.98569,55.571875 C579.194023,55.821875 580.071627,56.1057292 580.618502,56.4234375 C581.165377,56.7411458 581.438815,57.1760417 581.438815,57.728125 C581.438815,58.259375 581.217461,58.6890625 580.774752,59.0171875 C580.332044,59.3453125 579.678398,59.509375 578.813815,59.509375 C577.886732,59.509375 577.147148,59.2958333 576.595065,58.86875 C576.042982,58.4416667 575.746107,57.8270833 575.70444,57.025 L575.70444,57.025 L571.42319,57.025 C571.42319,58.0458333 571.73569,58.9963542 572.36069,59.8765625 C572.98569,60.7567708 573.847669,61.4494792 574.946627,61.9546875 C576.045586,62.4598958 577.303398,62.7125 578.720065,62.7125 Z M495.787448,90.8433594 L496.334323,89.3492187 C495.370781,88.6200521 494.625338,87.5165365 494.097995,86.0386719 C493.570651,84.5608073 493.306979,82.8355469 493.306979,80.8628906 L493.306979,80.8628906 L493.306979,80.5601562 C493.306979,78.5940104 493.573906,76.8752604 494.10776,75.4039062 C494.641614,73.9325521 495.383802,72.8453125 496.334323,72.1421875 L496.334323,72.1421875 L495.787448,70.61875 C494.8825,71.0223958 494.042656,71.7434245 493.267917,72.7818359 C492.493177,73.8202474 491.907239,75.0132812 491.510104,76.3609375 C491.112969,77.7085937 490.914401,79.1278646 490.914401,80.61875 L490.914401,80.61875 L490.914401,81.1363281 C490.940443,82.5686198 491.155286,83.9423177 491.558932,85.2574219 C491.962578,86.572526 492.546888,87.7330078 493.311862,88.7388672 C494.076836,89.7447266 494.902031,90.446224 495.787448,90.8433594 L495.787448,90.8433594 Z M500.572604,86.4 L500.572604,78.9488281 C500.969739,78.2717448 501.565443,77.9332031 502.359713,77.9332031 C502.965182,77.9332031 503.398125,78.0682943 503.658542,78.3384766 C503.918958,78.6086589 504.049167,79.0432292 504.049167,79.6421875 L504.049167,79.6421875 L504.049167,86.4 L506.871432,86.4 L506.871432,79.5738281 C506.858411,78.2652344 506.578463,77.2821615 506.031588,76.6246094 C505.484713,75.9670573 504.65138,75.6382812 503.531588,75.6382812 C502.262057,75.6382812 501.249687,76.1102865 500.494479,77.0542969 L500.494479,77.0542969 L500.406588,75.8335937 L497.750338,75.8335937 L497.750338,86.4 L500.572604,86.4 Z M517.984713,79.1148437 L517.984713,76.8101562 L509.254245,76.8101562 L509.254245,79.1148437 L517.984713,79.1148437 Z M517.984713,83.3433594 L517.984713,81.0386719 L509.254245,81.0386719 L509.254245,83.3433594 L517.984713,83.3433594 Z M524.830417,86.5953125 C526.347344,86.5953125 527.566419,86.2144531 528.487643,85.4527344 C529.408867,84.6910156 529.869479,83.6786458 529.869479,82.415625 C529.869479,81.634375 529.672539,80.9572917 529.278659,80.384375 C528.884779,79.8114583 528.287448,79.3817708 527.486667,79.0953125 C528.131198,78.8023437 528.652031,78.3824219 529.049167,77.8355469 C529.446302,77.2886719 529.64487,76.6897135 529.64487,76.0386719 C529.64487,74.775651 529.218437,73.7844401 528.365573,73.0650391 C527.512708,72.345638 526.334323,71.9859375 524.830417,71.9859375 C523.964531,71.9859375 523.171888,72.1519531 522.452487,72.4839844 C521.733086,72.8160156 521.17319,73.2766276 520.772799,73.8658203 C520.372409,74.455013 520.172213,75.1207031 520.172213,75.8628906 L520.172213,75.8628906 L522.994479,75.8628906 C522.994479,75.3876302 523.176771,75.001888 523.541354,74.7056641 C523.905937,74.4094401 524.358411,74.2613281 524.898776,74.2613281 C525.497734,74.2613281 525.968112,74.4208333 526.309909,74.7398437 C526.651706,75.0588542 526.822604,75.5048177 526.822604,76.0777344 C526.822604,76.6701823 526.650078,77.1454427 526.305026,77.5035156 C525.959974,77.8615885 525.429375,78.040625 524.713229,78.040625 L524.713229,78.040625 L523.209323,78.040625 L523.209323,80.2476562 L524.703463,80.2476562 C526.265963,80.2476562 527.047213,80.9572917 527.047213,82.3765625 C527.047213,82.9625 526.856784,83.4328776 526.475924,83.7876953 C526.095065,84.142513 525.569349,84.3199219 524.898776,84.3199219 C524.312838,84.3199219 523.819674,84.150651 523.419284,83.8121094 C523.018893,83.4735677 522.818698,83.0373698 522.818698,82.5035156 L522.818698,82.5035156 L519.996432,82.5035156 C519.996432,83.7339844 520.447279,84.7235677 521.348971,85.4722656 C522.250664,86.2209635 523.411146,86.5953125 524.830417,86.5953125 Z M533.805026,86.5367187 L534.498385,86.5269531 C536.659844,86.4358073 538.329765,85.713151 539.508151,84.3589844 C540.686536,83.0048177 541.275729,81.1428385 541.275729,78.7730469 L541.275729,78.7730469 L541.275729,77.728125 C541.269219,76.5953125 541.06414,75.5894531 540.660495,74.7105469 C540.256849,73.8316406 539.690443,73.1578125 538.961276,72.6890625 C538.232109,72.2203125 537.398776,71.9859375 536.461276,71.9859375 C535.549818,71.9859375 534.729505,72.2024089 534.000338,72.6353516 C533.271172,73.0682943 532.703138,73.673763 532.296237,74.4517578 C531.889336,75.2297526 531.685885,76.0842448 531.685885,77.0152344 C531.685885,78.4800781 532.063489,79.6438151 532.818698,80.5064453 C533.573906,81.3690755 534.579765,81.8003906 535.836276,81.8003906 C536.819349,81.8003906 537.678724,81.4390625 538.414401,80.7164062 C538.212578,82.9104167 536.884453,84.0627604 534.430026,84.1734375 L534.430026,84.1734375 L533.805026,84.1832031 L533.805026,86.5367187 Z M536.529635,79.6421875 C535.885104,79.6421875 535.38543,79.3931641 535.030612,78.8951172 C534.675794,78.3970703 534.498385,77.7606771 534.498385,76.9859375 C534.498385,76.2046875 534.680677,75.5552734 535.04526,75.0376953 C535.409844,74.5201172 535.875338,74.2613281 536.441745,74.2613281 C537.053724,74.2613281 537.542005,74.525 537.906588,75.0523437 C538.271172,75.5796875 538.453463,76.321875 538.453463,77.2789062 L538.453463,77.2789062 L538.453463,78.4410156 C538.284193,78.7730469 538.035169,79.05625 537.706393,79.290625 C537.377617,79.525 536.985364,79.6421875 536.529635,79.6421875 Z M545.279635,86.5367187 L545.972995,86.5269531 C548.134453,86.4358073 549.804375,85.713151 550.98276,84.3589844 C552.161146,83.0048177 552.750338,81.1428385 552.750338,78.7730469 L552.750338,78.7730469 L552.750338,77.728125 C552.743828,76.5953125 552.53875,75.5894531 552.135104,74.7105469 C551.731458,73.8316406 551.165052,73.1578125 550.435885,72.6890625 C549.706719,72.2203125 548.873385,71.9859375 547.935885,71.9859375 C547.024427,71.9859375 546.204114,72.2024089 545.474948,72.6353516 C544.745781,73.0682943 544.177747,73.673763 543.770846,74.4517578 C543.363945,75.2297526 543.160495,76.0842448 543.160495,77.0152344 C543.160495,78.4800781 543.538099,79.6438151 544.293307,80.5064453 C545.048515,81.3690755 546.054375,81.8003906 547.310885,81.8003906 C548.293958,81.8003906 549.153333,81.4390625 549.88901,80.7164062 C549.687187,82.9104167 548.359062,84.0627604 545.904635,84.1734375 L545.904635,84.1734375 L545.279635,84.1832031 L545.279635,86.5367187 Z M548.004245,79.6421875 C547.359713,79.6421875 546.860039,79.3931641 546.505221,78.8951172 C546.150404,78.3970703 545.972995,77.7606771 545.972995,76.9859375 C545.972995,76.2046875 546.155286,75.5552734 546.51987,75.0376953 C546.884453,74.5201172 547.349948,74.2613281 547.916354,74.2613281 C548.528333,74.2613281 549.016614,74.525 549.381198,75.0523437 C549.745781,75.5796875 549.928073,76.321875 549.928073,77.2789062 L549.928073,77.2789062 L549.928073,78.4410156 C549.758802,78.7730469 549.509779,79.05625 549.181002,79.290625 C548.852226,79.525 548.459974,79.6421875 548.004245,79.6421875 Z M554.73276,90.8433594 C555.637708,90.4527344 556.487318,89.7365885 557.281588,88.6949219 C558.075859,87.6532552 558.684583,86.4520833 559.10776,85.0914062 C559.530937,83.7307292 559.742526,82.3147135 559.742526,80.8433594 L559.742526,80.8433594 L559.742526,80.4039062 C559.722995,78.9651042 559.496758,77.5751302 559.063815,76.2339844 C558.630872,74.8928385 558.022148,73.7177083 557.237643,72.7085937 C556.453138,71.6994792 555.618177,71.0028646 554.73276,70.61875 L554.73276,70.61875 L554.185885,72.1128906 C555.136406,72.8550781 555.876966,73.9683594 556.407565,75.4527344 C556.938164,76.9371094 557.203463,78.6526042 557.203463,80.5992187 L557.203463,80.5992187 L557.203463,81.1167969 C557.183932,83.0048177 556.907239,84.6747396 556.373385,86.1265625 C555.839531,87.5783854 555.110364,88.6526042 554.185885,89.3492187 L554.185885,89.3492187 L554.73276,90.8433594 Z" id="115días(n=399)" fill="#FFFFFF" fill-rule="nonzero"></path>
            </g>
        </g>
    </g>
</svg>